<svg xmlns="http://www.w3.org/2000/svg" height="1440" width="1440" xml:space="preserve"><path style="fill:#fff;fill-opacity:1;fill-rule:nonzero;stroke:none" d="m1118.31 10322.8-85.43-265.3-566.521-400.16V9117.8l400.164 206.82c80.934 40.47 121.399 71.94 157.367 125.9l13.49-9c-31.47-112.4-35.97-179.84-35.97-350.7V7287.83h539.55v3034.97zm1732.34 9-548.54-678.95c-386.67-481.1-544.04-858.78-544.04-1312.9 0-669.94 445.13-1119.56 1106.07-1119.56 651.95 0 1106.07 436.13 1106.07 1056.61 0 606.99-382.18 1029.64-935.21 1029.64-269.78 0-472.11-134.89-624.98-413.66l-17.98 4.5c67.44 179.85 170.85 337.22 323.73 512.57l818.31 921.75zm9-1528.74c332.72 0 544.04-202.33 544.04-521.56 0-337.22-211.32-553.04-544.04-553.04-328.23 0-544.05 206.83-544.05 526.06 0 337.22 215.82 548.54 544.05 548.54M4631.4 7861.5c72 0 126.9 36 153 100.8l3.6-.9c-4.5-23.4-6.3-50.4-6.3-86.4h107.1v643.5H4779v-210.6c0-41.4 2.7-80.1 9.9-103.5l-3.6-.9c-28.8 65.7-81.9 100.8-153.9 100.8-116.1 0-196.2-90.9-196.2-221.4 0-132.3 80.1-221.4 196.2-221.4zm32.4 100.8c-70.2 0-113.4 45.9-113.4 120.6 0 74.7 43.2 120.6 113.4 120.6 71.1 0 119.7-48.6 119.7-120.6s-48.6-120.6-119.7-120.6zm287.9 542.7v-134.1h121.5V8505zm5.4-214.2V7875h109.8v415.8zm366.56 13.5c-127.8 0-215.1-86.4-215.1-222.3 0-135 90-220.5 226.8-220.5 68.4 0 124.2 22.5 173.7 67.5l-50.4 79.2c-35.1-32.4-75.6-49.5-123.3-49.5-65.7 0-107.1 33.3-117 95.4l-3.6 9.9 1.8 2.7c11.7-7.2 25.2-9 52.2-9h257.4v26.1c0 138.6-76.5 220.5-202.5 220.5zm-3.6-90c54.9 0 90.9-31.5 94.5-88.2l-1.8-1.8c-7.2 6.3-20.7 7.2-51.3 7.2h-98.1c-18.9 0-36.9-2.7-45-8.1l-1.8 1.8c7.2 55.8 46.8 89.1 103.5 89.1zm504.98 90c-77.4 0-124.2-42.3-151.2-109.8l-3.6 1.8c6.3 27.9 9 48.6 9 94.5h-109.8V7875h109.8v199.8c0 87.3 39.6 129.6 102.6 129.6 51.3 0 80.1-31.5 80.1-93.6V7875h110.7v267.3c0 105.3-53.1 162-147.6 162zm349.73-442.8c108 0 170.1 48.6 170.1 133.2 0 56.7-27 91.8-90 119.7l-72.9 32.4c-31.5 14.4-41.4 23.4-41.4 39.6 0 18 13.5 26.1 43.2 26.1 33.3 0 73.8-9.9 115.2-27.9l36.9 90c-50.4 18.9-100.8 29.7-147.6 29.7-100.8 0-159.3-45.9-159.3-124.2 0-55.8 29.7-97.2 92.7-124.2l75.6-34.2c27-12.6 36-21.6 36-36 0-20.7-16.2-30.6-53.1-30.6-45 0-90.9 13.5-137.7 42.3l-44.1-91.8c50.4-27.9 113.4-44.1 176.4-44.1zm350.64 651.6-101.7-71.1v-114.3c0-15.3 0-27.9 5.4-42.3l-2.7-1.8c-8.1 6.3-18.9 7.2-38.7 7.2h-36v-98.1h36c21.6 0 30.6.9 38.7 6.3l2.7-1.8c-5.4-13.5-5.4-27-5.4-50.4V7875h110.7v271.8c0 23.4 0 36.9-4.5 50.4l2.7 1.8c8.1-5.4 17.1-6.3 37.8-6.3h44.1v98.1h-44.1c-18.9 0-29.7-.9-37.8-7.2l-2.7 1.8c4.5 14.4 4.5 27 4.5 42.3v185.4zm309.06-208.8c-127.8 0-215.1-86.4-215.1-222.3 0-135 90-220.5 226.8-220.5 68.4 0 124.2 22.5 173.7 67.5l-50.4 79.2c-35.1-32.4-75.6-49.5-123.3-49.5-65.7 0-107.1 33.3-117 95.4l-3.6 9.9 1.8 2.7c11.7-7.2 25.2-9 52.2-9h257.4v26.1c0 138.6-76.5 220.5-202.5 220.5zm-3.6-90c54.9 0 90.9-31.5 94.5-88.2l-1.8-1.8c-7.2 6.3-20.7 7.2-51.3 7.2h-98.1c-18.9 0-36.9-2.7-45-8.1l-1.8 1.8c7.2 55.8 46.8 89.1 103.5 89.1zm504.98 90c-77.4 0-124.2-42.3-151.2-109.8l-3.6 1.8c6.3 27.9 9 48.6 9 94.5h-109.8V7875h109.8v199.8c0 87.3 39.6 129.6 102.6 129.6 51.3 0 80.1-31.5 80.1-93.6V7875h110.7v267.3c0 105.3-53.1 162-147.6 162M4599 8761.5c108 0 170.1 48.6 170.1 133.2 0 56.7-27 91.8-90 119.7l-72.9 32.4c-31.5 14.4-41.4 23.4-41.4 39.6 0 18 13.5 26.1 43.2 26.1 33.3 0 73.8-9.9 115.2-27.9l36.9 90c-50.4 18.9-100.8 29.7-147.6 29.7-100.8 0-159.3-45.9-159.3-124.2 0-55.8 29.7-97.2 92.7-124.2l75.6-34.2c27-12.6 36-21.6 36-36 0-20.7-16.2-30.6-53.1-30.6-45 0-90.9 13.5-137.7 42.3l-44.1-91.8c50.4-27.9 113.4-44.1 176.4-44.1zm350.64 651.6-101.7-71.1v-114.3c0-15.3 0-27.9 5.4-42.3l-2.7-1.8c-8.1 6.3-18.9 7.2-38.7 7.2h-36v-98.1h36c21.6 0 30.6.9 38.7 6.3l2.7-1.8c-5.4-13.5-5.4-27-5.4-50.4V8775h110.7v271.8c0 23.4 0 36.9-4.5 50.4l2.7 1.8c8.1-5.4 17.1-6.3 37.8-6.3h44.1v98.1h-44.1c-18.9 0-29.7-.9-37.8-7.2l-2.7 1.8c4.5 14.4 4.5 27 4.5 42.3v185.4zm309.05-208.8c-127.8 0-215.1-86.4-215.1-222.3 0-135 90-220.5 226.8-220.5 68.4 0 124.2 22.5 173.7 67.5l-50.4 79.2c-35.1-32.4-75.6-49.5-123.3-49.5-65.7 0-107.1 33.3-117 95.4l-3.6 9.9 1.8 2.7c11.7-7.2 25.2-9 52.2-9h257.4v26.1c0 138.6-76.5 220.5-202.5 220.5zm-3.6-90c54.9 0 90.9-31.5 94.5-88.2l-1.8-1.8c-7.2 6.3-20.7 7.2-51.3 7.2h-98.1c-18.9 0-36.9-2.7-45-8.1l-1.8 1.8c7.2 55.8 46.8 89.1 103.5 89.1zm487.88 89.1c-70.2 0-117.9-43.2-139.5-135.9l-3.6.9c7.2 43.2 11.7 85.5 11.7 122.4h-107.1V8775h109.8v176.4c0 93.6 42.3 135.9 117.9 135.9 9 0 16.2 0 34.2-1.8v117c-7.2.9-14.4.9-23.4.9zm47.34 215.1V8775h109.8v120.6c0 37.8-3.6 65.7-10.8 86.4l2.7 1.8 170.1-208.8h143.1l-167.4 193.5c-18.9 18.9-27.9 26.1-37.8 29.7v3.6c9.9 3.6 21.6 10.8 43.2 34.2l144.9 154.8h-137.7l-158.4-183.6-2.7.9c7.2 21.6 10.8 51.3 10.8 90.9v319.5zm593.54-214.2c-127.8 0-215.1-86.4-215.1-222.3 0-135 90-220.5 226.8-220.5 68.4 0 124.2 22.5 173.7 67.5l-50.4 79.2c-35.1-32.4-75.6-49.5-123.3-49.5-65.7 0-107.1 33.3-117 95.4l-3.6 9.9 1.8 2.7c11.7-7.2 25.2-9 52.2-9h257.4v26.1c0 138.6-76.5 220.5-202.5 220.5zm-3.6-90c54.9 0 90.9-31.5 94.5-88.2l-1.8-1.8c-7.2 6.3-20.7 7.2-51.3 7.2h-98.1c-18.9 0-36.9-2.7-45-8.1l-1.8 1.8c7.2 55.8 46.8 89.1 103.5 89.1zm757.78 90c-73.8 0-123.3-38.7-153-100.8l-3.6.9c5.4 21.6 8.1 51.3 8.1 86.4h-108V8595h108.9v181.8c0 31.5-2.7 58.5-8.1 84.6l3.6.9c27.9-66.6 83.7-100.8 153-100.8 116.1 0 196.2 89.1 196.2 221.4s-81.9 221.4-197.1 221.4zm-31.5-100.8c69.3 0 113.4-45.9 113.4-120.6 0-74.7-43.2-120.6-113.4-120.6-71.1 0-119.7 48.6-119.7 120.6s48.6 120.6 119.7 120.6zm550.52 87.3v-202.5c0-83.7-36-124.2-89.1-124.2-50.4 0-80.1 30.6-80.1 95.4v231.3h-113.4v-259.2c0-110.7 59.4-170.1 147.6-170.1 72.9 0 117 36.9 144.9 108.9l4.5-.9c-8.1-28.8-12.6-60.3-12.6-94.5h108.9v415.8zm434.69-429.3c116.1 0 196.2 89.1 196.2 221.4 0 130.5-80.1 221.4-196.2 221.4-72 0-125.1-35.1-153.9-100.8l-3.6.9c7.2 23.4 9.9 62.1 9.9 103.5v210.6h-109.8V8775h107.1c0 36-1.8 63-6.3 86.4l3.6.9c26.1-64.8 81-100.8 153-100.8zm-32.4 100.8c-71.1 0-119.7 48.6-119.7 120.6s48.6 120.6 119.7 120.6c70.2 0 113.4-45.9 113.4-120.6 0-74.7-43.2-120.6-113.4-120.6zm274.94 556.2V8775h109.8v643.5zm171.26-13.5v-134.1h121.5V9405zm5.4-214.2V8775h109.8v415.8zm366.56 13.5c-127.8 0-215.1-86.4-215.1-222.3 0-135 90-220.5 226.8-220.5 68.4 0 124.2 22.5 173.7 67.5l-50.4 79.2c-35.1-32.4-75.6-49.5-123.3-49.5-65.7 0-107.1 33.3-117 95.4l-3.6 9.9 1.8 2.7c11.7-7.2 25.2-9 52.2-9H9080v26.1c0 138.6-76.5 220.5-202.5 220.5zm-3.6-90c54.9 0 90.9-31.5 94.5-88.2l-1.8-1.8c-7.2 6.3-20.7 7.2-51.3 7.2h-98.1c-18.9 0-36.9-2.7-45-8.1l-1.8 1.8c7.2 55.8 46.8 89.1 103.5 89.1zm249.38 304.2V8775h109.8v120.6c0 37.8-3.6 65.7-10.8 86.4l2.7 1.8 170.1-208.8h143.1l-167.4 193.5c-18.9 18.9-27.9 26.1-37.8 29.7v3.6c9.9 3.6 21.6 10.8 43.2 34.2l144.9 154.8h-137.7l-158.4-183.6-2.7.9c7.2 21.6 10.8 51.3 10.8 90.9v319.5zm593.54-214.2c-127.8 0-215.1-86.4-215.1-222.3 0-135 90-220.5 226.8-220.5 68.4 0 124.2 22.5 173.7 67.5l-50.4 79.2c-35.1-32.4-75.6-49.5-123.3-49.5-65.7 0-107.1 33.3-117 95.4l-3.6 9.9 1.8 2.7c11.7-7.2 25.2-9 52.2-9h257.4v26.1c0 138.6-76.5 220.5-202.5 220.5zm-3.6-90c54.9 0 90.9-31.5 94.5-88.2l-1.8-1.8c-7.2 6.3-20.7 7.2-51.3 7.2h-98.1c-18.9 0-36.9-2.7-45-8.1l-1.8 1.8c7.2 55.8 46.8 89.1 103.5 89.1M4741.2 10090.8l-71.1-169.2c-18.9-45.9-24.3-57.6-28.8-91.8h-1.8c-4.5 34.2-9.9 45.9-28.8 91.8l-70.2 169.2h-125.1l207-422.1h36.9l207 422.1zm385.55 12.6c-70.2 0-117.9-43.2-139.5-135.9l-3.6.9c7.2 43.2 11.7 85.5 11.7 122.4h-107.1V9675h109.8v176.4c0 93.6 42.3 135.9 117.9 135.9 9 0 16.2 0 34.2-1.8v117c-7.2.9-14.4.9-23.4.9zm241.92.9c-127.8 0-215.1-86.4-215.1-222.3 0-135 90-220.5 226.8-220.5 68.4 0 124.2 22.5 173.7 67.5l-50.4 79.2c-35.1-32.4-75.6-49.5-123.3-49.5-65.7 0-107.1 33.3-117 95.4l-3.6 9.9 1.8 2.7c11.7-7.2 25.2-9 52.2-9h257.4v26.1c0 138.6-76.5 220.5-202.5 220.5zm-3.6-90c54.9 0 90.9-31.5 94.5-88.2l-1.8-1.8c-7.2 6.3-20.7 7.2-51.3 7.2h-98.1c-18.9 0-36.9-2.7-45-8.1l-1.8 1.8c7.2 55.8 46.8 89.1 103.5 89.1zm422.36-352.8c72 0 126.9 36 153 100.8l3.6-.9c-4.5-23.4-6.3-50.4-6.3-86.4h107.1v643.5h-109.8v-210.6c0-41.4 2.7-80.1 9.9-103.5l-3.6-.9c-28.8 65.7-81.9 100.8-153.9 100.8-116.1 0-196.2-90.9-196.2-221.4 0-132.3 80.1-221.4 196.2-221.4zm32.4 100.8c-70.2 0-113.4 45.9-113.4 120.6 0 74.7 43.2 120.6 113.4 120.6 71.1 0 119.7-48.6 119.7-120.6s-48.6-120.6-119.7-120.6zm484.19 342c-127.8 0-215.1-86.4-215.1-222.3 0-135 90-220.5 226.8-220.5 68.4 0 124.2 22.5 173.7 67.5l-50.4 79.2c-35.1-32.4-75.6-49.5-123.3-49.5-65.7 0-107.1 33.3-117 95.4l-3.6 9.9 1.8 2.7c11.7-7.2 25.2-9 52.2-9h257.4v26.1c0 138.6-76.5 220.5-202.5 220.5zm-3.6-90c54.9 0 90.9-31.5 94.5-88.2l-1.8-1.8c-7.2 6.3-20.7 7.2-51.3 7.2h-98.1c-18.9 0-36.9-2.7-45-8.1l-1.8 1.8c7.2 55.8 46.8 89.1 103.5 89.1zm281.42-489.6 90.9 260.1h-123.3l-29.7-260.1zm403.18 780.3v-134.1h121.5v134.1zm5.4-214.2v-427.5c0-48.6-20.7-77.4-67.5-77.4h-8.1v-104.4h9.9c108.9 0 175.5 53.1 175.5 178.2v431.1zm453.5 0v-202.5c0-83.7-36-124.2-89.1-124.2-50.4 0-80.1 30.6-80.1 95.4v231.3h-113.4v-259.2c0-110.7 59.4-170.1 147.6-170.1 72.9 0 117 36.9 144.9 108.9l4.5-.9c-8.1-28.8-12.6-60.3-12.6-94.5h108.9v415.8zm315.62-429.3c108 0 170.1 48.6 170.1 133.2 0 56.7-27 91.8-90 119.7l-72.9 32.4c-31.5 14.4-41.4 23.4-41.4 39.6 0 18 13.5 26.1 43.2 26.1 33.3 0 73.8-9.9 115.2-27.9l36.9 90c-50.4 18.9-100.8 29.7-147.6 29.7-100.8 0-159.3-45.9-159.3-124.2 0-55.8 29.7-97.2 92.7-124.2l75.6-34.2c27-12.6 36-21.6 36-36 0-20.7-16.2-30.6-53.1-30.6-45 0-90.9 13.5-137.7 42.3l-44.1-91.8c50.4-27.9 113.4-44.1 176.4-44.1zm350.64 651.6-101.7-71.1v-114.3c0-15.3 0-27.9 5.4-42.3l-2.7-1.8c-8.1 6.3-18.9 7.2-38.7 7.2h-36v-98.1h36c21.6 0 30.6.9 38.7 6.3l2.7-1.8c-5.4-13.5-5.4-27-5.4-50.4V9675h110.7v271.8c0 23.4 0 36.9-4.5 50.4l2.7 1.8c8.1-5.4 17.1-6.3 37.8-6.3h44.1v98.1h-44.1c-18.9 0-29.7-.9-37.8-7.2l-2.7 1.8c4.5 14.4 4.5 27 4.5 42.3v185.4zm110.42-8.1v-134.1h121.51v134.1zm5.4-214.2V9675h109.81v415.8zm310.23 222.3-101.7-71.1v-114.3c0-15.3 0-27.9 5.4-42.3l-2.7-1.8c-8.1 6.3-18.9 7.2-38.7 7.2h-36v-98.1h36c21.6 0 30.6.9 38.7 6.3l2.7-1.8c-5.4-13.5-5.4-27-5.4-50.4V9675h110.7v271.8c0 23.4 0 36.9-4.5 50.4l2.7 1.8c8.1-5.4 17.1-6.3 37.8-6.3h44.1v98.1h-44.1c-18.9 0-29.7-.9-37.8-7.2l-2.7 1.8c4.5 14.4 4.5 27 4.5 42.3v185.4zm110.42-8.1v-134.1h121.5v134.1zm5.4-214.2V9675h109.8v415.8zm366.56 13.5c-127.8 0-215.1-86.4-215.1-222.3 0-135 90-220.5 226.8-220.5 68.4 0 124.2 22.5 173.7 67.5l-50.4 79.2c-35.1-32.4-75.6-49.5-123.3-49.5-65.7 0-107.1 33.3-117 95.4l-3.6 9.9 1.8 2.7c11.7-7.2 25.2-9 52.2-9h257.4v26.1c0 138.6-76.5 220.5-202.5 220.5zm-3.6-90c54.9 0 90.9-31.5 94.5-88.2l-1.8-1.8c-7.2 6.3-20.7 7.2-51.3 7.2h-98.1c-18.9 0-36.9-2.7-45-8.1l-1.8 1.8c7.2 55.8 46.8 89.1 103.5 89.1zm688.48 90c-127.8 0-215.1-86.4-215.1-222.3 0-135 90-220.5 226.8-220.5 68.4 0 124.2 22.5 173.7 67.5l-50.4 79.2c-35.1-32.4-75.6-49.5-123.3-49.5-65.7 0-107.1 33.3-117 95.4l-3.6 9.9 1.8 2.7c11.7-7.2 25.2-9 52.2-9h257.4v26.1c0 138.6-76.5 220.5-202.5 220.5zm-3.6-90c54.9 0 90.9-31.5 94.5-88.2l-1.8-1.8c-7.2 6.3-20.7 7.2-51.3 7.2h-98.1c-18.9 0-36.9-2.7-45-8.1l-1.8 1.8c7.2 55.8 46.8 89.1 103.5 89.1zm505.01 90c-77.4 0-124.2-42.3-151.2-109.8l-3.6 1.8c6.3 27.9 9 48.6 9 94.5h-109.82V9675h109.82v199.8c0 87.3 39.6 129.6 102.6 129.6 51.3 0 80.1-31.5 80.1-93.6V9675h110.7v267.3c0 105.3-53.1 162-147.6 162M7675.71 6653.22s-127.92-165.14-90.72-325.98c37.45-160.89 226.18-256.58 226.18-256.58s128 165.1 90.68 325.93c-37.33 160.97-226.14 256.63-226.14 256.63M7467.23 5710.36s127.99 165.21 90.69 326.08c-37.46 160.97-226.14 256.45-226.14 256.45s-128.07-164.97-90.88-325.95c37.53-160.83 226.33-256.58 226.33-256.58M7993.05 5887.19s135.13-132.45 288.97-119.11c153.87 13.23 267.91 167.13 267.91 167.13S8414.99 6067.6 8261 6054.33c-153.84-13.3-267.95-167.14-267.95-167.14M8214.39 6594.41c-125.14-123.42-107.48-341.84-107.48-341.84s220.67-18.6 346.11 104.69c125.13 123.32 107.51 341.73 107.51 341.73s-220.85 18.64-346.14-104.58M7938.23 5396.36c153.29-17.65 297.46 110.26 297.46 110.26s-104.41 156.46-257.6 174.07c-153.44 17.51-297.58-110.43-297.58-110.43s104.38-156.32 257.72-173.9M8075.16 3001.42H6929.22c-89.67 0-162.34-70.29-162.34-157.4 0-87 72.67-157.64 162.34-157.64h1145.94c89.53 0 162.09 70.64 162.09 157.64 0 87.11-72.56 157.4-162.09 157.4M8075.16 1265.04H6929.22c-89.67 0-162.34-70.36-162.34-157.5 0-86.93 72.67-157.54 162.34-157.54h1145.94c89.53 0 162.09 70.61 162.09 157.54 0 87.14-72.56 157.5-162.09 157.5M2921.44 3383.85c-26.96 8.09-53.63 15.23-79.55 19.9 0 0 29.37-8.87 79.55-19.9" transform="matrix(.13333 0 0 -.13333 0 1440)"/><path style="fill:#fff;fill-opacity:1;fill-rule:nonzero;stroke:none" d="M4778.7 2702.27c75.52-1.23 151.29.95 227.23 5.96v-581.72l-227.23 5v570.76zm3254.22-125.88H6971.04c-50.93 0-92.28-40.24-92.28-89.63v-312.49l-693.2-74.04-1012.7 22.49v601.1c134.51 16.73 269.21 42.79 402.94 79.43 974.86 267.31 1187.45 857.3 1166.22 1399.16-21.24 551.85 160.5 766.16 421.68 861.46 74.79 27.28 148.76 44.55 216.45 55.76 2.88-135.61 31.17-293.16 93.57-480.93 23.14 1.23 46.17 3.16 69.09 5.58-65.85 192.07-93.96 350.03-95.51 484.77 134.91 15.49 231.19 6.76 231.19 6.76s-91.2 47.61-220.01 152.26c43.78 261.32 203.97 421.76 369.09 585.85 90.72 90.36 184.47 183.6 258.33 294.77l-57.56 36.03c-69.86-105.62-161.6-196.34-249.9-284.26-161.01-160.05-323.46-323.58-378.5-583-52.34 45.87-108.93 100.12-166.85 163.27-240.42 261.92-549.87 69.53-991.16-329.75-441.54-399.03-996.66-412.73-1538.92 126.37-715.41 711.66-1339.42 707.6-1767.37 667.21 292.76-121.15 395.16-386.95 543.33-1062.57 155.29-708.94 546.91-1029.65 1082.64-1073.92-248.35-39.13-312.76-72.57-711.95-340.51-311.82-209.03-750.41-142.97-928.22-103.71 326.42-98.87 713.07-431.61 1059.06-547.44 201.41-67.34 413.79-108.99 631.28-125.77v-575.38l-1920.95 40.24v-401.41l3494.73 75.3 693.2-74.15v-312.21c0-49.42 41.35-89.79 92.28-89.79h1061.88c51 0 92.45 40.37 92.45 89.79v1023.73c0 49.39-41.45 89.63-92.45 89.63M2591.67 1840.46c0-84.66-60.77-153.3-135.67-153.3h-81.64c-74.79 0-135.74 68.64-135.74 153.3v277.43c0 84.76 60.95 153.3 135.74 153.3H2456c74.9 0 135.67-68.54 135.67-153.3v-277.43" transform="matrix(.13333 0 0 -.13333 0 1440)"/></svg>