<?xml version="1.0" encoding="UTF-8" standalone="no"?>
<svg
   xmlns:dc="http://purl.org/dc/elements/1.1/"
   xmlns:cc="http://creativecommons.org/ns#"
   xmlns:rdf="http://www.w3.org/1999/02/22-rdf-syntax-ns#"
   xmlns:svg="http://www.w3.org/2000/svg"
   xmlns="http://www.w3.org/2000/svg"
   xmlns:sodipodi="http://sodipodi.sourceforge.net/DTD/sodipodi-0.dtd"
   xmlns:inkscape="http://www.inkscape.org/namespaces/inkscape"
   version="1.1"
   id="svg2"
   xml:space="preserve"
   width="1440"
   height="1440"
   viewBox="0 0 1440 1440"
   sodipodi:docname="17SDGs_V2_Text_Nobackground_rgb_1.eps"><metadata
     id="metadata8"><rdf:RDF><cc:Work
         rdf:about=""><dc:format>image/svg+xml</dc:format><dc:type
           rdf:resource="http://purl.org/dc/dcmitype/StillImage" /></cc:Work></rdf:RDF></metadata><defs
     id="defs6" /><sodipodi:namedview
     pagecolor="#ffffff"
     bordercolor="#666666"
     borderopacity="1"
     objecttolerance="10"
     gridtolerance="10"
     guidetolerance="10"
     inkscape:pageopacity="0"
     inkscape:pageshadow="2"
     inkscape:window-width="640"
     inkscape:window-height="480"
     id="namedview4" /><g
     id="g10"
     inkscape:groupmode="layer"
     inkscape:label="ink_ext_XXXXXX"
     transform="matrix(1.3333333,0,0,-1.3333333,0,1440)"><g
       id="g12"
       transform="scale(0.1)"><path
         d="m 1118.31,10322.8 -85.43,-265.3 -566.521,-400.16 V 9117.8 l 400.164,206.82 c 80.934,40.47 121.399,71.94 157.367,125.9 l 13.49,-9 c -31.47,-112.4 -35.97,-179.84 -35.97,-350.7 V 7287.83 h 539.55 v 3034.97 h -422.65"
         style="fill:#ffffff;fill-opacity:1;fill-rule:nonzero;stroke:none"
         id="path14" /><path
         d="m 2187.7,9204.3 c -47.7,0 -103.5,-7.2 -156.6,-20.7 l 21.6,-92.7 c 55.8,13.5 90.9,18 123.3,18 56.7,0 89.1,-23.4 91.8,-66.6 0,-23.4 1.8,-45 7.2,-61.2 l -3.6,-1.8 c -28.8,46.8 -77.4,72 -139.5,72 -90.9,0 -150.3,-55.8 -150.3,-144 0,-87.3 59.4,-145.8 148.5,-145.8 63.9,0 112.5,29.7 143.1,89.1 l 3.6,-1.8 c -9.9,-23.4 -13.5,-44.1 -13.5,-73.8 h 111.6 v 261.9 c 0,117.9 -55.8,167.4 -187.2,167.4 z m -13.5,-228.6 c 45,0 76.5,-26.1 76.5,-63.9 0,-37.8 -31.5,-64.8 -77.4,-64.8 -44.1,0 -73.8,25.2 -73.8,63.9 0,37.8 29.7,64.8 74.7,64.8 z m 504.08,227.7 c -70.2,0 -117.9,-43.2 -139.5,-135.9 l -3.6,0.9 c 7.2,43.2 11.7,85.5 11.7,122.4 h -107.1 V 8775 h 109.8 v 176.4 c 0,93.6 42.3,135.9 117.9,135.9 9,0 16.2,0 34.2,-1.8 v 117 c -7.2,0.9 -14.4,0.9 -23.4,0.9 z M 2835.42,8775 v 205.2 c 0,87.3 33.3,123.3 86.4,123.3 49.5,0 76.5,-27 76.5,-95.4 V 8775 h 107.1 v 205.2 c 0,87.3 32.4,123.3 86.4,123.3 49.5,0 75.6,-27 75.6,-96.3 V 8775 h 110.7 v 268.2 c 0,107.1 -53.1,161.1 -139.5,161.1 -73.8,0 -120.6,-41.4 -140.4,-100.8 h -3.6 c -16.2,64.8 -55.8,100.8 -126.9,100.8 -71.1,0 -112.5,-32.4 -139.5,-102.6 l -3.6,1.8 c 7.2,28.8 9.9,55.8 9.9,87.3 h -108.9 V 8775 Z m 812.96,429.3 c -133.2,0 -230.4,-91.8 -230.4,-221.4 0,-129.6 97.2,-221.4 230.4,-221.4 133.2,0 230.4,91.8 230.4,221.4 0,129.6 -97.2,221.4 -230.4,221.4 z m 0,-104.4 c 68.4,0 117,-45.9 117,-117 0,-71.1 -48.6,-117 -117,-117 -68.4,0 -117,45.9 -117,117 0,71.1 48.6,117 117,117 z m 464.22,104.4 c -127.8,0 -215.1,-86.4 -215.1,-222.3 0,-135 90,-220.5 226.8,-220.5 68.4,0 124.2,22.5 173.7,67.5 l -50.4,79.2 c -35.1,-32.4 -75.6,-49.5 -123.3,-49.5 -65.7,0 -107.1,33.3 -117,95.4 l -3.6,9.9 1.8,2.7 c 11.7,-7.2 25.2,-9 52.2,-9 h 257.4 v 26.1 c 0,138.6 -76.5,220.5 -202.5,220.5 z m -3.6,-90 c 54.9,0 90.9,-31.5 94.5,-88.2 l -1.8,-1.8 c -7.2,6.3 -20.7,7.2 -51.3,7.2 h -98.1 c -18.9,0 -36.9,-2.7 -45,-8.1 l -1.8,1.8 c 7.2,55.8 46.8,89.1 103.5,89.1 z m 422.36,-352.8 c 72,0 126.9,36 153,100.8 l 3.6,-0.9 c -4.5,-23.4 -6.3,-50.4 -6.3,-86.4 h 107.1 v 643.5 h -109.8 v -210.6 c 0,-41.4 2.7,-80.1 9.9,-103.5 l -3.6,-0.9 c -28.8,65.7 -81.9,100.8 -153.9,100.8 -116.1,0 -196.2,-90.9 -196.2,-221.4 0,-132.3 80.1,-221.4 196.2,-221.4 z m 32.4,100.8 c -70.2,0 -113.4,45.9 -113.4,120.6 0,74.7 43.2,120.6 113.4,120.6 71.1,0 119.7,-48.6 119.7,-120.6 0,-72 -48.6,-120.6 -119.7,-120.6 z m 484.19,342 c -127.8,0 -215.1,-86.4 -215.1,-222.3 0,-135 90,-220.5 226.8,-220.5 68.4,0 124.2,22.5 173.7,67.5 l -50.4,79.2 c -35.1,-32.4 -75.6,-49.5 -123.3,-49.5 -65.7,0 -107.1,33.3 -117,95.4 l -3.6,9.9 1.8,2.7 c 11.7,-7.2 25.2,-9 52.2,-9 h 257.4 v 26.1 c 0,138.6 -76.5,220.5 -202.5,220.5 z m -3.6,-90 c 54.9,0 90.9,-31.5 94.5,-88.2 l -1.8,-1.8 c -7.2,6.3 -20.7,7.2 -51.3,7.2 h -98.1 c -18.9,0 -36.9,-2.7 -45,-8.1 l -1.8,1.8 c 7.2,55.8 46.8,89.1 103.5,89.1"
         style="fill:#ffffff;fill-opacity:1;fill-rule:nonzero;stroke:none"
         id="path16" /><path
         d="m 2181.4,10104.3 c -115.2,0 -196.2,-89.1 -196.2,-221.4 0,-130.5 80.1,-216.9 195.3,-216.9 69.3,0 121.5,32.4 153.9,96.3 l 3.6,-0.9 c -5.4,-21.6 -7.2,-36.9 -7.2,-61.2 v -12.6 c 0,-64.8 -51.3,-102.6 -128.7,-102.6 -53.1,0 -96.3,13.5 -143.1,41.4 l -49.5,-94.5 c 53.1,-32.4 115.2,-50.4 197.1,-50.4 145.8,0 232.2,65.7 232.2,220.5 v 388.8 h -110.7 c 0,-43.2 2.7,-64.8 9.9,-86.4 l -3.6,-0.9 c -27.9,62.1 -78.3,100.8 -153,100.8 z m 29.7,-101.7 c 68.4,0 117.9,-48.6 117.9,-119.7 0,-71.1 -49.5,-119.7 -117.9,-119.7 -66.6,0 -110.7,45.9 -110.7,119.7 0,73.8 44.1,119.7 110.7,119.7 z m 485.64,101.7 c -127.8,0 -215.1,-86.4 -215.1,-222.3 0,-135 90,-220.5 226.8,-220.5 68.4,0 124.2,22.5 173.7,67.5 l -50.4,79.2 c -35.1,-32.4 -75.6,-49.5 -123.3,-49.5 -65.7,0 -107.1,33.3 -117,95.4 l -3.6,9.9 1.8,2.7 c 11.7,-7.2 25.2,-9 52.2,-9 h 257.4 v 26.1 c 0,138.6 -76.5,220.5 -202.5,220.5 z m -3.6,-90 c 54.9,0 90.9,-31.5 94.5,-88.2 l -1.8,-1.8 c -7.2,6.3 -20.7,7.2 -51.3,7.2 h -98.1 c -18.9,0 -36.9,-2.7 -45,-8.1 l -1.8,1.8 c 7.2,55.8 46.8,89.1 103.5,89.1 z m 439.1,90 c -127.8,0 -215.1,-86.4 -215.1,-222.3 0,-135 90,-220.5 226.8,-220.5 68.4,0 124.2,22.5 173.7,67.5 l -50.4,79.2 c -35.1,-32.4 -75.6,-49.5 -123.3,-49.5 -65.7,0 -107.1,33.3 -117,95.4 l -3.6,9.9 1.8,2.7 c 11.7,-7.2 25.2,-9 52.2,-9 h 257.4 v 26.1 c 0,138.6 -76.5,220.5 -202.5,220.5 z m -3.6,-90 c 54.9,0 90.9,-31.5 94.5,-88.2 l -1.8,-1.8 c -7.2,6.3 -20.7,7.2 -51.3,7.2 h -98.1 c -18.9,0 -36.9,-2.7 -45,-8.1 l -1.8,1.8 c 7.2,55.8 46.8,89.1 103.5,89.1 z m 504.98,90 c -77.4,0 -124.2,-42.3 -151.2,-109.8 l -3.6,1.8 c 6.3,27.9 9,48.6 9,94.5 h -109.8 V 9675 h 109.8 v 199.8 c 0,87.3 39.6,129.6 102.6,129.6 51.3,0 80.1,-31.5 80.1,-93.6 V 9675 h 110.7 v 267.3 c 0,105.3 -53.1,162 -147.6,162"
         style="fill:#ffffff;fill-opacity:1;fill-rule:nonzero;stroke:none"
         id="path18" /><path
         d="m 9093.21,4673.05 c 0,190.67 159.1,345.04 355.18,345.04 195.77,0 354.42,-154.37 354.42,-345.04 0,-190.48 -158.65,-344.96 -354.42,-344.96 -196.08,0 -355.18,154.48 -355.18,344.96"
         style="fill:#ffffff;fill-opacity:1;fill-rule:nonzero;stroke:none"
         id="path20" /><path
         d="m 9862.73,4195.11 c 240.77,-21.17 429.57,-218 429.57,-458.05 v -114.63 -50.13 -791.35 c 0,-73.54 -61.6,-133.66 -137.4,-133.66 -76.4,0 -137.7,60.12 -137.7,133.66 v 821.13 c 0,30.81 -9.2,72.51 -67.19,72.51 -40.06,0 -48.38,-41.26 -49.88,-67.53 V 1145.8 c 0,-105.75 -88.15,-192.081 -197.56,-192.081 -109.46,0 -198.07,86.331 -198.07,192.081 v 1418.35 c -0.54,15.64 -5.93,56.31 -56.11,56.31 h -0.24 c -50.4,0 -56.57,-40.67 -57.12,-56.31 V 1145.8 c 0,-105.75 -88.06,-192.081 -197.46,-192.081 -109.64,0 -197.77,86.331 -197.77,192.081 v 2461.26 c -1.32,26.27 -9.97,67.53 -49.72,67.53 -58.29,0 -67.09,-41.7 -67.09,-72.51 v -821.13 c 0,-73.54 -61.7,-133.66 -137.7,-133.66 -76.11,0 -137.44,60.12 -137.44,133.66 v 791.35 50.13 114.63 c 0,240.05 188.94,436.88 430.14,458.05 7.86,0.99 16.48,2.11 25.97,2.11 h 388.43 387.33 c 10.19,0 18.51,-1.12 27.01,-2.11"
         style="fill:#ffffff;fill-opacity:1;fill-rule:nonzero;stroke:none"
         id="path22" /><path
         d="m 6982.42,4491.89 c 0,180.4 -150.09,326.97 -335.8,326.97 -185.8,0 -336.28,-146.57 -336.28,-326.97 0,-180.46 150.48,-326.65 336.28,-326.65 185.71,0 335.8,146.19 335.8,326.65"
         style="fill:#ffffff;fill-opacity:1;fill-rule:nonzero;stroke:none"
         id="path24" /><path
         d="m 5969.3,3752.05 -279.42,-883.83 c 0,0 -49.78,-162.04 91.68,-202.48 140.75,-40.5 183.46,117.7 183.46,117.7 l 225.34,737.64 c 0,0 12.2,56.75 56.09,44.45 43.97,-12.21 27.45,-72.92 27.45,-72.92 L 5881.77,2110.23 h 364.68 v -990.14 c 0,-93.66 78.51,-169.918 175.31,-169.918 96.62,0 174.83,76.258 174.83,169.918 v 990.14 h 50.03 49.49 v -990.14 c 0,-93.66 78.02,-169.918 174.98,-169.918 97.01,0 175.37,76.258 175.37,169.918 v 990.14 h 364.53 l -391.83,1382.38 c 0,0 -16.49,60.71 27.3,72.92 43.98,12.3 56.18,-44.45 56.18,-44.45 l 225.25,-737.64 c 0,0 42.89,-158.2 183.39,-117.7 141.78,40.44 91.74,202.48 91.74,202.48 l -279.41,883.83 c 0,0 -99.81,255.52 -320.94,255.52 h -356.05 -356.2 c -221.07,0 -321.12,-255.52 -321.12,-255.52"
         style="fill:#ffffff;fill-opacity:1;fill-rule:nonzero;stroke:none"
         id="path26" /><path
         d="m 4969.31,4491.89 c 0,180.4 -150.33,326.97 -335.98,326.97 -185.8,0 -336.13,-146.57 -336.13,-326.97 0,-180.46 150.33,-326.65 336.13,-326.65 185.65,0 335.98,146.19 335.98,326.65"
         style="fill:#ffffff;fill-opacity:1;fill-rule:nonzero;stroke:none"
         id="path28" /><path
         d="m 3956,3752.05 -279.23,-883.83 c 0,0 -49.97,-162.04 91.59,-202.48 140.66,-40.5 183.39,117.7 183.39,117.7 l 225.32,737.64 c 0,0 12.23,56.75 56.11,44.45 44.04,-12.21 27.37,-72.92 27.37,-72.92 L 3868.57,2110.23 h 364.61 v -990.14 c 0,-93.66 78.73,-169.918 175.29,-169.918 96.8,0 174.98,76.258 174.98,169.918 v 990.14 h 50.21 49.31 v -990.14 c 0,-93.66 77.9,-169.918 175.07,-169.918 97.04,0 175.16,76.258 175.16,169.918 v 990.14 h 364.67 l -391.76,1382.38 c 0,0 -16.64,60.71 27.09,72.92 43.88,12.3 56.24,-44.45 56.24,-44.45 l 225.1,-737.64 c 0,0 42.89,-158.2 183.48,-117.7 141.68,40.44 91.65,202.48 91.65,202.48 l -279.41,883.83 c 0,0 -99.6,255.52 -320.79,255.52 h -355.81 -356.44 c -220.98,0 -321.22,-255.52 -321.22,-255.52"
         style="fill:#ffffff;fill-opacity:1;fill-rule:nonzero;stroke:none"
         id="path30" /><path
         d="m 8111.28,2663.92 c 154.76,0 279.62,121.72 279.62,272.13 0,150.29 -124.86,271.62 -279.62,271.62 -154.76,0 -279.81,-121.33 -279.81,-271.62 0,-150.41 125.05,-272.13 279.81,-272.13"
         style="fill:#ffffff;fill-opacity:1;fill-rule:nonzero;stroke:none"
         id="path32" /><path
         d="m 7440.49,1819.39 c -13.68,-31.8 -24.89,-99.22 40.78,-128.62 77.03,-34.35 119.89,37.96 119.89,37.96 l 152.1,471.29 c 0,0 26.4,31.56 26.4,-1.06 V 1089.49 h 0.7 c 0,-77.23 63.95,-139.49 143.55,-139.49 79.35,0 143.49,62.26 143.49,139.49 v 437.81 c 0,0 -8.35,61.88 43,61.88 51.36,0 43.43,-61.88 43.43,-61.88 v -437.81 c 0,-77.23 64.44,-139.49 143.79,-139.49 79.2,0 143.85,62.26 143.85,139.49 v 1109.47 c 0,32.62 17.75,9.34 17.75,9.34 l 119.2,-322.72 c 0,0 51.74,-144.23 67.69,-150.59 53.77,-21.96 115.94,2.99 138.67,55.73 14.85,34.41 9.19,71.34 -11.37,99.19 l 1,1.03 c -3.41,10.42 -178.18,426.83 -198.7,485.28 -63.11,179 -177.97,177.45 -288.52,180.4 -110.63,2.55 -176.79,0 -176.79,0 0,0 -70.64,2.78 -216.69,-1.4 -145.72,-4.45 -191.8,-77.05 -352.62,-479.11 -22.96,-57.93 -100.6,-245.26 -101.62,-256.51 l 1.02,-0.21 v 0"
         style="fill:#ffffff;fill-opacity:1;fill-rule:nonzero;stroke:none"
         id="path34" /><path
         d="m 1967.49,4673.05 c 0,190.67 -159.27,345.04 -355.27,345.04 -195.84,0 -354.49,-154.37 -354.49,-345.04 0,-190.48 158.65,-344.96 354.49,-344.96 196,0 355.27,154.48 355.27,344.96"
         style="fill:#ffffff;fill-opacity:1;fill-rule:nonzero;stroke:none"
         id="path36" /><path
         d="m 1197.82,4195.11 c -240.742,-21.17 -429.738,-218 -429.738,-458.05 v -114.63 -50.13 -791.35 c 0,-73.54 61.703,-133.66 137.719,-133.66 76.097,0 137.649,60.12 137.649,133.66 v 821.13 c 0,30.81 9.18,72.51 67.15,72.51 39.99,0 48.31,-41.26 50.03,-67.53 V 1145.8 c 0,-105.75 88,-192.081 197.47,-192.081 109.32,0 197.71,86.331 197.71,192.081 v 1418.35 c 0.86,15.64 6.15,56.31 56.41,56.31 h 0.16 c 50.42,0 56.57,-40.67 57.03,-56.31 V 1145.8 c 0,-105.75 88.24,-192.081 197.55,-192.081 109.55,0 197.72,86.331 197.72,192.081 v 2461.26 c 1.16,26.27 10.18,67.53 49.86,67.53 58.29,0 67,-41.7 67,-72.51 v -821.13 c 0,-73.54 61.71,-133.66 137.72,-133.66 76.01,0 137.49,60.12 137.49,133.66 v 791.35 50.13 114.63 c 0,240.05 -188.85,436.88 -430.05,458.05 -8.01,0.99 -16.49,2.11 -26.06,2.11 h -388.42 -387.33 c -10.19,0 -18.66,-1.12 -27.07,-2.11"
         style="fill:#ffffff;fill-opacity:1;fill-rule:nonzero;stroke:none"
         id="path38" /><path
         d="M 902.152,2655.82 559.246,1004.67"
         style="fill:none;stroke:#ffffff;stroke-width:76.3966;stroke-linecap:round;stroke-linejoin:miter;stroke-miterlimit:10;stroke-dasharray:none;stroke-opacity:1"
         id="path40" /><path
         d="m 2625.28,2806.37 c -18.38,27.88 -49.97,46.47 -86.37,46.47 -56.18,0 -101.93,-44.45 -101.93,-98.83 0,-15.79 9.97,-43.46 9.97,-43.46 l 282.04,-495.98 c 0,0 17.27,-34.18 17.27,-65.39 V 1084.16 h 0.54 c 0,-74.33 61.72,-133.988 137.97,-133.988 76.1,0 137.49,59.658 137.49,133.988 v 420.3 c 0,0 -7.77,59.45 41.62,59.45 49.25,0 41.56,-59.45 41.56,-59.45 v -420.3 c 0,-74.33 61.85,-133.988 138.01,-133.988 76.1,0 138.12,59.658 138.12,133.988 v 1065.02 c 0,31.21 17.03,65.39 17.03,65.39 l 260.75,457.88 c 0,0 31.89,65.77 31.89,81.56 0,54.38 -45.6,98.83 -102.02,98.83 -36.86,0 -68.38,-18.59 -86.28,-46.47 l -1.15,0.58 c -8.2,-6.85 -138.72,-232.78 -181.85,-274.63 -45.6,-44.67 -86.35,-39.72 -86.35,-39.72 h -169.71 -169.31 c 0,0 -41.08,-4.95 -86.44,39.72 -43.64,41.85 -173.69,267.78 -182,274.63 l -0.85,-0.58 v 0"
         style="fill:#ffffff;fill-opacity:1;fill-rule:nonzero;stroke:none"
         id="path42" /><path
         d="m 3063.88,2663.92 c 154.76,0 279.63,121.72 279.63,272.13 0,150.29 -124.87,271.62 -279.63,271.62 -154.7,0 -279.65,-121.33 -279.65,-271.62 0,-150.41 124.95,-272.13 279.65,-272.13"
         style="fill:#ffffff;fill-opacity:1;fill-rule:nonzero;stroke:none"
         id="path44" /><path
         d="m 3064.34,2282.34 316.21,-224.1 150.26,-537.62 H 2597.5 l 150.63,537.62 316.21,224.1"
         style="fill:#ffffff;fill-opacity:1;fill-rule:nonzero;stroke:none"
         id="path46" /></g></g></svg>
