<svg xmlns="http://www.w3.org/2000/svg" height="1440" width="1440" xml:space="preserve"><path style="fill:#fff;fill-opacity:1;fill-rule:nonzero;stroke:none" d="m1118.31 10322.8-85.43-265.3-566.521-400.16V9117.8l400.164 206.82c80.934 40.47 121.399 71.94 157.367 125.9l13.49-9c-31.47-112.4-35.97-179.84-35.97-350.7V7287.83h539.55v3034.97zm1724.25 67.4c-341.71 0-665.44-112.4-1016.15-359.7l269.78-436.1c256.28 184.34 494.58 278.76 692.42 278.76 233.8 0 373.18-130.39 373.18-350.7 0-166.36-76.43-332.72-278.76-593.51L1628.58 7319.31l13.49-31.48h1933.37l292.26 508.08-4.5 8.99h-822.81c-211.32 0-341.71-17.99-436.13-49.46l-8.99 13.49c80.93 67.44 175.35 161.86 269.77 287.76l458.62 598c296.75 377.68 409.15 638.46 409.15 939.71 0 499.1-328.22 795.8-890.25 795.8M4719.6 8304.3c-73.8 0-123.3-38.7-153-100.8l-3.6.9c5.4 21.6 8.1 51.3 8.1 86.4h-108V7695H4572v181.8c0 31.5-2.7 58.5-8.1 84.6l3.6.9c27.9-66.6 83.7-100.8 153-100.8 116.1 0 196.2 89.1 196.2 221.4s-81.9 221.4-197.1 221.4zm-31.5-100.8c69.3 0 113.4-45.9 113.4-120.6 0-74.7-43.2-120.6-113.4-120.6-71.1 0-119.7 48.6-119.7 120.6s48.6 120.6 119.7 120.6zm512.63 99.9c-70.2 0-117.9-43.2-139.5-135.9l-3.6.9c7.2 43.2 11.7 85.5 11.7 122.4h-107.1V7875h109.8v176.4c0 93.6 42.3 135.9 117.9 135.9 9 0 16.2 0 34.2-1.8v117c-7.2.9-14.4.9-23.4.9zm256.22.9c-133.2 0-230.4-91.8-230.4-221.4 0-129.6 97.2-221.4 230.4-221.4s230.4 91.8 230.4 221.4c0 129.6-97.2 221.4-230.4 221.4zm0-104.4c68.4 0 117-45.9 117-117s-48.6-117-117-117-117 45.9-117 117 48.6 117 117 117zm447.48-338.4c72 0 126.9 36 153 100.8l3.6-.9c-4.5-23.4-6.3-50.4-6.3-86.4h107.1v643.5h-109.8v-210.6c0-41.4 2.7-80.1 9.9-103.5l-3.6-.9c-28.8 65.7-81.9 100.8-153.9 100.8-116.1 0-196.2-90.9-196.2-221.4 0-132.3 80.1-221.4 196.2-221.4zm32.4 100.8c-70.2 0-113.4 45.9-113.4 120.6 0 74.7 43.2 120.6 113.4 120.6 71.1 0 119.7-48.6 119.7-120.6s-48.6-120.6-119.7-120.6zm571.31 328.5v-202.5c0-83.7-36-124.2-89.1-124.2-50.4 0-80.1 30.6-80.1 95.4v231.3h-113.4v-259.2c0-110.7 59.4-170.1 147.6-170.1 72.9 0 117 36.9 144.9 108.9l4.5-.9c-8.1-28.8-12.6-60.3-12.6-94.5h108.9v415.8zm383.03-429.3c54 0 100.8 13.5 145.8 41.4l-47.7 90.9c-29.7-19.8-62.1-28.8-96.3-28.8-69.3 0-117.9 48.6-117.9 117.9 0 69.3 48.6 117.9 117.9 117.9 34.2 0 66.6-9 96.3-28.8l47.7 90.9c-45 27.9-91.8 41.4-145.8 41.4-135.9 0-229.5-90-229.5-221.4s93.6-221.4 229.5-221.4zm330.92 651.6-101.7-71.1v-114.3c0-15.3 0-27.9 5.4-42.3l-2.7-1.8c-8.1 6.3-18.9 7.2-38.7 7.2h-36v-98.1h36c21.6 0 30.6.9 38.7 6.3l2.7-1.8c-5.4-13.5-5.4-27-5.4-50.4V7875h110.7v271.8c0 23.4 0 36.9-4.5 50.4l2.7 1.8c8.1-5.4 17.1-6.3 37.8-6.3h44.1v98.1h-44.1c-18.9 0-29.7-.9-37.8-7.2l-2.7 1.8c4.5 14.4 4.5 27 4.5 42.3v185.4zm110.42-8.1v-134.1h121.5V8505zm5.4-214.2V7875h109.8v415.8zm366.56 13.5c-127.8 0-215.1-86.4-215.1-222.3 0-135 90-220.5 226.8-220.5 68.4 0 124.2 22.5 173.7 67.5l-50.4 79.2c-35.1-32.4-75.6-49.5-123.3-49.5-65.7 0-107.1 33.3-117 95.4l-3.6 9.9 1.8 2.7c11.7-7.2 25.2-9 52.2-9h257.4v26.1c0 138.6-76.5 220.5-202.5 220.5zm-3.6-90c54.9 0 90.9-31.5 94.5-88.2l-1.8-1.8c-7.2 6.3-20.7 7.2-51.3 7.2h-98.1c-18.9 0-36.9-2.7-45-8.1l-1.8 1.8c7.2 55.8 46.8 89.1 103.5 89.1M4664.7 8761.5c54 0 100.8 13.5 145.8 41.4l-47.7 90.9c-29.7-19.8-62.1-28.8-96.3-28.8-69.3 0-117.9 48.6-117.9 117.9 0 69.3 48.6 117.9 117.9 117.9 34.2 0 66.6-9 96.3-28.8l47.7 90.9c-45 27.9-91.8 41.4-145.8 41.4-135.9 0-229.5-90-229.5-221.4s93.6-221.4 229.5-221.4zm373.58 442.8c-133.2 0-230.4-91.8-230.4-221.4 0-129.6 97.2-221.4 230.4-221.4s230.4 91.8 230.4 221.4c0 129.6-97.2 221.4-230.4 221.4zm0-104.4c68.4 0 117-45.9 117-117s-48.6-117-117-117-117 45.9-117 117 48.6 117 117 117zm528.56 104.4c-77.4 0-124.2-42.3-151.2-109.8l-3.6 1.8c6.3 27.9 9 48.6 9 94.5h-109.8V8775h109.8v199.8c0 87.3 39.6 129.6 102.6 129.6 51.3 0 80.1-31.5 80.1-93.6V8775h110.7v267.3c0 105.3-53.1 162-147.6 162zm349.73-442.8c108 0 170.1 48.6 170.1 133.2 0 56.7-27 91.8-90 119.7l-72.9 32.4c-31.5 14.4-41.4 23.4-41.4 39.6 0 18 13.5 26.1 43.2 26.1 33.3 0 73.8-9.9 115.2-27.9l36.9 90c-50.4 18.9-100.8 29.7-147.6 29.7-100.8 0-159.3-45.9-159.3-124.2 0-55.8 29.7-97.2 92.7-124.2l75.6-34.2c27-12.6 36-21.6 36-36 0-20.7-16.2-30.6-53.1-30.6-45 0-90.9 13.5-137.7 42.3l-44.1-91.8c50.4-27.9 113.4-44.1 176.4-44.1zm485.37 429.3v-202.5c0-83.7-36-124.2-89.1-124.2-50.4 0-80.1 30.6-80.1 95.4v231.3h-113.4v-259.2c0-110.7 59.4-170.1 147.6-170.1 72.9 0 117 36.9 144.9 108.9l4.5-.9c-8.1-28.8-12.6-60.3-12.6-94.5h108.9v415.8zm287.1-415.8v205.2c0 87.3 33.29 123.3 86.39 123.3 49.5 0 76.5-27 76.5-95.4V8775h107.11v205.2c0 87.3 32.39 123.3 86.39 123.3 49.5 0 75.6-27 75.6-96.3V8775h110.7v268.2c0 107.1-53.1 161.1-139.49 161.1-73.8 0-120.6-41.4-140.41-100.8h-3.6c-16.2 64.8-55.8 100.8-126.9 100.8-71.1 0-112.5-32.4-139.5-102.6l-3.6 1.8c7.2 28.8 9.9 55.8 9.9 87.3h-108.9V8775zm865.52 429.3c-73.8 0-123.3-38.7-153-100.8l-3.6.9c5.4 21.6 8.1 51.3 8.1 86.4h-108V8595h108.9v181.8c0 31.5-2.7 58.5-8.1 84.6l3.6.9c27.9-66.6 83.7-100.8 153-100.8 116.1 0 196.2 89.1 196.2 221.4s-81.9 221.4-197.1 221.4zm-31.5-100.8c69.3 0 113.4-45.9 113.4-120.6 0-74.7-43.2-120.6-113.4-120.6-71.1 0-119.7 48.6-119.7 120.6s48.6 120.6 119.7 120.6zm408.5 309.6-101.7-71.1v-114.3c0-15.3 0-27.9 5.4-42.3l-2.7-1.8c-8.1 6.3-18.9 7.2-38.7 7.2h-36v-98.1h36c21.6 0 30.6.9 38.7 6.3l2.7-1.8c-5.4-13.5-5.4-27-5.4-50.4V8775h110.7v271.8c0 23.4 0 36.9-4.5 50.4l2.7 1.8c8.1-5.4 17.1-6.3 37.8-6.3h44.1v98.1h-44.1c-18.9 0-29.7-.9-37.8-7.2l-2.7 1.8c4.5 14.4 4.5 27 4.5 42.3v185.4zm110.43-8.1v-134.1h121.5V9405zm5.4-214.2V8775h109.8v415.8zm366.56 13.5c-127.8 0-215.1-86.4-215.1-222.3 0-135 90-220.5 226.8-220.5 68.4 0 124.2 22.5 173.7 67.5l-50.4 79.2c-35.1-32.4-75.6-49.5-123.3-49.5-65.7 0-107.1 33.3-117 95.4l-3.6 9.9 1.8 2.7c11.7-7.2 25.2-9 52.2-9h257.4v26.1c0 138.6-76.5 220.5-202.5 220.5zm-3.6-90c54.9 0 90.9-31.5 94.5-88.2l-1.8-1.8c-7.2 6.3-20.7 7.2-51.3 7.2h-98.1c-18.9 0-36.9-2.7-45-8.1l-1.8 1.8c7.2 55.8 46.8 89.1 103.5 89.1zm688.48 90c-127.8 0-215.1-86.4-215.1-222.3 0-135 90-220.5 226.8-220.5 68.4 0 124.2 22.5 173.7 67.5l-50.4 79.2c-35.1-32.4-75.6-49.5-123.3-49.5-65.7 0-107.1 33.3-117 95.4l-3.6 9.9 1.8 2.7c11.7-7.2 25.2-9 52.2-9h257.4v26.1c0 138.6-76.5 220.5-202.5 220.5zm-3.6-90c54.9 0 90.9-31.5 94.5-88.2l-1.8-1.8c-7.2 6.3-20.7 7.2-51.3 7.2h-98.1c-18.9 0-36.9-2.7-45-8.1l-1.8 1.8c7.2 55.8 46.8 89.1 103.5 89.1zm504.98 90c-77.4 0-124.2-42.3-151.2-109.8l-3.6 1.8c6.3 27.9 9 48.6 9 94.5h-109.8V8775h109.8v199.8c0 87.3 39.6 129.6 102.6 129.6 51.3 0 80.1-31.5 80.1-93.6V8775h110.7v267.3c0 105.3-53.1 162-147.6 162M4741.2 10090.8l-71.1-169.2c-18.9-45.9-24.3-57.6-28.8-91.8h-1.8c-4.5 34.2-9.9 45.9-28.8 91.8l-70.2 169.2h-125.1l207-422.1h36.9l207 422.1zm314.99 13.5c-127.8 0-215.1-86.4-215.1-222.3 0-135 90-220.5 226.8-220.5 68.4 0 124.2 22.5 173.7 67.5l-50.4 79.2c-35.1-32.4-75.6-49.5-123.3-49.5-65.7 0-107.1 33.3-117 95.4l-3.6 9.9 1.8 2.7c11.7-7.2 25.2-9 52.2-9h257.4v26.1c0 138.6-76.5 220.5-202.5 220.5zm-3.6-90c54.9 0 90.9-31.5 94.5-88.2l-1.8-1.8c-7.2 6.3-20.7 7.2-51.3 7.2h-98.1c-18.9 0-36.9-2.7-45-8.1l-1.8 1.8c7.2 55.8 46.8 89.1 103.5 89.1zm487.88 89.1c-70.2 0-117.89-43.2-139.5-135.9l-3.6.9c7.21 43.2 11.7 85.5 11.7 122.4h-107.09V9675h109.79v176.4c0 93.6 42.3 135.9 117.9 135.9 9 0 16.21 0 34.21-1.8v117c-7.21.9-14.4.9-23.41.9zm212.04.9c-47.7 0-103.5-7.2-156.6-20.7l21.6-92.7c55.8 13.5 90.9 18 123.3 18 56.7 0 89.1-23.4 91.8-66.6 0-23.4 1.8-45 7.2-61.2l-3.6-1.8c-28.8 46.8-77.4 72-139.5 72-90.9 0-150.3-55.8-150.3-144 0-87.3 59.4-145.8 148.5-145.8 63.9 0 112.5 29.7 143.1 89.1l3.6-1.8c-9.9-23.4-13.5-44.1-13.5-73.8h111.6v261.9c0 117.9-55.8 167.4-187.2 167.4zm-13.5-228.6c45 0 76.5-26.1 76.5-63.9s-31.5-64.8-77.4-64.8c-44.1 0-73.8 25.2-73.8 63.9 0 37.8 29.7 64.8 74.7 64.8zm521.18 228.6c-77.4 0-124.2-42.3-151.2-109.8l-3.6 1.8c6.3 27.9 9 48.6 9 94.5h-109.8V9675h109.8v199.8c0 87.3 39.6 129.6 102.6 129.6 51.3 0 80.1-31.5 80.1-93.6V9675h110.7v267.3c0 105.3-53.1 162-147.6 162zm345.5 208.8-101.7-71.1v-114.3c0-15.3 0-27.9 5.4-42.3l-2.7-1.8c-8.1 6.3-18.9 7.2-38.7 7.2h-36v-98.1h36c21.6 0 30.6.9 38.7 6.3l2.7-1.8c-5.4-13.5-5.4-27-5.4-50.4V9675h110.7v271.8c0 23.4 0 36.9-4.5 50.4l2.7 1.8c8.1-5.4 17.1-6.3 37.8-6.3h44.1v98.1h-44.1c-18.9 0-29.7-.9-37.8-7.2l-2.7 1.8c4.5 14.4 4.5 27 4.5 42.3v185.4zm307.71-644.4 84.6 179.1c17.1 36 23.4 49.5 27 72.9h3.6c3.6-23.4 9.9-36.9 27-72.9l84.6-179.1h29.7l183.6 422.1h-122.4l-59.4-158.4c-14.4-38.7-19.8-52.2-22.5-78.3h-3.6c-3.6 26.1-9.9 38.7-28.8 79.2l-76.5 164.7h-27.9l-75.6-164.7c-18.9-40.5-25.2-53.1-28.8-79.2h-3.6c-3.6 26.1-8.1 39.6-22.5 78.3l-60.3 158.4h-121.5l183.6-422.1zm647.63 435.6c-133.2 0-230.4-91.8-230.4-221.4 0-129.6 97.2-221.4 230.4-221.4s230.4 91.8 230.4 221.4c0 129.6-97.2 221.4-230.4 221.4zm0-104.4c68.4 0 117-45.9 117-117s-48.6-117-117-117-117 45.9-117 117 48.6 117 117 117zm479.51 104.4c-133.2 0-230.4-91.8-230.4-221.4 0-129.6 97.2-221.4 230.4-221.4s230.4 91.8 230.4 221.4c0 129.6-97.2 221.4-230.4 221.4zm0-104.4c68.4 0 117-45.9 117-117s-48.6-117-117-117-117 45.9-117 117 48.6 117 117 117zm511.47 103.5c-70.2 0-117.9-43.2-139.5-135.9l-3.6.9c7.2 43.2 11.7 85.5 11.7 122.4h-107.1V9675h109.8v176.4c0 93.6 42.3 135.9 117.9 135.9 9 0 16.2 0 34.2-1.8v117c-7.2.9-14.4.9-23.4.9zm223.55-441.9c72 0 126.9 36 153 100.8l3.6-.9c-4.5-23.4-6.3-50.4-6.3-86.4h107.1v643.5h-109.8v-210.6c0-41.4 2.7-80.1 9.9-103.5l-3.6-.9c-28.8 65.7-81.9 100.8-153.9 100.8-116.1 0-196.2-90.9-196.2-221.4 0-132.3 80.1-221.4 196.2-221.4zm32.4 100.8c-70.2 0-113.4 45.9-113.4 120.6 0 74.7 43.2 120.6 113.4 120.6 71.1 0 119.7-48.6 119.7-120.6s-48.6-120.6-119.7-120.6zm484.19 342c-127.8 0-215.1-86.4-215.1-222.3 0-135 90-220.5 226.8-220.5 68.4 0 124.2 22.5 173.7 67.5l-50.4 79.2c-35.1-32.4-75.6-49.5-123.3-49.5-65.7 0-107.1 33.3-117 95.4l-3.6 9.9 1.8 2.7c11.7-7.2 25.2-9 52.2-9h257.4v26.1c0 138.6-76.5 220.5-202.5 220.5zm-3.6-90c54.9 0 90.9-31.5 94.5-88.2l-1.8-1.8c-7.2 6.3-20.7 7.2-51.3 7.2h-98.1c-18.9 0-36.9-2.7-45-8.1l-1.8 1.8c7.2 55.8 46.8 89.1 103.5 89.1M8376.48 5227.44c-508.65 390.33-1182.5 398.36-1429.22 341.3l-28.64-6.45c-285-65.39-737.76-173.63-1267.64-812.6-2.95-3.55-6-7.2-8.79-10.89l-6.72-7.86c-5.17-7.13-8.83-15.5-8.83-24.86 0-7.74 1.98-14.81 5.74-21.39l12.32-19.7c66.51-108.11 150.38-247.26 221.25-375.47.71-1.37 1.41-2.37 1.95-3.95a45.71 45.71 0 0 1 40.42-24.17c12.29 0 23.34 4.76 31.29 12.36 3.36 4.21 6.71 8.63 9.67 13.1 470.32 632.05 840.19 719.33 1090.37 776.49l29.92 6.86c129.86 30.31 623.55 28.47 979.99-244.94 278.15-213.39 419.32-552.93 419.32-1009.08 0-765.23-383-1064.57-704.49-1180.92-497.86-180.85-975.36 60.92-978.85 62.76l-21.38 10.1c-273.55 115.4-681.7 355.46-1066.37 1106.22-775.33 1513.12-1423.9 1655.59-1852.99 1750.05l-22.96 4.97c-195.39 43.04-874 73.47-1407.41-340.25-278.7-216.01-610.68-636.05-610.68-1409.88 0-471.51 99.67-782.82 355.89-1110.34 56.18-74.63 630.37-791.43 1740.49-584.73 177.66 33.09 418.35 115.53 683.11 308.32l244.3-214.17c15.95-14.08 41.4-12.92 56.07 2.7 6.98 7.27 9.93 16.58 9.77 25.73v3.21l176.26 1053.55.14 11.68c-.14 10.26-4.47 20.73-13.13 28.07-7.42 6.84-16.63 9.49-25.85 9.49l-7.56-.68-11.45-1.15-1038.54-282.52-18.89-2.97c-7.53-1.58-14.52-5.36-19.85-11.28-15.08-16.03-13.69-40.49 2.95-54.72l12.15-10.94 232.73-204.21c-150.27-94.53-281.24-137.94-381.18-156.74-803.16-148.86-1199.69 362.32-1214.8 382.34l-5.57 7.47c-186.6 238.08-249.65 440.39-249.65 801.89 0 457.52 138.65 797.19 412.2 1009.5 347.35 269.33 826.37 270.88 961.66 240.95l23.34-5.11c351.67-77.36 833.51-183.21 1497.15-1478.63 344.69-672.51 776.46-1112.22 1319.77-1344.14 69.19-34.31 399.08-186.29 827.2-186.29 179.07 0 375.17 26.56 576.31 99.22 314.92 114.24 1047.48 504.44 1047.48 1661.45 0 773.36-336.98 1194.26-619.77 1411.25" transform="matrix(.13333 0 0 -.13333 0 1440)"/></svg>