<svg xmlns="http://www.w3.org/2000/svg" height="1440" width="1440" xml:space="preserve"><path style="fill:#fff;fill-opacity:1;fill-rule:nonzero;stroke:none" d="m1118.31 10322.8-85.43-265.3-566.521-400.16V9117.8l400.164 206.82c80.934 40.47 121.399 71.94 157.367 125.9l13.49-9c-31.47-112.4-35.97-179.84-35.97-350.7V7287.83h539.55v3034.97zm1293.96 0-85.43-265.3-566.52-400.16V9117.8l400.16 206.82c80.93 40.47 121.4 71.94 157.37 125.9l13.49-9c-31.47-112.4-35.97-179.84-35.97-350.7V7287.83h539.55v3034.97h-422.65M3611.4 8304.3c-115.2 0-196.2-89.1-196.2-221.4 0-130.5 80.1-216.9 195.3-216.9 69.3 0 121.5 32.4 153.9 96.3l3.6-.9c-5.4-21.6-7.2-36.9-7.2-61.2v-12.6c0-64.8-51.3-102.6-128.7-102.6-53.1 0-96.3 13.5-143.1 41.4l-49.5-94.5c53.1-32.4 115.2-50.4 197.1-50.4 145.8 0 232.2 65.7 232.2 220.5v388.8h-110.7c0-43.2 2.7-64.8 9.9-86.4l-3.6-.9c-27.9 62.1-78.3 100.8-153 100.8zm29.7-101.7c68.4 0 117.9-48.6 117.9-119.7s-49.5-119.7-117.9-119.7c-66.6 0-110.7 45.9-110.7 119.7 0 73.8 44.1 119.7 110.7 119.7zm485.64 101.7c-127.8 0-215.1-86.4-215.1-222.3 0-135 90-220.5 226.8-220.5 68.4 0 124.2 22.5 173.7 67.5l-50.4 79.2c-35.1-32.4-75.6-49.5-123.3-49.5-65.7 0-107.1 33.3-117 95.4l-3.6 9.9 1.8 2.7c11.7-7.2 25.2-9 52.2-9h257.4v26.1c0 138.6-76.5 220.5-202.5 220.5zm-3.6-90c54.9 0 90.9-31.5 94.5-88.2l-1.8-1.8c-7.2 6.3-20.7 7.2-51.3 7.2h-98.1c-18.9 0-36.9-2.7-45-8.1l-1.8 1.8c7.2 55.8 46.8 89.1 103.5 89.1zm359.18-339.3v205.2c0 87.3 33.3 123.3 86.4 123.3 49.5 0 76.5-27 76.5-95.4V7875h107.1v205.2c0 87.3 32.4 123.3 86.4 123.3 49.5 0 75.6-27 75.6-96.3V7875h110.7v268.2c0 107.1-53.1 161.1-139.5 161.1-73.8 0-120.6-41.4-140.4-100.8h-3.6c-16.2 64.8-55.8 100.8-126.9 100.8-71.1 0-112.5-32.4-139.5-102.6l-3.6 1.8c7.2 28.8 9.9 55.8 9.9 87.3h-108.9V7875zm799.29 429.3c-127.8 0-215.1-86.4-215.1-222.3 0-135 90-220.5 226.8-220.5 68.4 0 124.2 22.5 173.7 67.5l-50.4 79.2c-35.1-32.4-75.6-49.5-123.3-49.5-65.7 0-107.1 33.3-117 95.4l-3.6 9.9 1.8 2.7c11.7-7.2 25.2-9 52.2-9h257.4v26.1c0 138.6-76.5 220.5-202.5 220.5zm-3.6-90c54.9 0 90.9-31.5 94.5-88.2l-1.8-1.8c-7.2 6.3-20.7 7.2-51.3 7.2h-98.1c-18.9 0-36.9-2.7-45-8.1l-1.8 1.8c7.2 55.8 46.8 89.1 103.5 89.1zm439.1 90c-127.8 0-215.1-86.4-215.1-222.3 0-135 90-220.5 226.8-220.5 68.4 0 124.2 22.5 173.7 67.5l-50.4 79.2c-35.1-32.4-75.6-49.5-123.3-49.5-65.7 0-107.1 33.3-117 95.4l-3.6 9.9 1.8 2.7c11.7-7.2 25.2-9 52.2-9h257.4v26.1c0 138.6-76.5 220.5-202.5 220.5zm-3.6-90c54.9 0 90.9-31.5 94.5-88.2l-1.8-1.8c-7.2 6.3-20.7 7.2-51.3 7.2h-98.1c-18.9 0-36.9-2.7-45-8.1l-1.8 1.8c7.2 55.8 46.8 89.1 103.5 89.1zm504.98 90c-77.4 0-124.2-42.3-151.2-109.8l-3.6 1.8c6.3 27.9 9 48.6 9 94.5h-109.8V7875h109.8v199.8c0 87.3 39.6 129.6 102.6 129.6 51.3 0 80.1-31.5 80.1-93.6V7875h110.7v267.3c0 105.3-53.1 162-147.6 162zm349.73-442.8c108 0 170.1 48.6 170.1 133.2 0 56.7-27 91.8-90 119.7l-72.9 32.4c-31.5 14.4-41.4 23.4-41.4 39.6 0 18 13.5 26.1 43.2 26.1 33.3 0 73.8-9.9 115.2-27.9l36.9 90c-50.4 18.9-100.8 29.7-147.6 29.7-100.8 0-159.3-45.9-159.3-124.2 0-55.8 29.7-97.2 92.7-124.2l75.6-34.2c27-12.6 36-21.6 36-36 0-20.7-16.2-30.6-53.1-30.6-45 0-90.9 13.5-137.7 42.3l-44.1-91.8c50.4-27.9 113.4-44.1 176.4-44.1zm412.02 0c54 0 100.8 13.5 145.8 41.4l-47.7 90.9c-29.7-19.8-62.1-28.8-96.3-28.8-69.3 0-117.9 48.6-117.9 117.9 0 69.3 48.6 117.9 117.9 117.9 34.2 0 66.6-9 96.3-28.8l47.7 90.9c-45 27.9-91.8 41.4-145.8 41.4-135.9 0-229.5-90-229.5-221.4s93.6-221.4 229.5-221.4zm177.56 657V7875h109.8v199.8c0 87.3 40.5 129.6 102.6 129.6 51.3 0 80.1-28.8 80.1-93.6V7875H7561v267.3c0 104.4-55.8 162-148.5 162-74.7 0-121.5-38.7-150.3-104.4l-3.6.9c6.3 34.2 9 61.2 9 108.9v208.8zm644.84-214.2c-47.7 0-103.5-7.2-156.6-20.7l21.6-92.7c55.8 13.5 90.9 18 123.3 18 56.7 0 89.1-23.4 91.8-66.6 0-23.4 1.8-45 7.2-61.2l-3.6-1.8c-28.8 46.8-77.4 72-139.5 72-90.9 0-150.3-55.8-150.3-144 0-87.3 59.4-145.8 148.5-145.8 63.9 0 112.5 29.7 143.1 89.1l3.6-1.8c-9.9-23.4-13.5-44.1-13.5-73.8h111.6v261.9c0 117.9-55.8 167.4-187.2 167.4zm-13.5-228.6c45 0 76.5-26.1 76.5-63.9s-31.5-64.8-77.4-64.8c-44.1 0-73.8 25.2-73.8 63.9 0 37.8 29.7 64.8 74.7 64.8zm522.08 228.6c-73.8 0-123.3-38.7-153-100.8l-3.6.9c5.4 21.6 8.1 51.3 8.1 86.4h-108V7695h108.9v181.8c0 31.5-2.7 58.5-8.1 84.6l3.6.9c27.9-66.6 83.7-100.8 153-100.8 116.1 0 196.2 89.1 196.2 221.4s-81.9 221.4-197.1 221.4zm-31.5-100.8c69.3 0 113.4-45.9 113.4-120.6 0-74.7-43.2-120.6-113.4-120.6-71.1 0-119.7 48.6-119.7 120.6s48.6 120.6 119.7 120.6zm530.63 100.8c-73.8 0-123.3-38.7-153-100.8l-3.6.9c5.4 21.6 8.1 51.3 8.1 86.4h-108V7695h108.9v181.8c0 31.5-2.7 58.5-8.1 84.6l3.6.9c27.9-66.6 83.7-100.8 153-100.8 116.1 0 196.2 89.1 196.2 221.4s-81.9 221.4-197.1 221.4zm-31.5-100.8c69.3 0 113.4-45.9 113.4-120.6 0-74.7-43.2-120.6-113.4-120.6-71.1 0-119.7 48.6-119.7 120.6s48.6 120.6 119.7 120.6zm464.57 100.8c-127.8 0-215.1-86.4-215.1-222.3 0-135 90-220.5 226.8-220.5 68.4 0 124.2 22.5 173.7 67.5l-50.4 79.2c-35.1-32.4-75.6-49.5-123.3-49.5-65.7 0-107.1 33.3-117 95.4l-3.6 9.9 1.8 2.7c11.7-7.2 25.2-9 52.2-9h257.4v26.1c0 138.6-76.5 220.5-202.5 220.5zm-3.6-90c54.9 0 90.9-31.5 94.5-88.2l-1.8-1.8c-7.2 6.3-20.7 7.2-51.3 7.2h-98.1c-18.9 0-36.9-2.7-45-8.1l-1.8 1.8c7.2 55.8 46.8 89.1 103.5 89.1zm504.98 90c-77.4 0-124.2-42.3-151.2-109.8l-3.6 1.8c6.3 27.9 9 48.6 9 94.5h-109.8V7875H9599v199.8c0 87.3 39.6 129.6 102.6 129.6 51.3 0 80.1-31.5 80.1-93.6V7875h110.7v267.3c0 105.3-53.1 162-147.6 162M3579 8761.5c108 0 170.1 48.6 170.1 133.2 0 56.7-27 91.8-90 119.7l-72.9 32.4c-31.5 14.4-41.4 23.4-41.4 39.6 0 18 13.5 26.1 43.2 26.1 33.3 0 73.8-9.9 115.2-27.9l36.9 90c-50.4 18.9-100.8 29.7-147.6 29.7-100.8 0-159.3-45.9-159.3-124.2 0-55.8 29.7-97.2 92.7-124.2l75.6-34.2c27-12.6 36-21.6 36-36 0-20.7-16.2-30.6-53.1-30.6-45 0-90.9 13.5-137.7 42.3l-44.1-91.8c50.4-27.9 113.4-44.1 176.4-44.1zm350.64 651.6-101.7-71.1v-114.3c0-15.3 0-27.9 5.4-42.3l-2.7-1.8c-8.1 6.3-18.9 7.2-38.7 7.2h-36v-98.1h36c21.6 0 30.6.9 38.7 6.3l2.7-1.8c-5.4-13.5-5.4-27-5.4-50.4V8775h110.7v271.8c0 23.4 0 36.9-4.5 50.4l2.7 1.8c8.1-5.4 17.1-6.3 37.8-6.3h44.1v98.1h-44.1c-18.9 0-29.7-.9-37.8-7.2l-2.7 1.8c4.5 14.4 4.5 27 4.5 42.3v185.4zm309.05-208.8c-127.8 0-215.1-86.4-215.1-222.3 0-135 90-220.5 226.8-220.5 68.4 0 124.2 22.5 173.7 67.5l-50.4 79.2c-35.1-32.4-75.6-49.5-123.3-49.5-65.7 0-107.1 33.3-117 95.4l-3.6 9.9 1.8 2.7c11.7-7.2 25.2-9 52.2-9h257.4v26.1c0 138.6-76.5 220.5-202.5 220.5zm-3.6-90c54.9 0 90.9-31.5 94.5-88.2l-1.8-1.8c-7.2 6.3-20.7 7.2-51.3 7.2h-98.1c-18.9 0-36.9-2.7-45-8.1l-1.8 1.8c7.2 55.8 46.8 89.1 103.5 89.1zm422.36-352.8c72 0 126.9 36 153 100.8l3.6-.9c-4.5-23.4-6.3-50.4-6.3-86.4h107.1v643.5h-109.8v-210.6c0-41.4 2.7-80.1 9.9-103.5l-3.6-.9c-28.8 65.7-81.9 100.8-153.9 100.8-116.1 0-196.2-90.9-196.2-221.4 0-132.3 80.1-221.4 196.2-221.4zm32.4 100.8c-70.2 0-113.4 45.9-113.4 120.6 0 74.7 43.2 120.6 113.4 120.6 71.1 0 119.7-48.6 119.7-120.6s-48.6-120.6-119.7-120.6zm484.19 342c-127.8 0-215.1-86.4-215.1-222.3 0-135 90-220.5 226.8-220.5 68.4 0 124.2 22.5 173.7 67.5l-50.4 79.2c-35.1-32.4-75.6-49.5-123.3-49.5-65.7 0-107.1 33.3-117 95.4l-3.6 9.9 1.8 2.7c11.7-7.2 25.2-9 52.2-9h257.4v26.1c0 138.6-76.5 220.5-202.5 220.5zm-3.6-90c54.9 0 90.9-31.5 94.5-88.2l-1.8-1.8c-7.2 6.3-20.7 7.2-51.3 7.2h-98.1c-18.9 0-36.9-2.7-45-8.1l-1.8 1.8c7.2 55.8 46.8 89.1 103.5 89.1zm504.98 90c-77.4 0-124.2-42.3-151.2-109.8l-3.59 1.8c6.3 27.9 9 48.6 9 94.5h-109.81V8775h109.81v199.8c0 87.3 39.59 129.6 102.59 129.6 51.3 0 80.1-31.5 80.1-93.6V8775h110.7v267.3c0 105.3-53.1 162-147.6 162zm655.19 0c-127.8 0-215.1-86.4-215.1-222.3 0-135 90-220.5 226.8-220.5 68.4 0 124.2 22.5 173.7 67.5l-50.4 79.2c-35.1-32.4-75.6-49.5-123.3-49.5-65.7 0-107.1 33.3-117 95.4l-3.6 9.9 1.8 2.7c11.7-7.2 25.2-9 52.2-9h257.4v26.1c0 138.6-76.5 220.5-202.5 220.5zm-3.6-90c54.9 0 90.9-31.5 94.5-88.2l-1.8-1.8c-7.2 6.3-20.7 7.2-51.3 7.2h-98.1c-18.9 0-36.9-2.7-45-8.1l-1.8 1.8c7.2 55.8 46.8 89.1 103.5 89.1zm504.98 90c-77.4 0-124.2-42.3-151.2-109.8l-3.6 1.8c6.3 27.9 9 48.6 9 94.5h-109.8V8775h109.8v199.8c0 87.3 39.6 129.6 102.6 129.6 51.3 0 80.1-31.5 80.1-93.6V8775h110.7v267.3c0 105.3-53.1 162-147.6 162M3611.4 9661.5c72 0 126.9 36 153 100.8l3.6-.9c-4.5-23.4-6.3-50.4-6.3-86.4h107.1v643.5H3759v-210.6c0-41.4 2.7-80.1 9.9-103.5l-3.6-.9c-28.8 65.7-81.9 100.8-153.9 100.8-116.1 0-196.2-90.9-196.2-221.4 0-132.3 80.1-221.4 196.2-221.4zm32.4 100.8c-70.2 0-113.4 45.9-113.4 120.6 0 74.7 43.2 120.6 113.4 120.6 71.1 0 119.7-48.6 119.7-120.6s-48.6-120.6-119.7-120.6zm571.31 328.5v-202.5c0-83.7-36-124.2-89.1-124.2-50.4 0-80.1 30.6-80.1 95.4v231.3h-113.4v-259.2c0-110.7 59.4-170.1 147.6-170.1 72.9 0 117 36.9 144.9 108.9l4.5-.9c-8.1-28.8-12.6-60.3-12.6-94.5h108.9v415.8zm455.84 0v-202.5c0-83.7-36-124.2-89.1-124.2-50.4 0-80.1 30.6-80.1 95.4v231.3h-113.4v-259.2c0-110.7 59.4-170.1 147.6-170.1 72.9 0 117 36.9 144.9 108.9l4.5-.9c-8.1-28.8-12.6-60.3-12.6-94.5h108.9v415.8zm415.79 12.6c-70.2 0-117.9-43.2-139.5-135.9l-3.6.9c7.2 43.2 11.7 85.5 11.7 122.4h-107.1V9675h109.8v176.4c0 93.6 42.3 135.9 117.9 135.9 9 0 16.2 0 34.2-1.8v117c-7.2.9-14.4.9-23.4.9zm369.27-428.4 59.4 97.2h-148.5c-50.4 0-70.2-2.7-91.8-16.2l-1.8 2.7 244.8 328.5-1.8 3.6h-333.9l-57.6-97.2h135c42.3 0 57.6 3.6 81 17.1l2.7-2.7-250.2-328.5 1.8-4.5zm272.78 429.3c-47.7 0-103.5-7.2-156.6-20.7l21.6-92.7c55.8 13.5 90.9 18 123.3 18 56.7 0 89.1-23.4 91.8-66.6 0-23.4 1.8-45 7.2-61.2l-3.6-1.8c-28.8 46.8-77.4 72-139.5 72-90.9 0-150.3-55.8-150.3-144 0-87.3 59.4-145.8 148.5-145.8 63.9 0 112.5 29.7 143.1 89.1l3.6-1.8c-9.9-23.4-13.5-44.1-13.5-73.8h111.6v261.9c0 117.9-55.8 167.4-187.2 167.4zm-13.5-228.6c45 0 76.5-26.1 76.5-63.9s-31.5-64.8-77.4-64.8c-44.1 0-73.8 25.2-73.8 63.9 0 37.8 29.7 64.8 74.7 64.8zm375.39-200.7v205.2c0 87.3 33.3 123.3 86.4 123.3 49.5 0 76.5-27 76.5-95.4V9675h107.1v205.2c0 87.3 32.4 123.3 86.4 123.3 49.5 0 75.6-27 75.6-96.3V9675h110.7v268.2c0 107.1-53.1 161.1-139.5 161.1-73.8 0-120.6-41.4-140.4-100.8h-3.6c-16.2 64.8-55.8 100.8-126.9 100.8-71.1 0-112.5-32.4-139.5-102.6l-3.6 1.8c7.2 28.8 9.9 55.8 9.9 87.3h-108.9V9675zm799.29 429.3c-127.81 0-215.1-86.4-215.1-222.3 0-135 90-220.5 226.8-220.5 68.4 0 124.19 22.5 173.69 67.5l-50.39 79.2c-35.1-32.4-75.6-49.5-123.3-49.5-65.71 0-107.11 33.3-117.01 95.4l-3.59 9.9 1.79 2.7c11.7-7.2 25.21-9 52.21-9h257.4v26.1c0 138.6-76.51 220.5-202.5 220.5zm-3.6-90c54.9 0 90.9-31.5 94.49-88.2l-1.8-1.8c-7.19 6.3-20.7 7.2-51.3 7.2h-98.1c-18.89 0-36.9-2.7-45-8.1l-1.8 1.8c7.21 55.8 46.8 89.1 103.51 89.1M1492.45 2542.24h1754.34c23.73 0 43.05 18.85 43.05 41.97 0 10.73-4.46 20.36-11.33 27.77l-2.42 2.47-872.81 1097.36-8.5 9.09c-7.92 8.39-19.17 13.62-31.79 13.62-10.81 0-20.49-4.41-28.22-10.74l-5.24-5.89-8.22-8.96-851.51-1085.8-13.08-15.55c-4.68-6.59-7.37-14.69-7.37-23.37 0-23.12 19.32-41.97 43.1-41.97M3241.47 2387.53h-1757.8c-23.77 0-43.02-18.72-43.02-41.84V1009c0-23.121 19.25-41.961 43.02-41.961h565.81v840.981c0 23.24 19.17 41.81 43.03 41.81h525.17c23.76 0 43.02-18.57 43.02-41.81V967.039h580.77c23.73 0 43.06 18.84 43.06 41.961v1336.69c0 23.12-19.33 41.84-43.06 41.84M9159.22 2190.25c0-22.26-18.97-40.28-42.6-40.28h-519.66c-23.63 0-42.6 18.02-42.6 40.28v307.15c0 22.17 18.97 40.19 42.6 40.19h519.66c23.63 0 42.6-18.02 42.6-40.19v-307.15zm0-567.22c0-22.42-18.97-40.44-42.6-40.44h-519.66c-23.63 0-42.6 18.02-42.6 40.44v306.86c0 22.42 18.97 40.32 42.6 40.32h519.66c23.63 0 42.6-17.9 42.6-40.32v-306.86zm-794.39 567.22c0-22.26-18.97-40.28-42.47-40.28h-519.79c-23.63 0-42.77 18.02-42.77 40.28v307.15c0 22.17 19.14 40.19 42.77 40.19h519.79c23.5 0 42.47-18.02 42.47-40.19v-307.15zm0-567.22c0-22.42-18.97-40.44-42.47-40.44h-519.79c-23.63 0-42.77 18.02-42.77 40.44v306.86c0 22.42 19.14 40.32 42.77 40.32h519.79c23.5 0 42.47-17.9 42.47-40.32v-306.86zm951.94 1114.4H7576.93c-23.5 0-42.47-17.74-42.47-40.16V990.16c0-22.14 18.97-40.16 42.47-40.16h1739.84c23.64 0 42.61 18.02 42.61 40.16v1707.11c0 22.42-18.97 40.16-42.61 40.16M5024.15 5486.76c0-11.84-10.04-21.6-22.49-21.6h-389.72c-12.45 0-22.36 9.76-22.36 21.6v422.26c0 12.11 9.91 21.73 22.36 21.73h389.72c12.45 0 22.49-9.62 22.49-21.73v-422.26zm0-969.31c0-11.98-10.04-21.73-22.49-21.73h-389.72c-12.45 0-22.36 9.75-22.36 21.73v422.26c0 11.97 9.91 21.48 22.36 21.48h389.72c12.45 0 22.49-9.51 22.49-21.48v-422.26zm0-969.57c0-11.97-10.04-21.76-22.49-21.76h-389.72c-12.45 0-22.36 9.79-22.36 21.76v422.26c0 11.98 9.91 21.73 22.36 21.73h389.72c12.45 0 22.49-9.75 22.49-21.73v-422.26zm0-969.31c0-12.26-10.04-21.73-22.49-21.73h-389.72c-12.45 0-22.36 9.47-22.36 21.73v421.98c0 12.26 9.91 21.76 22.36 21.76h389.72c12.45 0 22.49-9.5 22.49-21.76v-421.98zm0-969.57c0-11.97-10.04-21.76-22.49-21.76h-389.72c-12.45 0-22.36 9.79-22.36 21.76v422.11c0 11.97 9.91 21.6 22.36 21.6h389.72c12.45 0 22.49-9.63 22.49-21.6V1609zm-764.54 3877.76c0-11.84-10.03-21.6-22.35-21.6h-389.85c-12.32 0-22.36 9.76-22.36 21.6v422.26c0 12.11 10.04 21.73 22.36 21.73h389.85c12.32 0 22.35-9.62 22.35-21.73v-422.26zm0-969.31c0-11.98-10.03-21.73-22.35-21.73h-389.85c-12.32 0-22.36 9.75-22.36 21.73v422.26c0 11.97 10.04 21.48 22.36 21.48h389.85c12.32 0 22.35-9.51 22.35-21.48v-422.26zm0-969.57c0-11.97-10.03-21.76-22.35-21.76h-389.85c-12.32 0-22.36 9.79-22.36 21.76v422.26c0 11.98 10.04 21.73 22.36 21.73h389.85c12.32 0 22.35-9.75 22.35-21.73v-422.26zm0-969.31c0-12.26-10.03-21.73-22.35-21.73h-389.85c-12.32 0-22.36 9.47-22.36 21.73v421.98c0 12.26 10.04 21.76 22.36 21.76h389.85c12.32 0 22.35-9.5 22.35-21.76v-421.98zm0-969.57c0-11.97-10.03-21.76-22.35-21.76h-389.85c-12.32 0-22.36 9.79-22.36 21.76v422.11c0 11.97 10.04 21.6 22.36 21.6h389.85c12.32 0 22.35-9.63 22.35-21.6V1609zm1012.84 5091H3569.81c-22.78 0-41.62-18.02-41.62-40.6V1005.3c0-22.3 18.84-40.448 41.62-40.448h1702.64c22.77 0 41.88 18.148 41.88 40.448v5654.1c0 22.58-19.11 40.6-41.88 40.6M9357.38 2909.24c0-19-15.57-34.11-34.93-34.11H7571.26c-19.23 0-34.95 15.11-34.95 34.11v340.27c0 18.72 15.72 33.98 34.95 33.98h1751.19c19.36 0 34.93-15.26 34.93-33.98v-340.27M7135.42 3904.65c0-22.39-18.84-40.41-41.62-40.41h-507.31c-23.23 0-41.91 18.02-41.91 40.41v308.67c0 22.57 18.68 40.59 41.91 40.59h507.31c22.78 0 41.62-18.02 41.62-40.59v-308.67zm0-570.39c0-22.29-18.84-40.31-41.62-40.31h-507.31c-23.23 0-41.91 18.02-41.91 40.31v308.66c0 22.43 18.68 40.41 41.91 40.41h507.31c22.78 0 41.62-17.98 41.62-40.41v-308.66zm0-570.42c0-22.14-18.84-40.31-41.62-40.31h-507.31c-23.23 0-41.91 18.17-41.91 40.31v308.79c0 22.42 18.68 40.44 41.91 40.44h507.31c22.78 0 41.62-18.02 41.62-40.44v-308.79zm0-570.26c0-22.43-18.84-40.45-41.62-40.45h-507.31c-23.23 0-41.91 18.02-41.91 40.45v308.66c0 22.55 18.68 40.41 41.91 40.41h507.31c22.78 0 41.62-17.86 41.62-40.41v-308.66zm0-570.3c0-22.42-18.84-40.44-41.62-40.44h-507.31c-23.23 0-41.91 18.02-41.91 40.44v308.67c0 22.29 18.68 40.32 41.91 40.32h507.31c22.78 0 41.62-18.03 41.62-40.32v-308.67zM6361.11 4013.6v-679.91c0-22.42-18.81-40.41-41.59-40.41h-507.34c-23.2 0-41.91 17.99-41.91 40.41v85.58c.22 5.35 1.26 10.45 3.19 15.13.85 1.65 1.01 2.32 2.54 4.66 1.01 1.93 2.41 3.71 3.68 5.38 1.28 1.91 3.2 4.41 4.76 6.59 64.83 90.23 357.55 440.57 480.49 587.05l12.32 14.44c8.93 10.45 22.35 17.2 37.45 17.2 23.27 0 41.88-16.5 46.41-37.82zm-1.4-1249.76c0-22.14-18.54-40.31-41.62-40.31h-507.47c-23.08 0-41.63 18.17-41.63 40.31v308.79c0 22.42 18.55 40.44 41.63 40.44h507.47c23.08 0 41.62-18.02 41.62-40.44v-308.79zm0-570.26c0-22.43-18.54-40.45-41.62-40.45h-507.47c-23.08 0-41.63 18.02-41.63 40.45v308.66c0 22.55 18.55 40.41 41.63 40.41h507.47c23.08 0 41.62-17.86 41.62-40.41v-308.66zm0-570.3c0-22.42-18.54-40.44-41.62-40.44h-507.47c-23.08 0-41.63 18.02-41.63 40.44v308.67c0 22.29 18.55 40.32 41.63 40.32h507.47c23.08 0 41.62-18.03 41.62-40.32v-308.67zm264.78 2888.78 11.97 14.61c114.5 142.77 307.45 373.58 401.51 485.66l12.32 14.32c8.9 10.45 22.36 17.2 37.44 17.2 23.29 0 41.89-16.38 46.43-37.82v-521.87c0-25.18-20.61-45.38-46.23-46.49-.78 0-1.4-.41-2.11-.41-.72 0-1.34.41-2.12.41h-418.17c-.78 0-1.4-.41-2.12-.41-.72 0-1.34.41-2.12.41-25.61 1.11-46.21 21.31-46.21 46.49 0 10.45 3.45 20.08 9.41 27.9zm704.5 1120.23c-5.64 18.14-22.23 31.6-42.76 31.6-9.19 0-17.17-3.29-24.31-7.82-1.08-.7-2.15-1.23-3.2-2.06l-14.37-17.6-1673.39-2062.69-7.69-10.04c-8.64-8.26-14.18-19.54-14.53-32.17V996.75c0-22.27 18.7-40.289 41.78-40.289h1700.89c23.08 0 41.63 18.019 41.63 40.289v4618.59c0 6.05-1.63 11.85-4.05 16.95" transform="matrix(.13333 0 0 -.13333 0 1440)"/></svg>