<svg xmlns="http://www.w3.org/2000/svg" height="1440" width="1440" xml:space="preserve"><path style="fill:#fff;fill-opacity:1;fill-rule:nonzero;stroke:none" d="m1118.31 10322.8-85.43-265.3-566.521-400.16V9117.8l400.164 206.82c80.934 40.47 121.399 71.94 157.367 125.9l13.49-9c-31.47-112.4-35.97-179.84-35.97-350.7V7287.83h539.55v3034.97zm1996.27 0L1648.81 8272.51v-436.14h1357.86c58.45 0 80.93 9 98.92 17.99l8.99-8.99c-8.99-17.99-13.49-62.95-13.49-116.91v-440.63h526.06v440.63c0 53.96-4.5 98.92-17.98 116.91l8.99 8.99c22.48-8.99 40.46-17.99 103.41-17.99h233.8l161.87 508.08h-395.67c-62.95 0-80.93-4.5-103.41-13.49l-8.99 8.99c13.48 22.48 17.98 62.95 17.98 116.9v1865.95zm13.49-674.45c-17.99-80.93-26.98-175.35-26.98-323.73v-867.77c0-53.95 0-94.42 13.49-116.9l-8.99-8.99c-22.48 8.99-40.47 13.49-98.92 13.49h-521.56c-134.89 0-224.81-9-283.26-35.97l-8.99 8.99c58.45 49.46 107.91 107.91 188.84 220.31l508.07 710.41c152.87 220.31 197.83 328.22 224.81 404.66l13.49-4.5M4463.1 9418.5V8775h109.8v199.8c0 87.3 40.5 129.6 102.6 129.6 51.3 0 80.1-28.8 80.1-93.6V8775h110.7v267.3c0 104.4-55.8 162-148.5 162-74.7 0-121.5-38.7-150.3-104.4l-3.6.9c6.3 34.2 9 61.2 9 108.9v208.8zm658.79-214.2c-127.8 0-215.1-86.4-215.1-222.3 0-135 90-220.5 226.8-220.5 68.4 0 124.2 22.5 173.7 67.5l-50.4 79.2c-35.1-32.4-75.6-49.5-123.3-49.5-65.7 0-107.1 33.3-117 95.4l-3.6 9.9 1.8 2.7c11.7-7.2 25.2-9 52.2-9h257.4v26.1c0 138.6-76.5 220.5-202.5 220.5zm-3.6-90c54.9 0 90.9-31.5 94.5-88.2l-1.8-1.8c-7.2 6.3-20.7 7.2-51.3 7.2h-98.1c-18.9 0-36.9-2.7-45-8.1l-1.8 1.8c7.2 55.8 46.8 89.1 103.5 89.1zm386.18 298.8-101.7-71.1v-114.3c0-15.3 0-27.9 5.4-42.3l-2.7-1.8c-8.1 6.3-18.9 7.2-38.7 7.2h-36v-98.1h36c21.6 0 30.6.9 38.7 6.3l2.7-1.8c-5.4-13.5-5.4-27-5.4-50.4V8775h110.7v271.8c0 23.4 0 36.9-4.5 50.4l2.7 1.8c8.1-5.4 17.1-6.3 37.8-6.3h44.1v98.1h-44.1c-18.9 0-29.7-.9-37.8-7.2l-2.7 1.8c4.5 14.4 4.5 27 4.5 42.3v185.4zm542.69-644.4 84.6 179.1c17.1 36 23.4 49.5 27 72.9h3.6c3.6-23.4 9.9-36.9 27-72.9l84.6-179.1h29.7l183.6 422.1h-122.4l-59.4-158.4c-14.4-38.7-19.8-52.2-22.5-78.3h-3.6c-3.6 26.1-9.9 38.7-28.8 79.2l-76.5 164.7h-27.9l-75.6-164.7c-18.9-40.5-25.2-53.1-28.8-79.2h-3.6c-3.6 26.1-8.1 39.6-22.5 78.3l-60.3 158.4h-121.5l183.6-422.1zm628.19 435.6c-47.7 0-103.5-7.2-156.6-20.7l21.6-92.7c55.8 13.5 90.9 18 123.3 18 56.7 0 89.1-23.4 91.8-66.6 0-23.4 1.8-45 7.2-61.2l-3.6-1.8c-28.8 46.8-77.4 72-139.5 72-90.9 0-150.3-55.8-150.3-144 0-87.3 59.4-145.8 148.5-145.8 63.9 0 112.5 29.7 143.1 89.1l3.6-1.8c-9.9-23.4-13.5-44.1-13.5-73.8h111.6v261.9c0 117.9-55.8 167.4-187.2 167.4zm-13.5-228.6c45 0 76.5-26.1 76.5-63.9s-31.5-64.8-77.4-64.8c-44.1 0-73.8 25.2-73.8 63.9 0 37.8 29.7 64.8 74.7 64.8zM7060 9413.1l-101.7-71.1v-114.3c0-15.3 0-27.9 5.4-42.3l-2.7-1.8c-8.1 6.3-18.9 7.2-38.7 7.2h-36v-98.1h36c21.6 0 30.6.9 38.7 6.3l2.7-1.8c-5.4-13.5-5.4-27-5.4-50.4V8775H7069v271.8c0 23.4 0 36.9-4.5 50.4l2.7 1.8c8.1-5.4 17.1-6.3 37.8-6.3h44.1v98.1H7105c-18.9 0-29.7-.9-37.8-7.2l-2.7 1.8c4.5 14.4 4.5 27 4.5 42.3v185.4zm309.06-208.8c-127.8 0-215.1-86.4-215.1-222.3 0-135 90-220.5 226.8-220.5 68.4 0 124.2 22.5 173.7 67.5l-50.4 79.2c-35.1-32.4-75.6-49.5-123.3-49.5-65.7 0-107.1 33.3-117 95.4l-3.6 9.9 1.8 2.7c11.7-7.2 25.2-9 52.2-9h257.4v26.1c0 138.6-76.5 220.5-202.5 220.5zm-3.6-90c54.9 0 90.9-31.5 94.5-88.2l-1.8-1.8c-7.2 6.3-20.7 7.2-51.3 7.2h-98.1c-18.9 0-36.9-2.7-45-8.1l-1.8 1.8c7.2 55.8 46.8 89.1 103.5 89.1zm487.88 89.1c-70.2 0-117.9-43.2-139.5-135.9l-3.6.9c7.2 43.2 11.7 85.5 11.7 122.4h-107.1V8775h109.8v176.4c0 93.6 42.3 135.9 117.9 135.9 9 0 16.2 0 34.2-1.8v117c-7.2.9-14.4.9-23.4.9M4463.1 10318.5V9675h109.8v643.5zm368.9-214.2c-127.8 0-215.1-86.4-215.1-222.3 0-135 90-220.5 226.8-220.5 68.4 0 124.2 22.5 173.7 67.5l-50.4 79.2c-35.1-32.4-75.6-49.5-123.3-49.5-65.7 0-107.1 33.3-117 95.4l-3.6 9.9 1.8 2.7c11.7-7.2 25.2-9 52.2-9h257.4v26.1c0 138.6-76.5 220.5-202.5 220.5zm-3.6-90c54.9 0 90.9-31.5 94.5-88.2l-1.8-1.8c-7.2 6.3-20.7 7.2-51.3 7.2h-98.1c-18.9 0-36.9-2.7-45-8.1l-1.8 1.8c7.2 55.8 46.8 89.1 103.5 89.1zm508.76 76.5-71.1-169.2c-18.9-45.9-24.3-57.6-28.8-91.8h-1.8c-4.5 34.2-9.9 45.9-28.8 91.8l-70.2 169.2h-125.1l207-422.1h36.9l207 422.1zm315 13.5c-127.8 0-215.1-86.4-215.1-222.3 0-135 90-220.5 226.8-220.5 68.4 0 124.2 22.5 173.7 67.5l-50.4 79.2c-35.1-32.4-75.6-49.5-123.3-49.5-65.7 0-107.1 33.3-117 95.4l-3.6 9.9 1.8 2.7c11.7-7.2 25.2-9 52.2-9h257.4v26.1c0 138.6-76.5 220.5-202.5 220.5zm-3.6-90c54.9 0 90.9-31.5 94.5-88.2l-1.8-1.8c-7.2 6.3-20.7 7.2-51.3 7.2h-98.1c-18.9 0-36.9-2.7-45-8.1l-1.8 1.8c7.2 55.8 46.8 89.1 103.5 89.1zm504.98 90c-77.4 0-124.2-42.3-151.2-109.8l-3.6 1.8c6.3 27.9 9 48.6 9 94.5h-109.8V9675h109.8v199.8c0 87.3 39.6 129.6 102.6 129.6 51.3 0 80.1-31.5 80.1-93.6V9675h110.7v267.3c0 105.3-53.1 162-147.6 162zm462.58 200.7v-134.1h121.5v134.1zm5.4-214.2V9675h109.8v415.8zm432.53 13.5c-77.4 0-124.2-42.3-151.2-109.8l-3.6 1.8c6.3 27.9 9 48.6 9 94.5h-109.8V9675h109.8v199.8c0 87.3 39.6 129.6 102.6 129.6 51.3 0 80.1-31.5 80.1-93.6V9675h110.7v267.3c0 105.3-53.1 162-147.6 162M6879.12 2226.39c-217.25 0-393.35 173.14-393.35 386.37 0 213.26 176.1 385.96 393.35 385.96 217.79 0 393.81-172.7 393.81-385.96 0-213.23-176.02-386.37-393.81-386.37m1708.34 180.02c-148.84 197.42-1110.03 1400.76-2457.64 1400.76-1170.23 0-2422.12-1042.24-2422.12-1042.24s-470.28 945.13-1432.21 1035.93c-5.66 0-11.67 1.26-18.07 1.26h-5.96c-20.08-1.09-38.89-20.25-36.73-37.39 2.72-16.56 15.06-34.55 15.06-34.55 124-202.15 440.42-777.24 440.42-1351.75 0-576.39-318.28-1153.03-441.13-1354.17l-8.33-12.82c-3.58-6.07-6.02-12.12-6.02-19.96 0-19.917 15.78-35.417 35.51-37.199l10.41.848c3.23 0 6.67 0 10.12.934C3235.69 1044.35 3707.7 1992.34 3707.7 1992.34S4959.59 950 6129.82 950c1347.61 0 2308.8 1203.41 2457.64 1400.38 4.08 5.4 7.37 10.04 10.31 13.57 1.72 4.63 3.17 8.95 3.17 14.48 0 5.19-1.45 10.4-3.17 14.41-2.94 4.02-6.23 8.63-10.31 13.57M2245.15 6069.06c-2.95.65-4.95 1.64-7.39 1.64-21.31 0-38.68-17.09-38.68-38.38v-263.36c0-11.03 4.23-20.71 11.27-27.26 650.53-555.06 1266.45-34.99 1409.03 102.42 2.94 4.18 5.94 8.19 10.2 10.73 6.36 4.01 13.34 6.87 21.29 6.87 10.06 0 19.51-3.81 26.18-10.18.53-.71 1.3-1.3 1.89-1.63 734.82-688.62 1505.3-130.86 1665.61 0l15.76 14.16c4.53 2.08 9.42 2.87 14.65 2.87 5.47 0 10.92-.79 15.28-2.87l15.87-14.16c160.23-130.86 930.71-688.62 1665.48 0 .14.33 1.06.92 1.42 1.63 6.89 6.37 15.92 10.18 26.13 10.18 7.97 0 15.34-2.86 21.31-6.87 4.45-2.54 7.53-6.55 10.84-10.73 142.41-137.41 757.7-657.48 1408.81-102.42 6.72 6.55 11.17 16.23 11.17 27.26v263.36c0 21.29-16.87 38.38-38.16 38.38-2.81 0-5.39-.99-8.34-1.64-6-3.38-12.25-6.55-19.51-9.94-200.05-98.41-820.56-332.49-1383.85 190.83-5.31 4.85-10.81 9.71-16.34 15.36-5.17 2.07-10.12 3.44-16.42 3.44-3.95 0-8.2-1.09-11.65-1.75-8.37-3.33-15.06-8.56-19.57-14.95-167.9-125.65-938.41-637.86-1624.59-9.34l-10.03 9.64c-7.17 6.22-16.93 11.32-27.85 11.32-10.12 0-20.15-5.1-26.82-11.32l-10.7-9.64c-685.83-628.52-1457.17-116.31-1624.79 9.34-4.39 6.39-10.84 11.62-19.09 14.95-3.95.66-7.9 1.75-12.26 1.75-5.47 0-10.92-1.37-16.15-3.44-5.03-5.65-10.98-10.51-16.51-15.36-563.2-523.32-1183.48-289.24-1383.68-190.83-7.04 3.39-13.71 6.56-19.81 9.94M3619.38 4885.83c3.08 4.29 5.94 7.46 10.25 10.46 6.31 3.87 13.34 7.12 21.24 7.12 10.06 0 19.59-4.01 26.34-10.56.37-.66 1.14-1.17 1.73-1.63 734.6-687.67 1505.3-130.27 1665.67 0l15.7 14.73c4.53 1.75 9.42 2.4 14.59 2.4 5.59 0 10.9-.65 15.48-2.4l15.73-14.73c160.23-130.27 930.63-687.67 1665.54 0 .14.46.8.97 1.36 1.63 6.89 6.55 15.87 10.56 26.04 10.56 8.12 0 15.43-3.25 21.32-7.12 4.58-3 7.61-6.17 10.92-10.46 142.36-137.57 757.64-657.8 1408.81-102.23 6.81 6.8 11.39 15.7 11.39 26.67v264.07c0 21.04-17.23 37.8-38.38 37.8-2.81 0-5.39-1.07-8.34-1.59-6-2.86-12.34-6.16-19.51-9.57-199.89-98.5-820.7-332.01-1383.85 190.6-5.22 4.91-10.75 9.85-16.28 15.18-5.23 2.86-10.18 3.76-16.48 3.76-3.95 0-8.12-.9-11.65-2.87-8.45-2.07-15.06-7.31-19.57-14.16-167.76-125.46-938.41-637.86-1624.65-9.25l-10.06 9.85c-7.08 6.74-16.92 10.59-27.82 10.59-10.06 0-20.09-3.85-26.84-10.59l-10.62-9.85c-685.83-628.61-1457.17-116.21-1624.79 9.25-4.39 6.85-10.89 12.09-19.01 14.16-3.95 1.97-8.12 2.87-12.34 2.87-5.53 0-10.84-.9-16.01-3.76-5.31-5.33-10.98-10.27-16.73-15.18-563.17-522.61-1183.4-289.1-1383.6-190.6-7.04 3.41-13.65 6.71-19.74 9.57-3.02.52-4.96 1.59-7.39 1.59-21.38 0-38.75-16.76-38.75-37.8v-264.07c0-10.97 4.23-19.87 11.19-26.67 650.61-555.57 1266.58-35.34 1409.11 102.23" transform="matrix(.13333 0 0 -.13333 0 1440)"/></svg>