<svg xmlns="http://www.w3.org/2000/svg" height="1440" width="1440" xml:space="preserve"><path style="fill:#fff;fill-opacity:1;fill-rule:nonzero;stroke:none" d="m1118.31 10322.8-85.43-265.3-566.521-400.16V9117.8l400.164 206.82c80.934 40.47 121.399 71.94 157.367 125.9l13.49-9c-31.47-112.4-35.97-179.84-35.97-350.7V7287.83h539.55v3034.97zm1880.72 67.4c-737.38 0-1155.53-575.49-1155.53-1582.64 0-1007.16 422.64-1587.17 1155.53-1587.17 732.88 0 1155.53 580.01 1155.53 1587.17 0 1007.15-422.65 1582.64-1155.53 1582.64zm0-512.54c377.68 0 593.5-391.17 593.5-1070.1 0-678.93-215.82-1074.6-593.5-1074.6s-598 395.67-598 1074.6c0 678.93 215.82 1070.1 598 1070.1M4971.2 9190.8l-71.1-169.2c-18.9-45.9-24.3-57.6-28.8-91.8h-1.8c-4.5 34.2-9.9 45.9-28.8 91.8l-70.2 169.2h-125.1l207-422.1h36.9l207 422.1zm314.99 13.5c-127.8 0-215.1-86.4-215.1-222.3 0-135 90-220.5 226.8-220.5 68.4 0 124.2 22.5 173.7 67.5l-50.4 79.2c-35.1-32.4-75.6-49.5-123.3-49.5-65.7 0-107.1 33.3-117 95.4l-3.6 9.9 1.8 2.7c11.7-7.2 25.2-9 52.2-9h257.4v26.1c0 138.6-76.5 220.5-202.5 220.5zm-3.6-90c54.9 0 90.9-31.5 94.5-88.2l-1.8-1.8c-7.2 6.3-20.7 7.2-51.3 7.2h-98.1c-18.9 0-36.9-2.7-45-8.1l-1.8 1.8c7.2 55.8 46.8 89.1 103.5 89.1zm487.88 89.1c-70.2 0-117.89-43.2-139.5-135.9l-3.6.9c7.21 43.2 11.7 85.5 11.7 122.4h-107.09V8775h109.79v176.4c0 93.6 42.3 135.9 117.9 135.9 9 0 16.21 0 34.21-1.8v117c-7.21.9-14.4.9-23.41.9zm157.14-428.4v205.2c0 87.3 33.3 123.3 86.4 123.3 49.5 0 76.5-27 76.5-95.4V8775h107.1v205.2c0 87.3 32.4 123.3 86.4 123.3 49.5 0 75.6-27 75.6-96.3V8775h110.7v268.2c0 107.1-53.1 161.1-139.5 161.1-73.8 0-120.6-41.4-140.4-100.8h-3.6c-16.2 64.8-55.8 100.8-126.9 100.8-71.1 0-112.5-32.4-139.5-102.6l-3.6 1.8c7.2 28.8 9.9 55.8 9.9 87.3h-108.9V8775zm603.09 630v-134.1h121.5V9405zm5.4-214.2V8775h109.8v415.8zm432.53 13.5c-77.4 0-124.2-42.3-151.2-109.8l-3.6 1.8c6.3 27.9 9 48.6 9 94.5h-109.8V8775h109.8v199.8c0 87.3 39.6 129.6 102.6 129.6 51.3 0 80.1-31.5 80.1-93.6V8775h110.7v267.3c0 105.3-53.1 162-147.6 162zm385.82-442.8c72 0 126.9 36 153 100.8l3.6-.9c-4.5-23.4-6.3-50.4-6.3-86.4h107.1v643.5h-109.8v-210.6c0-41.4 2.7-80.1 9.9-103.5l-3.6-.9c-28.8 65.7-81.9 100.8-153.9 100.8-116.1 0-196.2-90.9-196.2-221.4 0-132.3 80.1-221.4 196.2-221.4zm32.4 100.8c-70.2 0-113.4 45.9-113.4 120.6 0 74.7 43.2 120.6 113.4 120.6 71.1 0 119.7-48.6 119.7-120.6s-48.6-120.6-119.7-120.6zm484.19 342c-127.8 0-215.1-86.4-215.1-222.3 0-135 90-220.5 226.8-220.5 68.4 0 124.2 22.5 173.7 67.5l-50.4 79.2c-35.1-32.4-75.6-49.5-123.3-49.5-65.7 0-107.1 33.3-117 95.4l-3.6 9.9 1.8 2.7c11.7-7.2 25.2-9 52.2-9h257.4v26.1c0 138.6-76.5 220.5-202.5 220.5zm-3.6-90c54.9 0 90.9-31.5 94.5-88.2l-1.8-1.8c-7.2 6.3-20.7 7.2-51.3 7.2h-98.1c-18.9 0-36.9-2.7-45-8.1l-1.8 1.8c7.2 55.8 46.8 89.1 103.5 89.1zm487.88 89.1c-70.2 0-117.9-43.2-139.5-135.9l-3.6.9c7.2 43.2 11.7 85.5 11.7 122.4h-107.1V8775h109.8v176.4c0 93.6 42.3 135.9 117.9 135.9 9 0 16.2 0 34.2-1.8v117c-7.2.9-14.4.9-23.4.9zm241.91.9c-127.8 0-215.1-86.4-215.1-222.3 0-135 90-220.5 226.8-220.5 68.4 0 124.2 22.5 173.7 67.5l-50.4 79.2c-35.1-32.4-75.6-49.5-123.3-49.5-65.7 0-107.1 33.3-117 95.4l-3.6 9.9 1.8 2.7c11.7-7.2 25.2-9 52.2-9h257.4v26.1c0 138.6-76.5 220.5-202.5 220.5zm-3.6-90c54.9 0 90.9-31.5 94.5-88.2l-1.8-1.8c-7.2 6.3-20.7 7.2-51.3 7.2h-98.1c-18.9 0-36.9-2.7-45-8.1l-1.8 1.8c7.2 55.8 46.8 89.1 103.5 89.1zm504.98 90c-77.4 0-124.2-42.3-151.2-109.8l-3.6 1.8c6.3 27.9 9 48.6 9 94.5h-109.8V8775h109.8v199.8c0 87.3 39.6 129.6 102.6 129.6 51.3 0 80.1-31.5 80.1-93.6V8775h110.7v267.3c0 105.3-53.1 162-147.6 162M4895.6 10104.3c-133.2 0-230.4-91.8-230.4-221.4 0-129.6 97.2-221.4 230.4-221.4s230.4 91.8 230.4 221.4c0 129.6-97.2 221.4-230.4 221.4zm0-104.4c68.4 0 117-45.9 117-117s-48.6-117-117-117-117 45.9-117 117 48.6 117 117 117zm528.56 104.4c-77.4 0-124.2-42.3-151.2-109.8l-3.6 1.8c6.3 27.9 9 48.6 9 94.5h-109.8V9675h109.8v199.8c0 87.3 39.6 129.6 102.6 129.6 51.3 0 80.1-31.5 80.1-93.6V9675h110.7v267.3c0 105.3-53.1 162-147.6 162zm385.82 0c-115.2 0-196.2-89.1-196.2-221.4 0-130.5 80.1-216.9 195.3-216.9 69.3 0 121.5 32.4 153.9 96.3l3.6-.9c-5.4-21.6-7.2-36.9-7.2-61.2v-12.6c0-64.8-51.3-102.6-128.7-102.6-53.1 0-96.3 13.5-143.1 41.4l-49.5-94.5c53.1-32.4 115.2-50.4 197.1-50.4 145.8 0 232.2 65.7 232.2 220.5v388.8h-110.7c0-43.2 2.7-64.8 9.9-86.4l-3.6-.9c-27.9 62.1-78.3 100.8-153 100.8zm29.7-101.7c68.4 0 117.9-48.6 117.9-119.7s-49.5-119.7-117.9-119.7c-66.6 0-110.7 45.9-110.7 119.7 0 73.8 44.1 119.7 110.7 119.7zm485.64 101.7c-127.8 0-215.1-86.4-215.1-222.3 0-135 90-220.5 226.8-220.5 68.4 0 124.2 22.5 173.7 67.5l-50.4 79.2c-35.1-32.4-75.6-49.5-123.3-49.5-65.7 0-107.1 33.3-117 95.4l-3.6 9.9 1.8 2.7c11.7-7.2 25.2-9 52.2-9h257.4v26.1c0 138.6-76.5 220.5-202.5 220.5zm-3.6-90c54.9 0 90.9-31.5 94.5-88.2l-1.8-1.8c-7.2 6.3-20.7 7.2-51.3 7.2h-98.1c-18.9 0-36.9-2.7-45-8.1l-1.8 1.8c7.2 55.8 46.8 89.1 103.5 89.1zm250.28 304.2V9675h109.8v643.5zm171.26-13.5v-134.1h121.5v134.1zm5.4-214.2V9675h109.8v415.8zm172.17 214.2v-134.1h121.5v134.1zm5.39-214.2v-427.5c0-48.6-20.69-77.4-67.5-77.4h-8.09v-104.4h9.9c108.9 0 175.5 53.1 175.5 178.2v431.1zm176.94 227.7V9675h109.8v120.6c0 37.8-3.6 65.7-10.8 86.4l2.7 1.8 170.1-208.8h143.1l-167.4 193.5c-18.9 18.9-27.9 26.1-37.8 29.7v3.6c9.9 3.6 21.6 10.8 43.2 34.2l144.9 154.8h-137.7l-158.4-183.6-2.7.9c7.2 21.6 10.8 51.3 10.8 90.9v319.5zm434.87 0V9675h109.8v199.8c0 87.3 40.5 129.6 102.6 129.6 51.3 0 80.1-28.8 80.1-93.6V9675h110.7v267.3c0 104.4-55.8 162-148.5 162-74.7 0-121.5-38.7-150.3-104.4l-3.6.9c6.3 34.2 9 61.2 9 108.9v208.8zm658.79-214.2c-127.8 0-215.1-86.4-215.1-222.3 0-135 90-220.5 226.8-220.5 68.4 0 124.2 22.5 173.7 67.5l-50.4 79.2c-35.1-32.4-75.6-49.5-123.3-49.5-65.7 0-107.1 33.3-117 95.4l-3.6 9.9 1.8 2.7c11.7-7.2 25.2-9 52.2-9h257.4v26.1c0 138.6-76.5 220.5-202.5 220.5zm-3.6-90c54.9 0 90.9-31.5 94.5-88.2l-1.8-1.8c-7.2 6.3-20.7 7.2-51.3 7.2h-98.1c-18.9 0-36.9-2.7-45-8.1l-1.8 1.8c7.2 55.8 46.8 89.1 103.5 89.1zm242.09 290.7v-134.1h121.5v134.1zm5.4-214.2V9675h109.8v415.8zm347.66-429.3c72 0 126.9 36 153 100.8l3.6-.9c-4.5-23.4-6.3-50.4-6.3-86.4h107.1v643.5h-109.8v-210.6c0-41.4 2.7-80.1 9.9-103.5l-3.6-.9c-28.8 65.7-81.9 100.8-153.9 100.8-116.1 0-196.2-90.9-196.2-221.4 0-132.3 80.1-221.4 196.2-221.4zm32.4 100.8c-70.2 0-113.4 45.9-113.4 120.6 0 74.7 43.2 120.6 113.4 120.6 71.1 0 119.7-48.6 119.7-120.6s-48.6-120.6-119.7-120.6M6442.48 3506.27H4357.27c-12.51 0-22.65-11.05-22.65-24.59v-608.94c0-13.82 10.14-24.72 22.65-24.72h2085.21c12.77 0 22.91 10.9 22.91 24.72v608.94c0 13.54-10.14 24.59-22.91 24.59M6442.48 4801.98H4357.27c-12.51 0-22.65-11.05-22.65-24.59v-608.95c0-13.81 10.14-24.71 22.65-24.71h2085.21c12.77 0 22.91 10.9 22.91 24.71v608.95c0 13.54-10.14 24.59-22.91 24.59M6413.14 5722.49l-1000.9 972.58c-6.77 6.58-17.69 6.58-24.46 0l-1000.91-972.58c-10.9-10.57-3.19-28.69 12.22-28.69h2001.83c15.41 0 23.13 18.12 12.22 28.69M7352.74 2840.55l1000.9 972.57c6.77 6.56 6.77 17.18 0 23.75l-1000.9 972.58c-10.88 10.6-29.52 3.1-29.52-11.87V2852.42c0-14.97 18.64-22.47 29.52-11.87M4386.87 1927.51l1000.91-972.58c6.77-6.571 17.69-6.571 24.46 0l1000.9 972.58c10.91 10.57 3.19 28.69-12.22 28.69H4399.09c-15.41 0-23.12-18.12-12.22-28.69M3447.22 4809.45l-1000.88-972.58c-6.74-6.57-6.74-17.19 0-23.75l1000.88-972.57c10.91-10.6 29.55-3.1 29.55 11.87v1945.16c0 14.97-18.64 22.47-29.55 11.87" transform="matrix(.13333 0 0 -.13333 0 1440)"/></svg>