<svg xmlns="http://www.w3.org/2000/svg" height="1440" width="1440" xml:space="preserve"><path style="fill:#fff;fill-opacity:1;fill-rule:nonzero;stroke:none" d="m1118.31 10322.8-85.43-265.3-566.521-400.16V9117.8l400.164 206.82c80.934 40.47 121.399 71.94 157.367 125.9l13.49-9c-31.47-112.4-35.97-179.84-35.97-350.7V7287.83h539.55v3034.97zm1566.88 67.4c-332.72 0-678.93-98.9-957.69-269.7l224.81-449.67c233.8 143.88 458.61 215.82 647.45 215.82 260.78 0 409.16-121.4 409.16-328.22 0-256.29-242.8-395.67-701.41-395.67v-490.09c615.98 0 863.27-130.39 863.27-467.61 0-292.25-206.82-467.6-566.52-467.6-233.8 0-467.61 67.44-714.9 206.82l-193.34-508.07c256.29-134.89 593.5-215.82 908.24-215.82 705.91 0 1124.06 355.2 1124.06 944.21 0 395.66-206.83 665.44-580.02 764.35-76.43 22.49-148.37 31.48-260.78 31.48v17.98c103.42 9 188.84 26.98 260.78 53.96 260.78 94.42 413.65 332.72 413.65 638.46 0 458.57-319.23 719.37-876.76 719.37M4263.1 10318.5V9675h109.8v120.6c0 37.8-3.6 65.7-10.8 86.4l2.7 1.8 170.1-208.8H4678l-167.4 193.5c-18.9 18.9-27.9 26.1-37.8 29.7v3.6c9.9 3.6 21.6 10.8 43.2 34.2l144.9 154.8h-137.7l-158.4-183.6-2.7.9c7.2 21.6 10.8 51.3 10.8 90.9v319.5zm434.78 0V9675h109.8v643.5zm171.26-13.5v-134.1h121.5v134.1zm5.4-214.2V9675h109.8v415.8zm286.73-415.8v205.2c0 87.3 33.3 123.3 86.4 123.3 49.5 0 76.5-27 76.5-95.4V9675h107.1v205.2c0 87.3 32.4 123.3 86.4 123.3 49.5 0 75.6-27 75.6-96.3V9675h110.7v268.2c0 107.1-53.1 161.1-139.5 161.1-73.8 0-120.6-41.4-140.4-100.8h-3.6c-16.2 64.8-55.8 100.8-126.9 100.8-71.1 0-112.5-32.4-139.5-102.6l-3.6 1.8c7.2 28.8 9.9 55.8 9.9 87.3h-108.9V9675zm785.34 429.3c-47.7 0-103.5-7.2-156.6-20.7l21.6-92.7c55.8 13.5 90.9 18 123.3 18 56.7 0 89.1-23.4 91.8-66.6 0-23.4 1.8-45 7.2-61.2l-3.6-1.8c-28.8 46.8-77.4 72-139.5 72-90.9 0-150.3-55.8-150.3-144 0-87.3 59.4-145.8 148.5-145.8 63.9 0 112.5 29.7 143.1 89.1l3.6-1.8c-9.9-23.4-13.5-44.1-13.5-73.8h111.6v261.9c0 117.9-55.8 167.4-187.2 167.4zm-13.5-228.6c45 0 76.5-26.1 76.5-63.9s-31.5-64.8-77.4-64.8c-44.1 0-73.8 25.2-73.8 63.9 0 37.8 29.7 64.8 74.7 64.8zm441.98 228.6c-47.7 0-103.5-7.2-156.6-20.7l21.6-92.7c55.8 13.5 90.9 18 123.3 18 56.7 0 89.1-23.4 91.8-66.6 0-23.4 1.8-45 7.2-61.2l-3.6-1.8c-28.8 46.8-77.4 72-139.5 72-90.9 0-150.3-55.8-150.3-144 0-87.3 59.4-145.8 148.5-145.8 63.9 0 112.5 29.7 143.1 89.1l3.6-1.8c-9.9-23.4-13.5-44.1-13.5-73.8h111.6v261.9c0 117.9-55.8 167.4-187.2 167.4zm-13.5-228.6c45 0 76.5-26.1 76.5-63.9s-31.5-64.8-77.4-64.8c-44.1 0-73.8 25.2-73.8 63.9 0 37.8 29.7 64.8 74.7 64.8zm398.16 437.4-101.7-71.1v-114.3c0-15.3 0-27.9 5.4-42.3l-2.7-1.8c-8.1 6.3-18.9 7.2-38.7 7.2h-36v-98.1h36c21.6 0 30.6.9 38.7 6.3l2.7-1.8c-5.4-13.5-5.4-27-5.4-50.4V9675h110.7v271.8c0 23.4 0 36.9-4.5 50.4l2.7 1.8c8.1-5.4 17.1-6.3 37.8-6.3h44.1v98.1h-44.1c-18.9 0-29.7-.9-37.8-7.2l-2.7 1.8c4.5 14.4 4.5 27 4.5 42.3v185.4zm280.97-208.8c-47.7 0-103.5-7.2-156.6-20.7l21.6-92.7c55.8 13.5 90.9 18 123.3 18 56.7 0 89.1-23.4 91.8-66.6 0-23.4 1.8-45 7.2-61.2l-3.6-1.8c-28.8 46.8-77.4 72-139.5 72-90.9 0-150.3-55.8-150.3-144 0-87.3 59.4-145.8 148.5-145.8 63.9 0 112.5 29.7 143.1 89.1l3.6-1.8c-9.9-23.4-13.5-44.1-13.5-73.8h111.6v261.9c0 117.9-55.8 167.4-187.2 167.4zm-13.5-228.6c45 0 76.5-26.1 76.5-63.9s-31.5-64.8-77.4-64.8c-44.1 0-73.8 25.2-73.8 63.9 0 37.8 29.7 64.8 74.7 64.8zm468.71-214.2c54 0 100.8 13.5 145.8 41.4l-47.7 90.9c-29.7-19.8-62.1-28.8-96.3-28.8-69.3 0-117.9 48.6-117.9 117.9 0 69.3 48.6 117.9 117.9 117.9 34.2 0 66.6-9 96.3-28.8l47.7 90.9c-45 27.9-91.8 41.4-145.8 41.4-135.9 0-229.5-90-229.5-221.4s93.6-221.4 229.5-221.4zm330.92 651.6-101.69-71.1v-114.3c0-15.3 0-27.9 5.39-42.3l-2.7-1.8c-8.1 6.3-18.89 7.2-38.7 7.2h-36v-98.1h36c21.61 0 30.6.9 38.7 6.3l2.7-1.8c-5.39-13.5-5.39-27-5.39-50.4V9675h110.7v271.8c0 23.4 0 36.9-4.51 50.4l2.7 1.8c8.11-5.4 17.1-6.3 37.8-6.3h44.1v98.1h-44.1c-18.9 0-29.69-.9-37.8-7.2l-2.7 1.8c4.51 14.4 4.51 27 4.51 42.3v185.4zm110.43-8.1v-134.1h121.5v134.1zm5.4-214.2V9675h109.8v415.8zm366.56 13.5c-127.8 0-215.1-86.4-215.1-222.3 0-135 90-220.5 226.8-220.5 68.4 0 124.2 22.5 173.7 67.5l-50.4 79.2c-35.1-32.4-75.6-49.5-123.3-49.5-65.7 0-107.1 33.3-117 95.4l-3.6 9.9 1.8 2.7c11.7-7.2 25.2-9 52.2-9h257.4v26.1c0 138.6-76.5 220.5-202.5 220.5zm-3.6-90c54.9 0 90.9-31.5 94.5-88.2l-1.8-1.8c-7.2 6.3-20.7 7.2-51.3 7.2h-98.1c-18.9 0-36.9-2.7-45-8.1l-1.8 1.8c7.2 55.8 46.8 89.1 103.5 89.1M7165.02 3454.7c-48.26 12.96-250.3 287.18-90.54 467.65 26.52 29.69-53.63 116.95-31.71 118.69 87.36 6.62 133.86-46.57 156.77-123.34 1.78-33.8 3.13-67.94 3.13-102.39 0-123.58-13.19-244.16-37.65-360.61m-492.81-891.9c-18.03 4.95-36.5 10.69-56.53 20.48-98.19 49.08-86.43-29.32-134.69-12.05-48.61 17.7 54.48 127.73-90.62 34.66-144.41-92.8-105.42 14.37-168.44 171.56-63.68 157.36 72.51 336.89 186.2 377.52 156.28 55.59 253.34 66.87 326.61 84.65 216.12 53.01 261.83 178.94 301.04 102.3 7.43-14.36 14.55-28 21.08-40.85 12.57-22.89 27.1-69.28 27.78-115.08-91.74-236.14-233.3-448.18-412.43-623.19m-1268.88-514.28c-175.81 0-345.29 25.15-505.68 71.14-23.07 18.49-36.23 49.32-21.81 86.35 55.68 142.55 221.44 198.34 352.31 210.69 291.76 27.93 675.2-185.96 736.2-151.44 61.19 34.46 184.5 191.93 365.46 185.34 123.51-4.65 122.6-24.99 164.06-40.36-302.58-226.67-680.37-361.72-1090.54-361.72m-244.64 1151.52c-24.75-39.77-92.41-336.92-137.81-302.32-45.63 34.69 18.39 344.62 31.54 368.16 71.05 128 224.78 121.68 106.27-65.84m734.77 350.77c-35.52-31.05-126.49-19.7-171.98 15.17-45.21 34.53 28.72 91.87 55.73 93.99 60.56 5.33 151.46-77.71 116.25-109.16m794.04-3.07c-19.4 7.13-36.53 25.17-51.22 68.53-14.66 43.38 22.5 68.14 58.78 50.67 36.94-18.4 84.81-72.46 84.81-101.36 0-28.95-72.56-25.48-92.37-17.84m76.48-54.27c60.48 4.79 151.32-77.5 115.8-109.11-35.37-31.33-126.08-19.83-171.57 15.12-45.27 34.58 28.59 91.78 55.77 93.99m-1930.01-704.48c-34.94-135.05-75.77-183.75-110.57-226.34-34.75-43.08-163.57-98.06-245.28-92.14-81.85 6-93.23 220.46-93.23 330.7 0 38.1-54.91-74.86-83.55 154.67-18.33 146.96-114.4-15.31-121.11 82.71-6.88 97.78-54.84 78.28-105.34 139.41-50.17 61.08-112.79-5.98-182.97-36.86-69.74-30.44-41.02-46.5-140.27-15.82-2.55.8-3.84 1.53-6.3 2.39-91.06 211.36-141.34 443.74-141.34 687.6 0 59.69 3.26 118.29 8.9 176.3 3.4 5.9 6.93 11.57 11.13 16.44 95.14 110.57 93 136.43 93 136.43l105.28 35.82s168.09-25.43 294.71-72.26c104.3-38.42 268.55-125.27 364.07-87.04 69.03 27.96 123.1 65.03 116.57 121.51-7.78 70.83-64.58 87.67-133.34 39.9-25.4-17.56-79.44 106.77-121.83 100.46-42.36-6.19 52.42-146.11 16.5-152.04-36.09-6.05-108.54 145.85-120.9 170.44-12.2 24.41-68.15 85.38-118.38 38.86-106.1-99-278.44-92.94-313.05-118.4-105.33-77.39-133.15 25.46-130.79 88.13 4.25 14.31 8.55 28.75 13.24 42.91 34.36 37.24 157.81 49.56 200.2 21.82 46.53-30.54 79.93 7.86 98.13 26.4 18.44 18.11 11.95 47.44.33 71.8-11.81 24.56 23.29 42.51 47.35 48.83 24.25 6.32 104.4 61.4 136.38 79.83 32.34 18.22 198.67 38.05 273.23 1.46 74.48-36.87 142.9-6.78 179.54 35.6 45.98 53.54 104.49 94.39 130.46 106.77 26.09 11.97-64.17 94.71-138.38 4.52-74.42-89.77-112.27-98.05-147.23-98.05-34.94 0-242.65 50.88-268.27 115.35-25.32 64.31 64.94 112.55 141.64 149.07 76.62 35.87 286.39 35.38 340.01 47.3 109.01 23.49 248.38 77.26 318.56 30.33 69.9-46.09-293.15-127.31-173.82-190.59 42.45-22.9 234.38 108.44 300.17 142.02 154.71 78.35-150.06 104.24-110.52 263.54 44.73 180.06-373.79 110.42-582.43 95.09 279.8 176.03 612.08 278.44 968.86 278.44 848.8 0 1559.78-577.39 1749.38-1353.79 1.26-38.4-4.82-66.08-8.77-81.77-16.27-63.67-139.28-118.42-210.7-15.91-18.16 25.84-95.36 97.38-92.73-25.02 2.47-122.46 121.18-134.97 6.17-208.45-114.9-73.46-135.97-55.76-189.1-74.27-53-18.4-104.44-144.6-91.78-212.01 12.88-67.45 176.89-251.59 55.19-244.02-28.52 2.09-243.5 146.24-279.01 238.96-37.43 97.63-78.32 193.12-107.33 266.77-29.35 73.32-105.2 92.08-169.52 48.92-63.93-43.05 17.92-85.97-28.14-178.02-45.84-91.86-78.81-173.91-146.38-98.03-175.57 197.61-430.77 100.15-470.81 320.02-21.56 119.2-126.13 107.76-213.49 175.3-87.88 67.11-136.77 103.62-151.53 55.03-13.02-42.68 274.98-266.87 295.5-324.32 30.56-85.3-86.26-160.62-171.78-180.83-85.11-20.04-122.68 47.09-206.51 132.85-83.77 85.54-120.49 146.81-126.27 79.54-8.41-97.19 79.58-239.94 164.96-293.3 72.81-45.28 154.39-65.79 130.83-139.24-23.71-73.71-.44-32-81.99-111.22-81.72-79.64-97.28-105.23-91.34-215.21 5.87-110.34-23.34-116.67-40.91-208.37-17.45-91.73-58.01-12.38-93.3-146.92m-966.52 1947.05c4.11 4.79 7.78 8.73 9.35 10.69 32.47 36.33 97.11 44.13 141.83 50.96 44.78 7.54 104.49-14.63 111.72-43.83 7.62-29.09-112.29-82.44-134.21-102.41-62.13-56.18-159.38-170.68-216.27-183-18.6-4.09-33.89-1.32-46.47 4.79 37.4 91.56 82.12 179.63 134.05 262.8m92.24 180.13c23.29 33.55 100.62 129.35 110.02 141.43 19.89 25.15 59.35 30.3 87.09 35.11 27.37 5.22 63.95-9.96 68.34-30.16 4.74-20.29-10.61-98.81-24.12-112.32-37.87-38.58-136.46-93.07-190.8-84.49-42.04 6.33-58.5 38.26-50.53 50.43m5719.53-1043.98c-307.1 423.02-1696.38 2111.98-4278.87 2111.98-2582.88 0-3971.76-1688.96-4279.36-2111.98-13.09-18.1-24.33-33.71-33.53-47.03 9.2-13.64 20.44-29.19 33.53-47.52 307.6-422.8 1696.48-2111.81 4279.36-2111.81 2582.49 0 3971.77 1689.01 4278.87 2111.81 13.45 18.33 24.5 33.88 33.32 47.52-8.82 13.32-19.87 28.93-33.32 47.03" transform="matrix(.13333 0 0 -.13333 0 1440)"/></svg>