<svg xmlns="http://www.w3.org/2000/svg" height="1440" width="1440" xml:space="preserve"><path style="fill:#fff;fill-opacity:1;fill-rule:nonzero;stroke:none" d="m1118.31 10322.8-85.43-265.3-566.521-400.16V9117.8l400.164 206.82c80.934 40.47 121.399 71.94 157.367 125.9l13.49-9c-31.47-112.4-35.97-179.84-35.97-350.7V7287.83h539.55v3034.97zm771.05 0-215.82-530.57h903.74c211.33 0 328.23 17.98 400.17 49.46l8.99-8.99c-53.96-67.45-103.41-202.33-229.31-476.6l-939.71-2068.27h606.99l1308.4 3021.47-4.49 13.5H1889.36M4330.5 7861.5c116.1 0 196.2 89.1 196.2 221.4 0 130.5-80.1 221.4-196.2 221.4-72 0-125.1-35.1-153.9-100.8l-3.6.9c7.2 23.4 9.9 62.1 9.9 103.5v210.6h-109.8V7875h107.1c0 36-1.8 63-6.3 86.4l3.6.9c26.1-64.8 81-100.8 153-100.8zm-32.4 100.8c-71.1 0-119.7 48.6-119.7 120.6s48.6 120.6 119.7 120.6c70.2 0 113.4-45.9 113.4-120.6 0-74.7-43.2-120.6-113.4-120.6zm464.57 342c-127.8 0-215.1-86.4-215.1-222.3 0-135 90-220.5 226.8-220.5 68.4 0 124.2 22.5 173.7 67.5l-50.4 79.2c-35.1-32.4-75.6-49.5-123.3-49.5-65.7 0-107.1 33.3-117 95.4l-3.6 9.9 1.8 2.7c11.7-7.2 25.2-9 52.2-9h257.4v26.1c0 138.6-76.5 220.5-202.5 220.5zm-3.6-90c54.9 0 90.9-31.5 94.5-88.2l-1.8-1.8c-7.2 6.3-20.7 7.2-51.3 7.2h-98.1c-18.9 0-36.9-2.7-45-8.1l-1.8 1.8c7.2 55.8 46.8 89.1 103.5 89.1zm487.88 89.1c-70.2 0-117.9-43.2-139.5-135.9l-3.6.9c7.2 43.2 11.7 85.5 11.7 122.4h-107.1V7875h109.8v176.4c0 93.6 42.3 135.9 117.9 135.9 9 0 16.2 0 34.2-1.8v117c-7.2.9-14.4.9-23.4.9zm241.91.9c-127.8 0-215.1-86.4-215.1-222.3 0-135 90-220.5 226.8-220.5 68.4 0 124.2 22.5 173.7 67.5l-50.4 79.2c-35.1-32.4-75.6-49.5-123.3-49.5-65.7 0-107.1 33.3-117 95.4l-3.6 9.9 1.8 2.7c11.7-7.2 25.2-9 52.2-9h257.4v26.1c0 138.6-76.5 220.5-202.5 220.5zm-3.6-90c54.9 0 90.9-31.5 94.5-88.2l-1.8-1.8c-7.2 6.3-20.7 7.2-51.3 7.2h-98.1c-18.9 0-36.9-2.7-45-8.1l-1.8 1.8c7.2 55.8 46.8 89.1 103.5 89.1zm242.09 290.7v-134.1h121.5V8505zm5.4-214.2V7875h109.8v415.8zm176.94 227.7V7875h109.8v120.6c0 37.8-3.6 65.7-10.8 86.4l2.7 1.8 170.1-208.8h143.1l-167.4 193.5c-18.9 18.9-27.9 26.1-37.8 29.7v3.6c9.9 3.6 21.6 10.8 43.2 34.2l144.9 154.8h-137.7l-158.4-183.6-2.7.9c7.2 21.6 10.8 51.3 10.8 90.9v319.5zm593.54-214.2c-127.8 0-215.1-86.4-215.1-222.3 0-135 90-220.5 226.8-220.5 68.4 0 124.2 22.5 173.7 67.5l-50.4 79.2c-35.1-32.4-75.6-49.5-123.3-49.5-65.7 0-107.1 33.3-117 95.4l-3.6 9.9 1.8 2.7c11.7-7.2 25.2-9 52.2-9h257.4v26.1c0 138.6-76.5 220.5-202.5 220.5zm-3.6-90c54.9 0 90.9-31.5 94.5-88.2l-1.8-1.8c-7.2 6.3-20.7 7.2-51.3 7.2h-98.1c-18.9 0-36.9-2.7-45-8.1l-1.8 1.8c7.2 55.8 46.8 89.1 103.5 89.1zm504.98 90c-77.4 0-124.2-42.3-151.2-109.8l-3.6 1.8c6.3 27.9 9 48.6 9 94.5h-109.8V7875h109.8v199.8c0 87.3 39.6 129.6 102.6 129.6 51.3 0 80.1-31.5 80.1-93.6V7875h110.7v267.3c0 105.3-53.1 162-147.6 162M4241.4 8761.5c72 0 126.9 36 153 100.8l3.6-.9c-4.5-23.4-6.3-50.4-6.3-86.4h107.1v643.5H4389v-210.6c0-41.4 2.7-80.1 9.9-103.5l-3.6-.9c-28.8 65.7-81.9 100.8-153.9 100.8-116.1 0-196.2-90.9-196.2-221.4 0-132.3 80.1-221.4 196.2-221.4zm32.4 100.8c-70.2 0-113.4 45.9-113.4 120.6 0 74.7 43.2 120.6 113.4 120.6 71.1 0 119.7-48.6 119.7-120.6s-48.6-120.6-119.7-120.6zm497.96 342c-133.2 0-230.4-91.8-230.4-221.4 0-129.6 97.2-221.4 230.4-221.4s230.4 91.8 230.4 221.4c0 129.6-97.2 221.4-230.4 221.4zm0-104.4c68.4 0 117-45.9 117-117s-48.6-117-117-117-117 45.9-117 117 48.6 117 117 117zm464.21 104.4c-127.8 0-215.1-86.4-215.1-222.3 0-135 90-220.5 226.8-220.5 68.4 0 124.2 22.5 173.7 67.5l-50.4 79.2c-35.1-32.4-75.6-49.5-123.3-49.5-65.7 0-107.1 33.3-117 95.4l-3.6 9.9 1.8 2.7c11.7-7.2 25.2-9 52.2-9h257.4v26.1c0 138.6-76.5 220.5-202.5 220.5zm-3.6-90c54.9 0 90.9-31.5 94.5-88.2l-1.8-1.8c-7.2 6.3-20.7 7.2-51.3 7.2h-98.1c-18.9 0-36.9-2.7-45-8.1l-1.8 1.8c7.2 55.8 46.8 89.1 103.5 89.1zm250.28 304.2V8775h109.8v643.5zm314.46-657c107.99 0 170.1 48.6 170.1 133.2 0 56.7-27 91.8-90 119.7l-72.9 32.4c-31.5 14.4-41.4 23.4-41.4 39.6 0 18 13.5 26.1 43.2 26.1 33.3 0 73.8-9.9 115.2-27.9l36.9 90c-50.4 18.9-100.8 29.7-147.6 29.7-100.8 0-159.3-45.9-159.3-124.2 0-55.8 29.7-97.2 92.7-124.2l75.6-34.2c27-12.6 36-21.6 36-36 0-20.7-16.2-30.6-53.1-30.6-45 0-90.9 13.5-137.7 42.3l-44.11-91.8c50.41-27.9 113.41-44.1 176.41-44.1zm350.63 651.6-101.7-71.1v-114.3c0-15.3 0-27.9 5.4-42.3l-2.7-1.8c-8.1 6.3-18.9 7.2-38.7 7.2h-36v-98.1h36c21.6 0 30.6.9 38.7 6.3l2.7-1.8c-5.4-13.5-5.4-27-5.4-50.4V8775h110.7v271.8c0 23.4 0 36.9-4.5 50.4l2.7 1.8c8.1-5.4 17.1-6.3 37.8-6.3h44.1v98.1h-44.1c-18.9 0-29.7-.9-37.8-7.2l-2.7 1.8c4.5 14.4 4.5 27 4.5 42.3v185.4zm309.06-208.8c-127.8 0-215.1-86.4-215.1-222.3 0-135 90-220.5 226.8-220.5 68.4 0 124.2 22.5 173.7 67.5l-50.4 79.2c-35.1-32.4-75.6-49.5-123.3-49.5-65.7 0-107.1 33.3-117 95.4l-3.6 9.9 1.8 2.7c11.7-7.2 25.2-9 52.2-9h257.4v26.1c0 138.6-76.5 220.5-202.5 220.5zm-3.6-90c54.9 0 90.9-31.5 94.5-88.2l-1.8-1.8c-7.2 6.3-20.7 7.2-51.3 7.2h-98.1c-18.9 0-36.9-2.7-45-8.1l-1.8 1.8c7.2 55.8 46.8 89.1 103.5 89.1zm250.28 304.2V8775h109.8v643.5zm176.39 0V8775h109.8v643.5zm171.26-13.5v-134.1h121.5V9405zm5.4-214.2V8775h109.8v415.8zm432.53 13.5c-77.4 0-124.2-42.3-151.2-109.8l-3.6 1.8c6.3 27.9 9 48.6 9 94.5h-109.8V8775h109.8v199.8c0 87.3 39.6 129.6 102.6 129.6 51.3 0 80.1-31.5 80.1-93.6V8775h110.7v267.3c0 105.3-53.1 162-147.6 162zm385.82 0c-115.2 0-196.2-89.1-196.2-221.4 0-130.5 80.1-216.9 195.3-216.9 69.3 0 121.5 32.4 153.9 96.3l3.6-.9c-5.4-21.6-7.2-36.9-7.2-61.2v-12.6c0-64.8-51.3-102.6-128.7-102.6-53.1 0-96.3 13.5-143.1 41.4l-49.5-94.5c53.1-32.4 115.2-50.4 197.1-50.4 145.8 0 232.2 65.7 232.2 220.5v388.8h-110.7c0-43.2 2.7-64.8 9.9-86.4l-3.6-.9c-27.9 62.1-78.3 100.8-153 100.8zm29.7-101.7c68.4 0 117.9-48.6 117.9-119.7s-49.5-119.7-117.9-119.7c-66.6 0-110.7 45.9-110.7 119.7 0 73.8 44.1 119.7 110.7 119.7zm485.64 101.7c-127.8 0-215.1-86.4-215.1-222.3 0-135 90-220.5 226.8-220.5 68.4 0 124.2 22.5 173.7 67.5l-50.4 79.2c-35.1-32.4-75.6-49.5-123.3-49.5-65.7 0-107.1 33.3-117 95.4l-3.6 9.9 1.8 2.7c11.7-7.2 25.2-9 52.2-9h257.4v26.1c0 138.6-76.5 220.5-202.5 220.5zm-3.6-90c54.9 0 90.9-31.5 94.5-88.2l-1.8-1.8c-7.2 6.3-20.7 7.2-51.3 7.2h-98.1c-18.9 0-36.9-2.7-45-8.1l-1.8 1.8c7.2 55.8 46.8 89.1 103.5 89.1zm504.98 90c-77.4 0-124.2-42.3-151.2-109.8l-3.6 1.8c6.3 27.9 9 48.6 9 94.5H8636V8775h109.8v199.8c0 87.3 39.6 129.6 102.6 129.6 51.3 0 80.1-31.5 80.1-93.6V8775h110.7v267.3c0 105.3-53.1 162-147.6 162zm605.68 208.8-101.7-71.1v-114.3c0-15.3 0-27.9 5.4-42.3l-2.7-1.8c-8.1 6.3-18.9 7.2-38.7 7.2h-36v-98.1h36c21.6 0 30.6.9 38.7 6.3l2.7-1.8c-5.4-13.5-5.4-27-5.4-50.4V8775h110.7v271.8c0 23.4 0 36.9-4.5 50.4l2.7 1.8c8.1-5.4 17.1-6.3 37.8-6.3h44.1v98.1h-44.1c-18.9 0-29.7-.9-37.8-7.2l-2.7 1.8c4.5 14.4 4.5 27 4.5 42.3v185.4zm309.06-208.8c-127.8 0-215.1-86.4-215.1-222.3 0-135 90-220.5 226.8-220.5 68.4 0 124.2 22.5 173.7 67.5l-50.4 79.2c-35.1-32.4-75.6-49.5-123.3-49.5-65.7 0-107.1 33.3-117 95.4l-3.6 9.9 1.8 2.7c11.7-7.2 25.2-9 52.2-9h257.36v26.1c0 138.6-76.46 220.5-202.46 220.5zm-3.6-90c54.9 0 90.9-31.5 94.5-88.2l-1.8-1.8c-7.2 6.3-20.7 7.2-51.3 7.2h-98.1c-18.9 0-36.9-2.7-45-8.1l-1.8 1.8c7.2 55.8 46.8 89.1 103.5 89.1M4329.6 10104.3c-73.8 0-123.3-38.7-153-100.8l-3.6.9c5.4 21.6 8.1 51.3 8.1 86.4h-108V9495H4182v181.8c0 31.5-2.7 58.5-8.1 84.6l3.6.9c27.9-66.6 83.7-100.8 153-100.8 116.1 0 196.2 89.1 196.2 221.4s-81.9 221.4-197.1 221.4zm-31.5-100.8c69.3 0 113.4-45.9 113.4-120.6 0-74.7-43.2-120.6-113.4-120.6-71.1 0-119.7 48.6-119.7 120.6s48.6 120.6 119.7 120.6zm450.35 100.8c-47.7 0-103.5-7.2-156.6-20.7l21.6-92.7c55.8 13.5 90.9 18 123.3 18 56.7 0 89.1-23.4 91.8-66.6 0-23.4 1.8-45 7.2-61.2l-3.6-1.8c-28.8 46.8-77.4 72-139.5 72-90.9 0-150.3-55.8-150.3-144 0-87.3 59.4-145.8 148.5-145.8 63.9 0 112.5 29.7 143.1 89.1l3.6-1.8c-9.9-23.4-13.5-44.1-13.5-73.8h111.6v261.9c0 117.9-55.8 167.4-187.2 167.4zm-13.5-228.6c45 0 76.5-26.1 76.5-63.9s-31.5-64.8-77.4-64.8c-44.1 0-73.8 25.2-73.8 63.9 0 37.8 29.7 64.8 74.7 64.8zm504.08 227.7c-70.2 0-117.9-43.2-139.5-135.9l-3.6.9c7.2 43.2 11.7 85.5 11.7 122.4h-107.1V9675h109.8v176.4c0 93.6 42.3 135.9 117.9 135.9 9 0 16.2 0 34.2-1.8v117c-7.2.9-14.4.9-23.4.9zm204.84 209.7-101.7-71.1v-114.3c0-15.3 0-27.9 5.4-42.3l-2.7-1.8c-8.1 6.3-18.9 7.2-38.7 7.2h-36v-98.1h36c21.6 0 30.6.9 38.7 6.3l2.7-1.8c-5.4-13.5-5.4-27-5.4-50.4V9675h110.7v271.8c0 23.4 0 36.9-4.5 50.4l2.7 1.8c8.1-5.4 17.1-6.3 37.8-6.3h44.1v98.1h-44.1c-18.9 0-29.7-.9-37.8-7.2l-2.7 1.8c4.5 14.4 4.5 27 4.5 42.3v185.4zm371.42-208.8c-77.4 0-124.2-42.3-151.2-109.8l-3.6 1.8c6.3 27.9 9 48.6 9 94.5h-109.8V9675h109.8v199.8c0 87.3 39.6 129.6 102.6 129.6 51.3 0 80.1-31.5 80.1-93.6V9675h110.7v267.3c0 105.3-53.1 162-147.6 162zm403.19 0c-127.8 0-215.1-86.4-215.1-222.3 0-135 90-220.5 226.8-220.5 68.4 0 124.2 22.5 173.7 67.5l-50.4 79.2c-35.1-32.4-75.6-49.5-123.3-49.5-65.7 0-107.1 33.3-117 95.4l-3.6 9.9 1.8 2.7c11.7-7.2 25.2-9 52.2-9h257.4v26.1c0 138.6-76.5 220.5-202.5 220.5zm-3.6-90c54.9 0 90.9-31.5 94.5-88.2l-1.8-1.8c-7.2 6.3-20.7 7.2-51.3 7.2h-98.1c-18.9 0-36.9-2.7-45-8.1l-1.8 1.8c7.2 55.8 46.8 89.1 103.5 89.1zm487.88 89.1c-70.2 0-117.9-43.2-139.5-135.9l-3.6.9c7.2 43.2 11.7 85.5 11.7 122.4h-107.1V9675h109.8v176.4c0 93.6 42.3 135.9 117.9 135.9 9 0 16.2 0 34.2-1.8v117c-7.2.9-14.4.9-23.4.9zm188.64-441.9c108 0 170.1 48.6 170.1 133.2 0 56.7-27 91.8-90 119.7l-72.9 32.4c-31.5 14.4-41.4 23.4-41.4 39.6 0 18 13.5 26.1 43.2 26.1 33.3 0 73.8-9.9 115.2-27.9l36.9 90c-50.4 18.9-100.8 29.7-147.6 29.7-100.8 0-159.3-45.9-159.3-124.2 0-55.8 29.7-97.2 92.7-124.2l75.6-34.2c27-12.6 36-21.6 36-36 0-20.7-16.2-30.6-53.1-30.6-45 0-90.9 13.5-137.7 42.3l-44.1-91.8c50.4-27.9 113.4-44.1 176.4-44.1zm412.01 0c54 0 100.8 13.5 145.8 41.4l-47.7 90.9c-29.7-19.8-62.1-28.8-96.3-28.8-69.3 0-117.9 48.6-117.9 117.9 0 69.3 48.6 117.9 117.9 117.9 34.2 0 66.6-9 96.3-28.8l47.7 90.9c-45 27.9-91.8 41.4-145.8 41.4-135.9 0-229.5-90-229.5-221.4s93.6-221.4 229.5-221.4zm177.56 657V9675h109.8v199.8c0 87.3 40.5 129.6 102.6 129.6 51.3 0 80.1-28.8 80.1-93.6V9675h110.7v267.3c0 104.4-55.8 162-148.5 162-74.7 0-121.5-38.7-150.3-104.4l-3.6.9c6.3 34.2 9 61.2 9 108.9v208.8zm644.84-214.2c-47.7 0-103.5-7.2-156.6-20.7l21.6-92.7c55.8 13.5 90.9 18 123.3 18 56.7 0 89.1-23.4 91.8-66.6 0-23.4 1.8-45 7.2-61.2l-3.6-1.8c-28.8 46.8-77.4 72-139.5 72-90.9 0-150.3-55.8-150.3-144 0-87.3 59.4-145.8 148.5-145.8 63.9 0 112.5 29.7 143.1 89.1l3.6-1.8c-9.9-23.4-13.5-44.1-13.5-73.8h111.6v261.9c0 117.9-55.8 167.4-187.2 167.4zm-13.5-228.6c45 0 76.5-26.1 76.5-63.9s-31.5-64.8-77.4-64.8c-44.1 0-73.8 25.2-73.8 63.9 0 37.8 29.7 64.8 74.7 64.8zm522.09 228.6c-73.8 0-123.3-38.7-153-100.8l-3.6.9c5.4 21.6 8.1 51.3 8.1 86.4h-108V9495h108.9v181.8c0 31.5-2.7 58.5-8.1 84.6l3.6.9c27.9-66.6 83.7-100.8 153-100.8 116.1 0 196.2 89.1 196.2 221.4s-81.9 221.4-197.1 221.4zm-31.5-100.8c69.3 0 113.4-45.9 113.4-120.6 0-74.7-43.2-120.6-113.4-120.6-71.1 0-119.7 48.6-119.7 120.6s48.6 120.6 119.7 120.6zm728.08 100.8c-133.2 0-230.4-91.8-230.4-221.4 0-129.6 97.2-221.4 230.4-221.4s230.4 91.8 230.4 221.4c0 129.6-97.2 221.4-230.4 221.4zm0-104.4c68.4 0 117-45.9 117-117s-48.6-117-117-117-117 45.9-117 117 48.6 117 117 117zm382.76-324.9v205.2c0 87.3 33.3 123.3 86.4 123.3 49.5 0 76.5-27 76.5-95.4V9675h107.1v205.2c0 87.3 32.36 123.3 86.36 123.3 49.5 0 75.6-27 75.6-96.3V9675h110.7v268.2c0 107.1-53.1 161.1-139.5 161.1-73.8 0-120.56-41.4-140.36-100.8h-3.6c-16.2 64.8-55.8 100.8-126.9 100.8-71.1 0-112.5-32.4-139.5-102.6l-3.6 1.8c7.2 28.8 9.9 55.8 9.9 87.3h-108.9V9675h109.8M6477.31 4030.14c312.28 281.59 508.28 683.42 508.28 1129.13 0 66.68-4.87 132.37-13.29 196.89 634.61-66.04 1130.72-589.31 1130.72-1223.4 0-360.25-161.15-683.77-416.09-909.08-238.64 434.52-685.1 745.21-1209.62 806.46m1076.41-1529.39c0-678.31-568.13-1230.35-1266.43-1230.35-227.27 0-439.89 59.23-624.44 161.44 269.37 276.27 435.45 649.05 435.45 1058.68 0 100.87-10.49 199.39-29.55 294.83 227.69-122.99 489.39-193.26 767.91-193.26 247.72 0 482.42 55.61 691.35 154.61 16.84-79.57 25.71-161.79 25.71-245.95m-4307.44-10.23c0 87.51 9.59 172.72 27.7 255 208.63-98.27 442.46-153.43 689.36-153.43 277.65 0 538.42 69.84 765.61 192.06-17.66-91.86-27.4-186.56-27.4-283.4 0-416.12 171.26-794.1 448.23-1071.63-187.46-106.69-404.78-168.92-637.07-168.92-698.45 0-1266.43 551.99-1266.43 1230.32m-549.3 1642.24c0 634.09 495.95 1157.27 1130.56 1223.4-8.41-64.52-13.28-130.21-13.28-196.89 0-450.39 200.06-856.25 518.05-1138.19-525.96-58.18-974.61-367.06-1215.75-800.59-256.8 225.28-419.58 550.33-419.58 912.27m2702.87 2257.02c518.93 0 965.3-304.94 1160.84-739.94-515.13-88.24-945.2-418.66-1160.84-865.8-215.36 447.21-645.56 777.62-1160.73 865.8 195.58 435 641.95 739.94 1160.73 739.94m301.58-2799.1c175.46 89.38 374.35 140.65 585.86 140.65 497.86 0 928.29-281.35 1135.23-688.38-175.55-89.44-374.74-140.69-585.86-140.69-498.04 0-928.53 281.38-1135.23 688.42m-607.12-8.3c-208.37-402.59-636.42-680.12-1130.97-680.12-209.73 0-407.36 50.72-581.7 138.76 208.32 402.6 636.53 680.09 1131.07 680.09 209.83 0 407.21-50.61 581.6-138.73m-944.2 1766.09c609.81-88.1 1079.66-598.88 1079.66-1215.71 0-64.37-6.7-127.28-16.63-189.05-609.86 88.18-1079.59 598.8-1079.59 1215.56 0 64.52 6.67 127.43 16.56 189.2m1255.63-3729.1c-237.04 223.67-384.9 535.97-384.9 881.38 0 340.2 143.05 648.53 373.24 871.47 236.92-223.7 384.9-536 384.9-881.7 0-340-142.87-648.24-373.24-871.15m1260.53 3539.9c0-616.76-469.7-1127.38-1079.6-1215.56-9.88 61.77-16.44 124.68-16.44 189.05 0 616.83 469.7 1127.53 1079.51 1215.66 9.89-61.72 16.53-124.63 16.53-189.15m1755.98-1026.51c0 830.74-680.14 1509.52-1527.38 1539.52C6676.92 6270.32 6089.16 6700 5399.85 6700c-689.16 0-1276.86-429.68-1495.02-1027.72-847.24-30.09-1527.08-708.83-1527.08-1539.52 0-492.94 239.81-932.34 611.88-1214.57-40.42-135.94-62.67-279.29-62.67-427.67 0-849.27 711.33-1540.52 1585.75-1540.52 331.8 0 639.93 99.78 894.9 269.79 251.93-163.81 554.47-259.501 879.68-259.501 874.27 0 1585.6 691.161 1585.6 1540.461 0 145.4-21.23 285.92-60.08 419.21 370.5 282.32 609.44 720.88 609.44 1212.8" transform="matrix(.13333 0 0 -.13333 0 1440)"/></svg>