<svg xmlns="http://www.w3.org/2000/svg" height="1440" width="1440" xml:space="preserve"><path style="fill:#fff;fill-opacity:1;fill-rule:nonzero;stroke:none" d="m1118.31 10322.8-85.43-265.3-566.521-400.16V9117.8l400.164 206.82c80.934 40.47 121.399 71.94 157.367 125.9l13.49-9c-31.47-112.4-35.97-179.84-35.97-350.7V7287.83h539.55v3034.97zm1310.6 0-458.62-1546.72 17.99-13.49c130.39 40.47 305.74 62.95 476.6 62.95 458.61 0 692.42-179.85 692.42-530.55 0-346.21-238.3-562.03-633.97-562.03-220.32 0-445.13 62.95-705.91 197.83l-188.84-494.58c265.28-143.88 557.53-215.82 881.26-215.82 759.86 0 1213.98 404.66 1213.98 1083.59 0 593.5-373.19 966.69-962.19 966.69-80.93 0-134.89-8.99-184.35-26.98l-4.49 8.99c44.96 49.46 71.94 103.42 85.42 152.87l62.95 224.82c17.99 71.93 26.98 125.89 26.98 170.85l4.5 4.5c26.97-8.99 71.93-17.99 125.89-17.99h728.39l202.33 535.07H2428.91M4463.1 9418.5V8775h109.8v199.8c0 87.3 40.5 129.6 102.6 129.6 51.3 0 80.1-28.8 80.1-93.6V8775h110.7v267.3c0 104.4-55.8 162-148.5 162-74.7 0-121.5-38.7-150.3-104.4l-3.6.9c6.3 34.2 9 61.2 9 108.9v208.8zm658.79-214.2c-127.8 0-215.1-86.4-215.1-222.3 0-135 90-220.5 226.8-220.5 68.4 0 124.2 22.5 173.7 67.5l-50.4 79.2c-35.1-32.4-75.6-49.5-123.3-49.5-65.7 0-107.1 33.3-117 95.4l-3.6 9.9 1.8 2.7c11.7-7.2 25.2-9 52.2-9h257.4v26.1c0 138.6-76.5 220.5-202.5 220.5zm-3.6-90c54.9 0 90.9-31.5 94.5-88.2l-1.8-1.8c-7.2 6.3-20.7 7.2-51.3 7.2h-98.1c-18.9 0-36.9-2.7-45-8.1l-1.8 1.8c7.2 55.8 46.8 89.1 103.5 89.1zm386.18 298.8-101.7-71.1v-114.3c0-15.3 0-27.9 5.4-42.3l-2.7-1.8c-8.1 6.3-18.9 7.2-38.7 7.2h-36v-98.1h36c21.6 0 30.6.9 38.7 6.3l2.7-1.8c-5.4-13.5-5.4-27-5.4-50.4V8775h110.7v271.8c0 23.4 0 36.9-4.5 50.4l2.7 1.8c8.1-5.4 17.1-6.3 37.8-6.3h44.1v98.1h-44.1c-18.9 0-29.7-.9-37.8-7.2l-2.7 1.8c4.5 14.4 4.5 27 4.5 42.3v185.4zm377.09 5.4V8775h109.8v643.5zm355.31-214.2c-47.7 0-103.5-7.2-156.6-20.7l21.6-92.7c55.8 13.5 90.9 18 123.3 18 56.7 0 89.1-23.4 91.8-66.6 0-23.4 1.8-45 7.2-61.2l-3.6-1.8c-28.8 46.8-77.4 72-139.5 72-90.9 0-150.3-55.8-150.3-144 0-87.3 59.4-145.8 148.5-145.8 63.9 0 112.5 29.7 143.1 89.1l3.6-1.8c-9.9-23.4-13.5-44.1-13.5-73.8h111.6v261.9c0 117.9-55.8 167.4-187.2 167.4zm-13.5-228.6c45 0 76.5-26.1 76.5-63.9s-31.5-64.8-77.4-64.8c-44.1 0-73.8 25.2-73.8 63.9 0 37.8 29.7 64.8 74.7 64.8zm521.18 228.6c-77.4 0-124.2-42.3-151.2-109.8l-3.6 1.8c6.3 27.9 9 48.6 9 94.5h-109.8V8775h109.8v199.8c0 87.3 39.6 129.6 102.6 129.6 51.3 0 80.1-31.5 80.1-93.6V8775h110.7v267.3c0 105.3-53.1 162-147.6 162zm385.82-442.8c72 0 126.9 36 153 100.8l3.6-.9c-4.5-23.4-6.3-50.4-6.3-86.4h107.1v643.5h-109.8v-210.6c0-41.4 2.7-80.1 9.9-103.5l-3.6-.9c-28.8 65.7-81.9 100.8-153.9 100.8-116.1 0-196.2-90.9-196.2-221.4 0-132.3 80.1-221.4 196.2-221.4zm32.4 100.8c-70.2 0-113.4 45.9-113.4 120.6 0 74.7 43.2 120.6 113.4 120.6 71.1 0 119.7-48.6 119.7-120.6s-48.6-120.6-119.7-120.6M4463.1 10318.5V9675h109.8v643.5zm368.9-214.2c-127.8 0-215.1-86.4-215.1-222.3 0-135 90-220.5 226.8-220.5 68.4 0 124.2 22.5 173.7 67.5l-50.4 79.2c-35.1-32.4-75.6-49.5-123.3-49.5-65.7 0-107.1 33.3-117 95.4l-3.6 9.9 1.8 2.7c11.7-7.2 25.2-9 52.2-9h257.4v26.1c0 138.6-76.5 220.5-202.5 220.5zm-3.6-90c54.9 0 90.9-31.5 94.5-88.2l-1.8-1.8c-7.2 6.3-20.7 7.2-51.3 7.2h-98.1c-18.9 0-36.9-2.7-45-8.1l-1.8 1.8c7.2 55.8 46.8 89.1 103.5 89.1zm508.76 76.5-71.1-169.2c-18.9-45.9-24.3-57.6-28.8-91.8h-1.8c-4.5 34.2-9.9 45.9-28.8 91.8l-70.2 169.2h-125.1l207-422.1h36.9l207 422.1zm315 13.5c-127.8 0-215.1-86.4-215.1-222.3 0-135 90-220.5 226.8-220.5 68.4 0 124.2 22.5 173.7 67.5l-50.4 79.2c-35.1-32.4-75.6-49.5-123.3-49.5-65.7 0-107.1 33.3-117 95.4l-3.6 9.9 1.8 2.7c11.7-7.2 25.2-9 52.2-9h257.4v26.1c0 138.6-76.5 220.5-202.5 220.5zm-3.6-90c54.9 0 90.9-31.5 94.5-88.2l-1.8-1.8c-7.2 6.3-20.7 7.2-51.3 7.2h-98.1c-18.9 0-36.9-2.7-45-8.1l-1.8 1.8c7.2 55.8 46.8 89.1 103.5 89.1zm504.98 90c-77.4 0-124.2-42.3-151.2-109.8l-3.6 1.8c6.3 27.9 9 48.6 9 94.5h-109.8V9675h109.8v199.8c0 87.3 39.6 129.6 102.6 129.6 51.3 0 80.1-31.5 80.1-93.6V9675h110.7v267.3c0 105.3-53.1 162-147.6 162zm670.48 0c-133.2 0-230.4-91.8-230.4-221.4 0-129.6 97.2-221.4 230.4-221.4s230.4 91.8 230.4 221.4c0 129.6-97.2 221.4-230.4 221.4zm0-104.4c68.4 0 117-45.9 117-117s-48.6-117-117-117-117 45.9-117 117 48.6 117 117 117zm529.46 104.4c-73.8 0-123.3-38.7-153-100.8l-3.6.9c5.4 21.6 8.1 51.3 8.1 86.4h-108V9495h108.9v181.8c0 31.5-2.7 58.5-8.1 84.6l3.6.9c27.9-66.6 83.7-100.8 153-100.8 116.1 0 196.2 89.1 196.2 221.4s-81.9 221.4-197.1 221.4zm-31.5-100.8c69.3 0 113.4-45.9 113.4-120.6 0-74.7-43.2-120.6-113.4-120.6-71.1 0-119.7 48.6-119.7 120.6s48.6 120.6 119.7 120.6M4405.89 3367.62c15.01 0 27.1-11.86 27.1-26.44v-870.49c0-14.81-12.09-26.47-27.1-26.47h-362.55c-15.09 0-27.24 11.66-27.24 26.47v870.49c0 14.58 12.15 26.44 27.24 26.44h362.55M8387.08 2070.46H2412.86c-14.93 0-27.33-12.48-27.33-27.29v-354.83c0-14.44 12.4-26.1 27.33-26.1h5974.22c14.72 0 27.39 11.66 27.39 26.1v354.83c0 14.81-12.67 27.29-27.39 27.29M8387.08 1365.22H2412.86c-14.93 0-27.33-11.69-27.33-26.1V983.199c0-14.219 12.4-26.187 27.33-26.187h5974.22c14.72 0 27.39 11.968 27.39 26.187v355.921c0 14.41-12.67 26.1-27.39 26.1M7250.24 4331.2c-74.67 56.74-273.86 189.21-516.78 189.21-173.65 0-335.22-66.49-479.75-198.09-10.24-9.44-16-22.48-16-36.41v-31.61c0-15.57 5.32-30.13 17.03-39.71 12.99-9.52 26.58-13.13 42.11-9.52 3.44.44 7.69 1.51 11.19 2.78 11.05 3.73 21.43 10.19 29.88 18.4 31.34 20.46 116.91 48.39 239.27 48.39 126.55 0 375.25-32.93 615.56-250.68l5.52-4.81c13.53-13.51 32.19-20.98 51.97-20.98 18.83 0 38.32 7.61 50.55 20.51l4.86 4.86c241.67 218.17 489.91 251.1 616.45 251.1 123.26 0 208.45-27.93 239.88-48.39 8.59-8.21 19.12-14.81 33-19.67 5.29-1.51 20.53-4.53 35.02-1.07 22.09 6.07 37.62 25.41 37.62 47.85v28.03c0 13.26-5.9 26.63-16.05 35.88-145.89 135.13-309.17 203.45-485.57 203.45-240.71 0-439.01-130.42-515.76-189.52M6879.5 6644.9c-12.69-5.73-21.89-17-26.08-30.57l-6.05-19.37c-4.45-15.23-1.61-31.3 7.84-43.61 9.29-11.77 22.41-18.88 36.96-19.56 2.78-.31 5.46-.98 7.46-.31 10.38.31 19.72 2.5 28.92 7.17 5.29 1.07 16.34 3.93 36.2 3.93 26.73 0 267.59-7.87 426.81-270.88l2.03-3.74c8.68-15.23 22.18-25.74 38.23-29.76 4.63-1.43 13.5-2.87 19.03-2.87 11.04 0 22.17 2.87 30.1 7.26l3.93 1.85c87.14 42.35 177.42 64.07 266.55 64.07 150.89 0 249.45-59.83 272.44-84.75 4.68-8.43 11.86-15.8 20.01-21.64 5.06-2.84 14.03-7.22 19.4-9.08 2.69-.64 5.82-1.01 8.82-1.23 1.62-.34 3.59-.34 5.35-.34 8.16 0 16 1.97 23.69 5.79 12.23 5.98 21.43 16.83 25.39 29.73l5 17.14c1.48 4.33 2.09 9.11 2.09 14.1 0 9.06-2.4 17.85-6.95 24.9-116.02 195.78-284.38 236.69-405.26 236.69-89.96 0-168.65-22.65-215.01-39.2-54.71 71.52-193.06 219.38-402.92 219.38-73.77 0-148.96-18.43-223.98-55.1M5617.15 5751.78l1.7-26.13c.84-16.29 9.66-30.4 23.92-39.09 11.8-7.21 26.87-9.72 40.17-5.9 2.89.65 6.19 1.69 8.73 2.65 10.3 4.1 19.03 10.48 25.83 18.51 25.39 17.82 107.2 50.3 227.84 50.3 116.03 0 292.52-30.12 472.39-173.66l4.16-4.15c12.85-10.79 29.27-16.87 46.07-16.87h4.43c18.8 1.41 36.2 9.81 46.87 21.9l4.02 4.38c199.14 204.77 413.63 235.2 523.75 235.2 78.46 0 134.09-15.74 155.72-27.63 8.22-6.91 18.37-12.33 31.06-15.67 3.59-.85 12.41-2.37 21.9-1.38 3.87.39 8.73 1.71 12.52 2.89 21.37 7.25 35.39 27.51 33.92 49.91l-1.36 22.71c-.9 13.54-7.4 25.68-17.99 34.53-118.85 97.14-247.14 146.12-382.1 146.12-210.18 0-377.79-120.58-447.23-179.7-63.53 42.04-217.69 128.56-398.58 128.56-158.97 0-301.48-64.18-423.86-190.32-9.63-9.98-14.49-23.55-13.88-37.16M2593.92 5285.74c0 347.63 290.05 629.34 647.66 629.34 14.02 0 27.7-1.18 41.52-1.94 34.1 439.91 411.37 786.86 872.91 786.86 484.01 0 876.4-381.21 876.4-851.52 0-133.22-32.47-258.78-88.6-371.07 438.61-94.41 766.89-473.93 766.89-928.37 0-525.53-438.46-951.59-979.3-951.59-39.5 0-1306.91 7.4-1306.91 7.4-383.09.08-693.5 301.57-693.5 673.78 0 178.77 72.12 340.66 189.04 461.32-194.65 108.56-326.11 312.03-326.11 545.79" transform="matrix(.13333 0 0 -.13333 0 1440)"/></svg>