<?xml version="1.0" encoding="UTF-8" standalone="no"?>
<svg
   xmlns:dc="http://purl.org/dc/elements/1.1/"
   xmlns:cc="http://creativecommons.org/ns#"
   xmlns:rdf="http://www.w3.org/1999/02/22-rdf-syntax-ns#"
   xmlns:svg="http://www.w3.org/2000/svg"
   xmlns="http://www.w3.org/2000/svg"
   xmlns:sodipodi="http://sodipodi.sourceforge.net/DTD/sodipodi-0.dtd"
   xmlns:inkscape="http://www.inkscape.org/namespaces/inkscape"
   version="1.1"
   id="svg2"
   xml:space="preserve"
   width="1440"
   height="1440"
   viewBox="0 0 1440 1440"
   sodipodi:docname="17SDGs_V2_Text_Nobackground_rgb_2.eps"><metadata
     id="metadata8"><rdf:RDF><cc:Work
         rdf:about=""><dc:format>image/svg+xml</dc:format><dc:type
           rdf:resource="http://purl.org/dc/dcmitype/StillImage" /></cc:Work></rdf:RDF></metadata><defs
     id="defs6" /><sodipodi:namedview
     pagecolor="#ffffff"
     bordercolor="#666666"
     borderopacity="1"
     objecttolerance="10"
     gridtolerance="10"
     guidetolerance="10"
     inkscape:pageopacity="0"
     inkscape:pageshadow="2"
     inkscape:window-width="640"
     inkscape:window-height="480"
     id="namedview4" /><g
     id="g10"
     inkscape:groupmode="layer"
     inkscape:label="ink_ext_XXXXXX"
     transform="matrix(1.3333333,0,0,-1.3333333,0,1440)"><g
       id="g12"
       transform="scale(0.1)"><path
         d="m 1727.47,10320.2 c -341.71,0 -665.44,-112.4 -1016.15,-359.67 L 981.098,9524.4 c 256.282,184.34 494.582,278.76 692.412,278.76 233.81,0 373.19,-130.39 373.19,-350.7 0,-166.36 -76.44,-332.72 -278.77,-593.51 L 513.488,7249.31 526.977,7217.83 H 2460.35 l 292.26,508.08 -4.5,8.99 H 1925.3 c -211.32,0 -341.71,-17.99 -436.13,-49.46 l -8.99,13.49 c 80.93,67.44 175.35,161.86 269.77,287.76 l 458.61,598 c 296.75,377.68 409.16,638.46 409.16,939.71 0,499.1 -328.22,795.8 -890.25,795.8"
         style="fill:#ffffff;fill-opacity:1;fill-rule:nonzero;stroke:none"
         id="path14" /><path
         d="M 3113.1,9418.5 V 8775 h 109.8 v 199.8 c 0,87.3 40.5,129.6 102.6,129.6 51.3,0 80.1,-28.8 80.1,-93.6 V 8775 h 110.7 v 267.3 c 0,104.4 -55.8,162 -148.5,162 -74.7,0 -121.5,-38.7 -150.3,-104.4 l -3.6,0.9 c 6.3,34.2 9,61.2 9,108.9 v 208.8 z m 672.47,-214.2 c -133.2,0 -230.4,-91.8 -230.4,-221.4 0,-129.6 97.2,-221.4 230.4,-221.4 133.2,0 230.4,91.8 230.4,221.4 0,129.6 -97.2,221.4 -230.4,221.4 z m 0,-104.4 c 68.4,0 117,-45.9 117,-117 0,-71.1 -48.6,-117 -117,-117 -68.4,0 -117,45.9 -117,117 0,71.1 48.6,117 117,117 z m 528.56,104.4 c -77.4,0 -124.2,-42.3 -151.2,-109.8 l -3.6,1.8 c 6.3,27.9 9,48.6 9,94.5 h -109.8 V 8775 h 109.8 v 199.8 c 0,87.3 39.6,129.6 102.6,129.6 51.3,0 80.1,-31.5 80.1,-93.6 V 8775 h 110.7 v 267.3 c 0,105.3 -53.1,162 -147.6,162 z m 385.82,0 c -115.2,0 -196.2,-89.1 -196.2,-221.4 0,-130.5 80.1,-216.9 195.3,-216.9 69.3,0 121.5,32.4 153.9,96.3 l 3.6,-0.9 c -5.4,-21.6 -7.2,-36.9 -7.2,-61.2 v -12.6 c 0,-64.8 -51.3,-102.6 -128.7,-102.6 -53.1,0 -96.3,13.5 -143.1,41.4 l -49.5,-94.5 c 53.1,-32.4 115.2,-50.4 197.1,-50.4 145.8,0 232.2,65.7 232.2,220.5 v 388.8 h -110.7 c 0,-43.2 2.7,-64.8 9.9,-86.4 l -3.6,-0.9 c -27.9,62.1 -78.3,100.8 -153,100.8 z m 29.7,-101.7 c 68.4,0 117.9,-48.6 117.9,-119.7 0,-71.1 -49.5,-119.7 -117.9,-119.7 -66.6,0 -110.7,45.9 -110.7,119.7 0,73.8 44.1,119.7 110.7,119.7 z m 485.64,101.7 c -127.8,0 -215.1,-86.4 -215.1,-222.3 0,-135 90,-220.5 226.8,-220.5 68.4,0 124.2,22.5 173.7,67.5 l -50.4,79.2 c -35.1,-32.4 -75.6,-49.5 -123.3,-49.5 -65.7,0 -107.1,33.3 -117,95.4 l -3.6,9.9 1.8,2.7 c 11.7,-7.2 25.2,-9 52.2,-9 h 257.4 v 26.1 c 0,138.6 -76.5,220.5 -202.5,220.5 z m -3.6,-90 c 54.9,0 90.9,-31.5 94.5,-88.2 l -1.8,-1.8 c -7.2,6.3 -20.7,7.2 -51.3,7.2 h -98.1 c -18.9,0 -36.9,-2.7 -45,-8.1 l -1.8,1.8 c 7.2,55.8 46.8,89.1 103.5,89.1 z m 487.88,89.1 c -70.2,0 -117.9,-43.2 -139.5,-135.9 l -3.6,0.9 c 7.2,43.2 11.7,85.5 11.7,122.4 h -107.1 V 8775 h 109.8 v 176.4 c 0,93.6 42.3,135.9 117.9,135.9 9,0 16.2,0 34.2,-1.8 v 117 c -7.2,0.9 -14.4,0.9 -23.4,0.9"
         style="fill:#ffffff;fill-opacity:1;fill-rule:nonzero;stroke:none"
         id="path16" /><path
         d="m 3281.4,10104.3 c -115.2,0 -196.2,-89.1 -196.2,-221.4 0,-130.5 80.1,-216.9 195.3,-216.9 69.3,0 121.5,32.4 153.9,96.3 l 3.6,-0.9 c -5.4,-21.6 -7.2,-36.9 -7.2,-61.2 v -12.6 c 0,-64.8 -51.3,-102.6 -128.7,-102.6 -53.1,0 -96.3,13.5 -143.1,41.4 l -49.5,-94.5 c 53.1,-32.4 115.2,-50.4 197.1,-50.4 145.8,0 232.2,65.7 232.2,220.5 v 388.8 h -110.7 c 0,-43.2 2.7,-64.8 9.9,-86.4 l -3.6,-0.9 c -27.9,62.1 -78.3,100.8 -153,100.8 z m 29.7,-101.7 c 68.4,0 117.9,-48.6 117.9,-119.7 0,-71.1 -49.5,-119.7 -117.9,-119.7 -66.6,0 -110.7,45.9 -110.7,119.7 0,73.8 44.1,119.7 110.7,119.7 z m 485.64,101.7 c -127.8,0 -215.1,-86.4 -215.1,-222.3 0,-135 90,-220.5 226.8,-220.5 68.4,0 124.2,22.5 173.7,67.5 l -50.4,79.2 c -35.1,-32.4 -75.6,-49.5 -123.3,-49.5 -65.7,0 -107.1,33.3 -117,95.4 l -3.6,9.9 1.8,2.7 c 11.7,-7.2 25.2,-9 52.2,-9 h 257.4 v 26.1 c 0,138.6 -76.5,220.5 -202.5,220.5 z m -3.6,-90 c 54.9,0 90.9,-31.5 94.5,-88.2 l -1.8,-1.8 c -7.2,6.3 -20.7,7.2 -51.3,7.2 h -98.1 c -18.9,0 -36.9,-2.7 -45,-8.1 l -1.8,1.8 c 7.2,55.8 46.8,89.1 103.5,89.1 z m 439.1,90 c -127.8,0 -215.1,-86.4 -215.1,-222.3 0,-135 90,-220.5 226.8,-220.5 68.4,0 124.2,22.5 173.7,67.5 l -50.4,79.2 c -35.1,-32.4 -75.6,-49.5 -123.3,-49.5 -65.7,0 -107.1,33.3 -117,95.4 l -3.6,9.9 1.8,2.7 c 11.7,-7.2 25.2,-9 52.2,-9 h 257.4 v 26.1 c 0,138.6 -76.5,220.5 -202.5,220.5 z m -3.6,-90 c 54.9,0 90.9,-31.5 94.5,-88.2 l -1.8,-1.8 c -7.2,6.3 -20.7,7.2 -51.3,7.2 h -98.1 c -18.9,0 -36.9,-2.7 -45,-8.1 l -1.8,1.8 c 7.2,55.8 46.8,89.1 103.5,89.1 z m 504.98,90 c -77.4,0 -124.2,-42.3 -151.2,-109.8 l -3.6,1.8 c 6.3,27.9 9,48.6 9,94.5 h -109.8 V 9675 h 109.8 v 199.8 c 0,87.3 39.6,129.6 102.6,129.6 51.3,0 80.1,-31.5 80.1,-93.6 V 9675 h 110.7 v 267.3 c 0,105.3 -53.1,162 -147.6,162"
         style="fill:#ffffff;fill-opacity:1;fill-rule:nonzero;stroke:none"
         id="path18" /><path
         d="m 4280.91,1213.48 v -175.99 c -0.15,-1.2 -0.6,-2.65 -0.6,-3.94 0,-1.53 0.45,-2.88 0.6,-4.18 1.91,-43.511 38.48,-78.218 83.56,-79.05 0.55,0 1.03,-0.32 1.67,-0.32 0.61,0 1.39,0.32 2.09,0.32 h 2124.65 c 0.55,0 1.18,-0.32 1.79,-0.32 0.64,0 1.27,0.32 1.88,0.32 46.44,0.832 83.5,37.512 83.8,82.61 0,0.18 0.31,0.33 0.31,0.62 0,0 -0.31,0.3 -0.31,0.62 v 199.14 c 1196.06,380.98 2092.05,1322.93 2289.12,2470.87 0.45,2.44 0.75,4.71 1.15,6.83 0.73,4.03 1.18,7.68 1.18,11.53 0,46.19 -38.3,83.49 -85.89,83.49 h -6731.09 -40.48 c -47.76,0 -86.14,-37.3 -86.14,-83.49 l 4.46,-37.51 C 2139.64,2526.17 3060.24,1578.96 4280.91,1213.48"
         style="fill:#ffffff;fill-opacity:1;fill-rule:nonzero;stroke:none"
         id="path20" /><path
         d="m 6578.39,6614.35 c -27.89,-38.57 -682.12,-953.81 14.62,-1693.88 319.53,-339.65 291.8,-639.35 200.58,-841.78 h 446.93 c 90.5,298.87 53.17,673.7 -309.69,1058.92 -513.36,545.35 6.57,1282.45 14.38,1293.83 61.31,84.08 28.46,192.5 -72.51,243.07 -101.4,50.28 -232.79,23.39 -294.31,-60.16"
         style="fill:#ffffff;fill-opacity:1;fill-rule:nonzero;stroke:none"
         id="path22" /><path
         d="m 5446.51,4078.69 h 447.09 c 90.37,298.96 52.83,673.62 -310,1058.92 -513.54,545.44 6.03,1282.16 14.23,1294.22 60.98,83.69 28.67,191.93 -72.69,242.68 -101,50.13 -232.61,23.47 -293.89,-60.16 -28.07,-38.43 -682.85,-953.81 14.53,-1693.88 319.54,-339.74 291.71,-639.52 200.73,-841.78"
         style="fill:#ffffff;fill-opacity:1;fill-rule:nonzero;stroke:none"
         id="path24" /><path
         d="m 3883.87,6614.35 c -28.31,-38.57 -682.54,-953.81 14.38,-1693.88 319.69,-339.83 292.01,-639.52 201.04,-841.78 h 446.93 c 90.35,298.72 52.99,673.56 -310.15,1058.92 -513.54,545.35 6.39,1282.45 14.6,1294.16 60.73,83.75 28.39,192.17 -73,242.74 -100.97,50.57 -232.52,23.53 -293.8,-60.16"
         style="fill:#ffffff;fill-opacity:1;fill-rule:nonzero;stroke:none"
         id="path26" /></g></g></svg>
