<?xml version="1.0" encoding="UTF-8" standalone="no"?>
<svg
   xmlns:dc="http://purl.org/dc/elements/1.1/"
   xmlns:cc="http://creativecommons.org/ns#"
   xmlns:rdf="http://www.w3.org/1999/02/22-rdf-syntax-ns#"
   xmlns:svg="http://www.w3.org/2000/svg"
   xmlns="http://www.w3.org/2000/svg"
   xmlns:sodipodi="http://sodipodi.sourceforge.net/DTD/sodipodi-0.dtd"
   xmlns:inkscape="http://www.inkscape.org/namespaces/inkscape"
   version="1.1"
   id="svg2"
   xml:space="preserve"
   width="1440"
   height="1440"
   viewBox="0 0 1440 1440"
   sodipodi:docname="17SDGs_V2_Text_Nobackground_rgb_3.eps"><metadata
     id="metadata8"><rdf:RDF><cc:Work
         rdf:about=""><dc:format>image/svg+xml</dc:format><dc:type
           rdf:resource="http://purl.org/dc/dcmitype/StillImage" /></cc:Work></rdf:RDF></metadata><defs
     id="defs6" /><sodipodi:namedview
     pagecolor="#ffffff"
     bordercolor="#666666"
     borderopacity="1"
     objecttolerance="10"
     gridtolerance="10"
     guidetolerance="10"
     inkscape:pageopacity="0"
     inkscape:pageshadow="2"
     inkscape:window-width="640"
     inkscape:window-height="480"
     id="namedview4" /><g
     id="g10"
     inkscape:groupmode="layer"
     inkscape:label="ink_ext_XXXXXX"
     transform="matrix(1.3333333,0,0,-1.3333333,0,1440)"><g
       id="g12"
       transform="scale(0.1)"><path
         d="m 1455.6,10320.2 c -332.72,0 -678.924,-98.9 -957.69,-269.7 l 224.809,-449.67 c 233.804,143.88 458.621,215.82 647.461,215.82 260.78,0 409.15,-121.4 409.15,-328.22 0,-256.29 -242.79,-395.67 -701.41,-395.67 v -490.09 c 615.98,0 863.28,-130.39 863.28,-467.61 0,-292.25 -206.83,-467.6 -566.53,-467.6 -233.8,0 -467.604,67.44 -714.897,206.82 L 466.438,7366.21 c 256.281,-134.89 593.502,-215.82 908.232,-215.82 705.91,0 1124.06,355.2 1124.06,944.21 0,395.66 -206.83,665.44 -580.01,764.35 -76.44,22.49 -148.38,31.48 -260.79,31.48 v 17.98 c 103.42,9 188.85,26.98 260.79,53.96 260.78,94.42 413.65,332.72 413.65,638.46 0,458.57 -319.23,719.37 -876.77,719.37"
         style="fill:#ffffff;fill-opacity:1;fill-rule:nonzero;stroke:none"
         id="path14" /><path
         d="m 3168.7,7868.7 84.6,179.1 c 17.1,36 23.4,49.5 27,72.9 h 3.6 c 3.6,-23.4 9.9,-36.9 27,-72.9 l 84.6,-179.1 h 29.7 l 183.6,422.1 H 3486.4 L 3427,8132.4 c -14.4,-38.7 -19.8,-52.2 -22.5,-78.3 h -3.6 c -3.6,26.1 -9.9,38.7 -28.8,79.2 l -76.5,164.7 h -27.9 l -75.6,-164.7 c -18.9,-40.5 -25.2,-53.1 -28.8,-79.2 h -3.6 c -3.6,26.1 -8.1,39.6 -22.5,78.3 l -60.3,158.4 H 2955.4 L 3139,7868.7 Z m 633.86,435.6 c -127.8,0 -215.1,-86.4 -215.1,-222.3 0,-135 90,-220.5 226.8,-220.5 68.4,0 124.2,22.5 173.7,67.5 l -50.4,79.2 c -35.1,-32.4 -75.6,-49.5 -123.3,-49.5 -65.7,0 -107.1,33.3 -117,95.4 l -3.6,9.9 1.8,2.7 c 11.7,-7.2 25.2,-9 52.2,-9 h 257.4 v 26.1 c 0,138.6 -76.5,220.5 -202.5,220.5 z m -3.6,-90 c 54.9,0 90.9,-31.5 94.5,-88.2 l -1.8,-1.8 c -7.2,6.3 -20.7,7.2 -51.3,7.2 h -98.1 c -18.9,0 -36.9,-2.7 -45,-8.1 l -1.8,1.8 c 7.2,55.8 46.8,89.1 103.5,89.1 z m 250.28,304.2 V 7875 h 109.8 v 643.5 z m 491.84,-643.5 59.4,97.2 h -148.5 c -50.4,0 -70.2,-2.7 -91.8,-16.2 l -1.8,2.7 244.8,328.5 -1.8,3.6 h -333.9 l -57.6,-97.2 h 135 c 42.3,0 57.6,3.6 81,17.1 l 2.7,-2.7 -250.2,-328.5 1.8,-4.5 z m 77.85,630 v -134.1 h 121.5 V 8505 Z m 5.4,-214.2 V 7875 h 109.8 v 415.8 z m 172.16,214.2 v -134.1 h 121.5 V 8505 Z m 5.4,-214.2 v -427.5 c 0,-48.6 -20.7,-77.4 -67.5,-77.4 h -8.1 v -104.4 h 9.9 c 108.9,0 175.5,53.1 175.5,178.2 v 431.1 z m 432.54,13.5 c -77.4,0 -124.21,-42.3 -151.2,-109.8 l -3.61,1.8 c 6.3,27.9 9.01,48.6 9.01,94.5 h -109.8 V 7875 h 109.8 v 199.8 c 0,87.3 39.6,129.6 102.59,129.6 51.31,0 80.11,-31.5 80.11,-93.6 V 7875 h 110.7 v 267.3 c 0,105.3 -53.1,162 -147.6,162"
         style="fill:#ffffff;fill-opacity:1;fill-rule:nonzero;stroke:none"
         id="path16" /><path
         d="m 3171.4,9204.3 c -115.2,0 -196.2,-89.1 -196.2,-221.4 0,-130.5 80.1,-216.9 195.3,-216.9 69.3,0 121.5,32.4 153.9,96.3 l 3.6,-0.9 c -5.4,-21.6 -7.2,-36.9 -7.2,-61.2 v -12.6 c 0,-64.8 -51.3,-102.6 -128.7,-102.6 -53.1,0 -96.3,13.5 -143.1,41.4 l -49.5,-94.5 c 53.1,-32.4 115.2,-50.4 197.1,-50.4 145.8,0 232.2,65.7 232.2,220.5 v 388.8 h -110.7 c 0,-43.2 2.7,-64.8 9.9,-86.4 l -3.6,-0.9 c -27.9,62.1 -78.3,100.8 -153,100.8 z m 29.7,-101.7 c 68.4,0 117.9,-48.6 117.9,-119.7 0,-71.1 -49.5,-119.7 -117.9,-119.7 -66.6,0 -110.7,45.9 -110.7,119.7 0,73.8 44.1,119.7 110.7,119.7 z m 485.64,101.7 c -127.8,0 -215.1,-86.4 -215.1,-222.3 0,-135 90,-220.5 226.8,-220.5 68.4,0 124.2,22.5 173.7,67.5 l -50.4,79.2 c -35.1,-32.4 -75.6,-49.5 -123.3,-49.5 -65.7,0 -107.1,33.3 -117,95.4 l -3.6,9.9 1.8,2.7 c 11.7,-7.2 25.2,-9 52.2,-9 h 257.4 v 26.1 c 0,138.6 -76.5,220.5 -202.5,220.5 z m -3.6,-90 c 54.9,0 90.9,-31.5 94.5,-88.2 l -1.8,-1.8 c -7.2,6.3 -20.7,7.2 -51.3,7.2 h -98.1 c -18.9,0 -36.9,-2.7 -45,-8.1 l -1.8,1.8 c 7.2,55.8 46.8,89.1 103.5,89.1 z m 553.04,-339.3 59.4,97.2 h -148.5 c -50.4,0 -70.2,-2.7 -91.8,-16.2 l -1.8,2.7 244.8,328.5 -1.8,3.6 h -333.9 l -57.6,-97.2 h 135 c 42.3,0 57.6,3.6 81,17.1 l 2.7,-2.7 -250.2,-328.5 1.8,-4.5 z m 287.28,429.3 c -133.2,0 -230.4,-91.8 -230.4,-221.4 0,-129.6 97.2,-221.4 230.4,-221.4 133.2,0 230.4,91.8 230.4,221.4 0,129.6 -97.2,221.4 -230.4,221.4 z m 0,-104.4 c 68.4,0 117,-45.9 117,-117 0,-71.1 -48.6,-117 -117,-117 -68.4,0 -117,45.9 -117,117 0,71.1 48.6,117 117,117 z m 528.56,104.4 c -77.4,0 -124.2,-42.3 -151.2,-109.8 l -3.6,1.8 c 6.3,27.9 9,48.6 9,94.5 h -109.8 V 8775 h 109.8 v 199.8 c 0,87.3 39.6,129.6 102.6,129.6 51.3,0 80.1,-31.5 80.1,-93.6 V 8775 h 110.7 v 267.3 c 0,105.3 -53.1,162 -147.6,162 z m 385.82,-442.8 c 72,0 126.9,36 153,100.8 l 3.6,-0.9 c -4.5,-23.4 -6.3,-50.4 -6.3,-86.4 h 107.1 v 643.5 h -109.8 v -210.6 c 0,-41.4 2.7,-80.1 9.9,-103.5 l -3.6,-0.9 c -28.8,65.7 -81.9,100.8 -153.9,100.8 -116.1,0 -196.2,-90.9 -196.2,-221.4 0,-132.3 80.1,-221.4 196.2,-221.4 z m 32.4,100.8 c -70.2,0 -113.4,45.9 -113.4,120.6 0,74.7 43.2,120.6 113.4,120.6 71.1,0 119.7,-48.6 119.7,-120.6 0,-72 -48.6,-120.6 -119.7,-120.6 z M 5763,9418.5 V 8775 h 109.8 v 199.8 c 0,87.3 40.5,129.6 102.6,129.6 51.3,0 80.1,-28.8 80.1,-93.6 V 8775 h 110.7 v 267.3 c 0,104.4 -55.8,162 -148.5,162 -74.7,0 -121.5,-38.7 -150.3,-104.4 l -3.6,0.9 c 6.3,34.2 9,61.2 9,108.9 v 208.8 z m 658.79,-214.2 c -127.8,0 -215.1,-86.4 -215.1,-222.3 0,-135 90,-220.5 226.8,-220.5 68.4,0 124.2,22.5 173.7,67.5 l -50.4,79.2 c -35.1,-32.4 -75.6,-49.5 -123.3,-49.5 -65.7,0 -107.1,33.3 -117,95.4 l -3.6,9.9 1.8,2.7 c 11.7,-7.2 25.2,-9 52.2,-9 h 257.4 v 26.1 c 0,138.6 -76.5,220.5 -202.5,220.5 z m -3.6,-90 c 54.9,0 90.9,-31.5 94.5,-88.2 l -1.8,-1.8 c -7.2,6.3 -20.7,7.2 -51.3,7.2 h -98.1 c -18.9,0 -36.9,-2.7 -45,-8.1 l -1.8,1.8 c 7.2,55.8 46.8,89.1 103.5,89.1 z m 242.09,290.7 v -134.1 h 121.5 V 9405 Z m 5.4,-214.2 V 8775 h 109.8 v 415.8 z m 347.66,-429.3 c 72,0 126.9,36 153,100.8 l 3.6,-0.9 c -4.5,-23.4 -6.3,-50.4 -6.3,-86.4 h 107.1 v 643.5 h -109.8 v -210.6 c 0,-41.4 2.7,-80.1 9.9,-103.5 l -3.6,-0.9 c -28.8,65.7 -81.9,100.8 -153.9,100.8 -116.1,0 -196.2,-90.9 -196.2,-221.4 0,-132.3 80.1,-221.4 196.2,-221.4 z m 32.4,100.8 c -70.2,0 -113.4,45.9 -113.4,120.6 0,74.7 43.2,120.6 113.4,120.6 71.1,0 119.7,-48.6 119.7,-120.6 0,-72 -48.6,-120.6 -119.7,-120.6 z m 737.08,342 c -127.8,0 -215.1,-86.4 -215.1,-222.3 0,-135 90,-220.5 226.8,-220.5 68.4,0 124.2,22.5 173.7,67.5 l -50.4,79.2 c -35.1,-32.4 -75.6,-49.5 -123.3,-49.5 -65.7,0 -107.1,33.3 -117,95.4 l -3.6,9.9 1.8,2.7 c 11.7,-7.2 25.2,-9 52.2,-9 h 257.4 v 26.1 c 0,138.6 -76.5,220.5 -202.5,220.5 z m -3.6,-90 c 54.9,0 90.9,-31.5 94.5,-88.2 l -1.8,-1.8 c -7.2,6.3 -20.7,7.2 -51.3,7.2 h -98.1 c -18.9,0 -36.9,-2.7 -45,-8.1 l -1.8,1.8 c 7.2,55.8 46.8,89.1 103.5,89.1 z m 504.98,90 c -77.4,0 -124.2,-42.3 -151.2,-109.8 l -3.6,1.8 c 6.3,27.9 9,48.6 9,94.5 H 8028.6 V 8775 h 109.8 v 199.8 c 0,87.3 39.6,129.6 102.6,129.6 51.3,0 80.1,-31.5 80.1,-93.6 V 8775 h 110.7 v 267.3 c 0,105.3 -53.1,162 -147.6,162"
         style="fill:#ffffff;fill-opacity:1;fill-rule:nonzero;stroke:none"
         id="path18" /><path
         d="m 3171.4,10104.3 c -115.2,0 -196.2,-89.1 -196.2,-221.4 0,-130.5 80.1,-216.9 195.3,-216.9 69.3,0 121.5,32.4 153.9,96.3 l 3.6,-0.9 c -5.4,-21.6 -7.2,-36.9 -7.2,-61.2 v -12.6 c 0,-64.8 -51.3,-102.6 -128.7,-102.6 -53.1,0 -96.3,13.5 -143.1,41.4 l -49.5,-94.5 c 53.1,-32.4 115.2,-50.4 197.1,-50.4 145.8,0 232.2,65.7 232.2,220.5 v 388.8 h -110.7 c 0,-43.2 2.7,-64.8 9.9,-86.4 l -3.6,-0.9 c -27.9,62.1 -78.3,100.8 -153,100.8 z m 29.7,-101.7 c 68.4,0 117.9,-48.6 117.9,-119.7 0,-71.1 -49.5,-119.7 -117.9,-119.7 -66.6,0 -110.7,45.9 -110.7,119.7 0,73.8 44.1,119.7 110.7,119.7 z m 499.41,101.7 c -133.2,0 -230.4,-91.8 -230.4,-221.4 0,-129.6 97.2,-221.4 230.4,-221.4 133.2,0 230.4,91.8 230.4,221.4 0,129.6 -97.2,221.4 -230.4,221.4 z m 0,-104.4 c 68.4,0 117,-45.9 117,-117 0,-71.1 -48.6,-117 -117,-117 -68.4,0 -117,45.9 -117,117 0,71.1 48.6,117 117,117 z m 464.21,104.4 c -127.8,0 -215.1,-86.4 -215.1,-222.3 0,-135 90,-220.5 226.8,-220.5 68.4,0 124.2,22.5 173.7,67.5 l -50.4,79.2 c -35.1,-32.4 -75.6,-49.5 -123.3,-49.5 -65.7,0 -107.1,33.3 -117,95.4 l -3.6,9.9 1.8,2.7 c 11.7,-7.2 25.2,-9 52.2,-9 h 257.4 v 26.1 c 0,138.6 -76.5,220.5 -202.5,220.5 z m -3.6,-90 c 54.9,0 90.9,-31.5 94.5,-88.2 l -1.8,-1.8 c -7.2,6.3 -20.7,7.2 -51.3,7.2 h -98.1 c -18.9,0 -36.9,-2.7 -45,-8.1 l -1.8,1.8 c 7.2,55.8 46.8,89.1 103.5,89.1 z m 422.36,-352.8 c 72,0 126.9,36 153,100.8 l 3.6,-0.9 c -4.5,-23.4 -6.3,-50.4 -6.3,-86.4 h 107.1 v 643.5 h -109.8 v -210.6 c 0,-41.4 2.7,-80.1 9.9,-103.5 l -3.6,-0.9 c -28.8,65.7 -81.9,100.8 -153.9,100.8 -116.1,0 -196.2,-90.9 -196.2,-221.4 0,-132.3 80.1,-221.4 196.2,-221.4 z m 32.4,100.8 c -70.2,0 -113.4,45.9 -113.4,120.6 0,74.7 43.2,120.6 113.4,120.6 71.1,0 119.7,-48.6 119.7,-120.6 0,-72 -48.6,-120.6 -119.7,-120.6 z m 484.19,342 c -127.8,0 -215.1,-86.4 -215.1,-222.3 0,-135 90,-220.5 226.8,-220.5 68.4,0 124.2,22.5 173.7,67.5 l -50.4,79.2 c -35.1,-32.4 -75.6,-49.5 -123.3,-49.5 -65.7,0 -107.1,33.3 -117,95.4 l -3.6,9.9 1.8,2.7 c 11.7,-7.2 25.2,-9 52.2,-9 h 257.4 v 26.1 c 0,138.6 -76.5,220.5 -202.5,220.5 z m -3.6,-90 c 54.9,0 90.9,-31.5 94.5,-88.2 l -1.8,-1.8 c -7.2,6.3 -20.7,7.2 -51.3,7.2 h -98.1 c -18.9,0 -36.9,-2.7 -45,-8.1 l -1.8,1.8 c 7.2,55.8 46.8,89.1 103.5,89.1"
         style="fill:#ffffff;fill-opacity:1;fill-rule:nonzero;stroke:none"
         id="path20" /><path
         d="m 9610.99,3646.11 c 0,343.42 -226.76,621.83 -570.23,621.83 -171.77,0 -378.93,-182.78 -491.44,-295.17 -112.51,112.56 -305.98,295.47 -477.79,295.47 -343.47,0 -584.22,-278.48 -584.22,-622 0,-171.73 69.63,-327.16 182.27,-439.78 v 0 l 880.49,-857.13 879.26,856.17 -0.68,0.63 c 112.68,112.56 182.34,268.15 182.34,439.98 v 0"
         style="fill:#ffffff;fill-opacity:1;fill-rule:nonzero;stroke:none"
         id="path22" /><path
         d="M 7580.09,6147.82 6000.67,1049.99 C 5982.23,990.32 5925.75,950 5862.31,950 v 0 c -2.95,0 -5.94,0.059 -8.96,0.262 -66.93,3.957 -122.22,52.208 -133.56,116.458 L 5272.56,3597.8 4595.06,2377.25 c -29.65,-53.49 -91.63,-82.27 -152.52,-71.64 -61.54,10.66 -108.95,58.37 -117.85,118.37 L 4037.08,4377.34 3510.91,3228.86 c -23.27,-50.65 -75.02,-83.32 -132.11,-83.32 H 1333.63 c -79.88,0 -144.6,62.9 -144.6,140.48 0,77.58 64.72,140.48 144.6,140.48 h 1951.24 l 692.14,1510.67 c 26.22,57.19 88.2,90.55 152.07,82 63.82,-8.67 114.04,-57.28 123.18,-119.25 l 296.54,-2014.15 668.1,1203.72 c 29.27,52.86 89.72,81.77 150.71,71.93 60.83,-9.66 108.65,-55.8 119.07,-114.87 l 414.15,-2344.17 1509.5,4872.31 c 17.21,55.48 67.68,95.04 127.07,99.56 59.61,4.29 115.81,-26.82 141.62,-79 l 794.3,-1600 c 34.67,-69.89 4.48,-153.87 -67.38,-187.57 -71.89,-33.72 -158.42,-4.39 -193.1,65.47"
         style="fill:#ffffff;fill-opacity:1;fill-rule:nonzero;stroke:none"
         id="path24" /></g></g></svg>
