<?xml version="1.0" encoding="UTF-8" standalone="no"?>
<svg
   xmlns:dc="http://purl.org/dc/elements/1.1/"
   xmlns:cc="http://creativecommons.org/ns#"
   xmlns:rdf="http://www.w3.org/1999/02/22-rdf-syntax-ns#"
   xmlns:svg="http://www.w3.org/2000/svg"
   xmlns="http://www.w3.org/2000/svg"
   xmlns:sodipodi="http://sodipodi.sourceforge.net/DTD/sodipodi-0.dtd"
   xmlns:inkscape="http://www.inkscape.org/namespaces/inkscape"
   version="1.1"
   id="svg2"
   xml:space="preserve"
   width="1440"
   height="1440"
   viewBox="0 0 1440 1440"
   sodipodi:docname="17SDGs_V2_Text_Nobackground_rgb_4.eps"><metadata
     id="metadata8"><rdf:RDF><cc:Work
         rdf:about=""><dc:format>image/svg+xml</dc:format><dc:type
           rdf:resource="http://purl.org/dc/dcmitype/StillImage" /></cc:Work></rdf:RDF></metadata><defs
     id="defs6" /><sodipodi:namedview
     pagecolor="#ffffff"
     bordercolor="#666666"
     borderopacity="1"
     objecttolerance="10"
     gridtolerance="10"
     guidetolerance="10"
     inkscape:pageopacity="0"
     inkscape:pageshadow="2"
     inkscape:window-width="640"
     inkscape:window-height="480"
     id="namedview4" /><g
     id="g10"
     inkscape:groupmode="layer"
     inkscape:label="ink_ext_XXXXXX"
     transform="matrix(1.3333333,0,0,-1.3333333,0,1440)"><g
       id="g12"
       transform="scale(0.1)"><path
         d="M 1944.22,10322.8 478.449,8272.51 V 7836.37 H 1836.31 c 58.45,0 80.93,9 98.92,17.99 l 8.99,-8.99 c -8.99,-17.99 -13.49,-62.95 -13.49,-116.91 v -440.63 h 526.06 v 440.63 c 0,53.96 -4.5,98.92 -17.99,116.91 l 9,8.99 c 22.48,-8.99 40.46,-17.99 103.41,-17.99 h 233.8 l 161.87,508.08 h -395.67 c -62.95,0 -80.93,-4.5 -103.41,-13.49 l -9,8.99 c 13.49,22.48 17.99,62.95 17.99,116.9 v 1865.95 z m 13.49,-674.45 c -17.99,-80.93 -26.98,-175.35 -26.98,-323.73 v -867.77 c 0,-53.95 0,-94.42 13.49,-116.9 l -8.99,-8.99 c -22.48,8.99 -40.47,13.49 -98.92,13.49 h -521.56 c -134.89,0 -224.81,-9 -283.26,-35.97 l -9,8.99 c 58.45,49.46 107.91,107.91 188.85,220.31 l 508.07,710.41 c 152.87,220.31 197.83,328.22 224.81,404.66 l 13.49,-4.5"
         style="fill:#ffffff;fill-opacity:1;fill-rule:nonzero;stroke:none"
         id="path14" /><path
         d="M 3033.1,10318.5 V 9675 h 109.8 v 120.6 c 0,37.8 -3.6,65.7 -10.8,86.4 l 2.7,1.8 170.1,-208.8 H 3448 l -167.4,193.5 c -18.9,18.9 -27.9,26.1 -37.8,29.7 v 3.6 c 9.9,3.6 21.6,10.8 43.2,34.2 l 144.9,154.8 h -137.7 l -158.4,-183.6 -2.7,0.9 c 7.2,21.6 10.8,51.3 10.8,90.9 v 319.5 z m 617.3,-649.8 84.6,179.1 c 17.1,36 23.4,49.5 27,72.9 h 3.6 c 3.6,-23.4 9.9,-36.9 27,-72.9 l 84.6,-179.1 h 29.7 l 183.6,422.1 h -122.4 l -59.4,-158.4 c -14.4,-38.7 -19.8,-52.2 -22.5,-78.3 h -3.6 c -3.6,26.1 -9.9,38.7 -28.8,79.2 l -76.5,164.7 h -27.9 l -75.6,-164.7 c -18.9,-40.5 -25.2,-53.1 -28.8,-79.2 h -3.6 c -3.6,26.1 -8.1,39.6 -22.5,78.3 l -60.3,158.4 h -121.5 l 183.6,-422.1 z m 628.19,435.6 c -47.7,0 -103.5,-7.2 -156.6,-20.7 l 21.6,-92.7 c 55.8,13.5 90.9,18 123.3,18 56.7,0 89.1,-23.4 91.8,-66.6 0,-23.4 1.8,-45 7.2,-61.2 l -3.6,-1.8 c -28.8,46.8 -77.4,72 -139.5,72 -90.9,0 -150.3,-55.8 -150.3,-144 0,-87.3 59.4,-145.8 148.5,-145.8 63.9,0 112.5,29.7 143.1,89.1 l 3.6,-1.8 c -9.9,-23.4 -13.5,-44.1 -13.5,-73.8 h 111.6 v 261.9 c 0,117.9 -55.8,167.4 -187.2,167.4 z m -13.5,-228.6 c 45,0 76.5,-26.1 76.5,-63.9 0,-37.8 -31.5,-64.8 -77.4,-64.8 -44.1,0 -73.8,25.2 -73.8,63.9 0,37.8 29.7,64.8 74.7,64.8 z m 265.59,442.8 V 9675 h 109.8 v 643.5 z m 171.26,-13.5 v -134.1 h 121.5 v 134.1 z m 5.4,-214.2 V 9675 h 109.8 v 415.8 z m 310.22,222.3 -101.7,-71.1 v -114.3 c 0,-15.3 0,-27.9 5.4,-42.3 l -2.7,-1.8 c -8.1,6.3 -18.9,7.2 -38.7,7.2 h -36 v -98.1 h 36 c 21.6,0 30.6,0.9 38.7,6.3 l 2.7,-1.8 c -5.4,-13.5 -5.4,-27 -5.4,-50.4 V 9675 h 110.7 v 271.8 c 0,23.4 0,36.9 -4.5,50.4 l 2.7,1.8 c 8.1,-5.4 17.1,-6.3 37.8,-6.3 h 44.1 v 98.1 h -44.1 c -18.9,0 -29.7,-0.9 -37.8,-7.2 l -2.7,1.8 c 4.5,14.4 4.5,27 4.5,42.3 v 185.4 z m 309.05,-208.8 c -127.8,0 -215.1,-86.4 -215.1,-222.3 0,-135 90,-220.5 226.8,-220.5 68.4,0 124.2,22.5 173.7,67.5 l -50.4,79.2 c -35.1,-32.4 -75.6,-49.5 -123.3,-49.5 -65.7,0 -107.1,33.3 -117,95.4 l -3.6,9.9 1.8,2.7 c 11.7,-7.2 25.2,-9 52.2,-9 h 257.4 v 26.1 c 0,138.6 -76.5,220.5 -202.5,220.5 z m -3.6,-90 c 54.9,0 90.9,-31.5 94.5,-88.2 l -1.8,-1.8 c -7.2,6.3 -20.7,7.2 -51.3,7.2 h -98.1 c -18.9,0 -36.9,-2.7 -45,-8.1 l -1.8,1.8 c 7.2,55.8 46.8,89.1 103.5,89.1 z m 242.09,290.7 v -134.1 h 121.5 v 134.1 z m 5.4,-214.2 V 9675 h 109.8 v 415.8 z m 310.23,222.3 -101.7,-71.1 v -114.3 c 0,-15.3 0,-27.9 5.4,-42.3 l -2.7,-1.8 c -8.1,6.3 -18.9,7.2 -38.7,7.2 h -36 v -98.1 h 36 c 21.6,0 30.6,0.9 38.7,6.3 l 2.7,-1.8 c -5.4,-13.5 -5.4,-27 -5.4,-50.4 V 9675 h 110.7 v 271.8 c 0,23.4 0,36.9 -4.5,50.4 l 2.7,1.8 c 8.1,-5.4 17.1,-6.3 37.8,-6.3 h 44.1 v 98.1 h -44.1 c -18.9,0 -29.7,-0.9 -37.8,-7.2 l -2.7,1.8 c 4.5,14.4 4.5,27 4.5,42.3 v 185.4 z m 257.21,-651.6 c 108,0 170.1,48.6 170.1,133.2 0,56.7 -27,91.8 -90,119.7 l -72.9,32.4 c -31.5,14.4 -41.4,23.4 -41.4,39.6 0,18 13.5,26.1 43.2,26.1 33.3,0 73.8,-9.9 115.2,-27.9 l 36.9,90 c -50.4,18.9 -100.8,29.7 -147.6,29.7 -100.8,0 -159.3,-45.9 -159.3,-124.2 0,-55.8 29.7,-97.2 92.7,-124.2 l 75.6,-34.2 c 27,-12.6 36,-21.6 36,-36 0,-20.7 -16.2,-30.6 -53.1,-30.6 -45,0 -90.9,13.5 -137.7,42.3 l -44.1,-91.8 c 50.4,-27.9 113.4,-44.1 176.4,-44.1 z m 412.47,442.8 c -133.2,0 -230.4,-91.8 -230.4,-221.4 0,-129.6 97.2,-221.4 230.4,-221.4 133.2,0 230.4,91.8 230.4,221.4 0,129.6 -97.2,221.4 -230.4,221.4 z m 0,-104.4 c 68.4,0 117,-45.9 117,-117 0,-71.1 -48.6,-117 -117,-117 -68.4,0 -117,45.9 -117,117 0,71.1 48.6,117 117,117 z m 528.56,104.4 c -77.4,0 -124.2,-42.3 -151.2,-109.8 l -3.6,1.8 c 6.3,27.9 9,48.6 9,94.5 h -109.8 V 9675 h 109.8 v 199.8 c 0,87.3 39.6,129.6 102.6,129.6 51.3,0 80.1,-31.5 80.1,-93.6 V 9675 h 110.7 v 267.3 c 0,105.3 -53.1,162 -147.6,162 z m 385.82,-442.8 c 72,0 126.9,36 153,100.8 l 3.6,-0.9 c -4.5,-23.4 -6.3,-50.4 -6.3,-86.4 h 107.1 v 643.5 h -109.8 v -210.6 c 0,-41.4 2.7,-80.1 9.9,-103.5 l -3.6,-0.9 c -28.8,65.7 -81.9,100.8 -153.9,100.8 -116.1,0 -196.2,-90.9 -196.2,-221.4 0,-132.3 80.1,-221.4 196.2,-221.4 z m 32.4,100.8 c -70.2,0 -113.4,45.9 -113.4,120.6 0,74.7 43.2,120.6 113.4,120.6 71.1,0 119.7,-48.6 119.7,-120.6 0,-72 -48.6,-120.6 -119.7,-120.6 z m 484.19,342 c -127.8,0 -215.1,-86.4 -215.1,-222.3 0,-135 90,-220.5 226.8,-220.5 68.4,0 124.2,22.5 173.7,67.5 l -50.4,79.2 c -35.1,-32.4 -75.6,-49.5 -123.3,-49.5 -65.7,0 -107.1,33.3 -117,95.4 l -3.6,9.9 1.8,2.7 c 11.7,-7.2 25.2,-9 52.2,-9 h 257.4 v 26.1 c 0,138.6 -76.5,220.5 -202.5,220.5 z m -3.6,-90 c 54.9,0 90.9,-31.5 94.5,-88.2 l -1.8,-1.8 c -7.2,6.3 -20.7,7.2 -51.3,7.2 h -98.1 c -18.9,0 -36.9,-2.7 -45,-8.1 l -1.8,1.8 c 7.2,55.8 46.8,89.1 103.5,89.1 z m 487.88,89.1 c -70.2,0 -117.9,-43.2 -139.5,-135.9 l -3.6,0.9 c 7.2,43.2 11.7,85.5 11.7,122.4 h -107.1 V 9675 h 109.8 v 176.4 c 0,93.6 42.3,135.9 117.9,135.9 9,0 16.2,0 34.2,-1.8 v 117 c -7.2,0.9 -14.4,0.9 -23.4,0.9 z m 239.13,-434.7 84.6,179.1 c 17.1,36 23.4,49.5 27,72.9 h 3.6 c 3.6,-23.4 9.9,-36.9 27,-72.9 l 84.6,-179.1 h 29.7 l 183.6,422.1 h -122.4 l -59.4,-158.4 c -14.4,-38.7 -19.8,-52.2 -22.5,-78.3 h -3.6 c -3.6,26.1 -9.9,38.7 -28.8,79.2 l -76.5,164.7 h -27.9 l -75.6,-164.7 c -18.9,-40.5 -25.2,-53.1 -28.8,-79.2 h -3.6 c -3.6,26.1 -8.1,39.6 -22.5,78.3 l -60.3,158.4 h -121.5 l 183.6,-422.1 z m 458.09,636.3 v -134.1 h 121.5 v 134.1 z m 5.4,-214.2 V 9675 h 109.8 v 415.8 z m 172.16,214.2 v -134.1 h 121.5 v 134.1 z m 5.4,-214.2 v -427.5 c 0,-48.6 -20.7,-77.4 -67.5,-77.4 h -8.1 v -104.4 h 9.9 c 108.9,0 175.5,53.1 175.5,178.2 v 431.1 z m 314.27,-429.3 c 108,0 170.1,48.6 170.1,133.2 0,56.7 -27,91.8 -90,119.7 l -72.9,32.4 c -31.5,14.4 -41.4,23.4 -41.4,39.6 0,18 13.5,26.1 43.2,26.1 33.3,0 73.8,-9.9 115.2,-27.9 l 36.9,90 c -50.4,18.9 -100.8,29.7 -147.6,29.7 -100.8,0 -159.3,-45.9 -159.3,-124.2 0,-55.8 29.7,-97.2 92.7,-124.2 l 75.6,-34.2 c 27,-12.6 36,-21.6 36,-36 0,-20.7 -16.2,-30.6 -53.1,-30.6 -45,0 -90.9,13.5 -137.7,42.3 l -44.1,-91.8 c 50.4,-27.9 113.4,-44.1 176.4,-44.1"
         style="fill:#ffffff;fill-opacity:1;fill-rule:nonzero;stroke:none"
         id="path16" /><path
         d="M 4599.81,5020.52 2273.71,6325.64 V 2103.6 l 2326.1,-681.96 v 3598.88"
         style="fill:#ffffff;fill-opacity:1;fill-rule:nonzero;stroke:none"
         id="path18" /><path
         d="M 4855.59,5011.87 V 1420.19 l 2341.2,683.94 V 6325.5 L 4855.59,5011.87"
         style="fill:#ffffff;fill-opacity:1;fill-rule:nonzero;stroke:none"
         id="path20" /><path
         d="m 9022.79,6432.5 c 0,147.82 -123.25,267.5 -275.01,267.5 -152.22,0 -275.33,-119.68 -275.33,-267.5 v -288.27 h 550.34 v 288.27 0"
         style="fill:#ffffff;fill-opacity:1;fill-rule:nonzero;stroke:none"
         id="path22" /><path
         d="m 8540.77,2178.49 h -68.32 l 275.33,-934.65 274.83,934.65 h -68.29 68.29 v 3756.36 h -68.29 -68.32 -72.41 -136.97 -67.53 -68.32 -68.47 V 2178.49 h 68.47"
         style="fill:#ffffff;fill-opacity:1;fill-rule:nonzero;stroke:none"
         id="path24" /><path
         d="m 7696.43,6144.32 -249.35,191.43 V 1989.14 L 4862.51,1177.6 h -119.62 -23.63 -119.45 L 2026.74,1876.09 V 6335.75 L 1777.23,6144.32 V 1706.05 L 4587.98,950 h 131.28 23.63 131.27 l 2593.22,800.04 229.05,65.47 v 4328.81"
         style="fill:#ffffff;fill-opacity:1;fill-rule:nonzero;stroke:none"
         id="path26" /></g></g></svg>
