<?xml version="1.0" encoding="UTF-8" standalone="no"?>
<svg
   xmlns:dc="http://purl.org/dc/elements/1.1/"
   xmlns:cc="http://creativecommons.org/ns#"
   xmlns:rdf="http://www.w3.org/1999/02/22-rdf-syntax-ns#"
   xmlns:svg="http://www.w3.org/2000/svg"
   xmlns="http://www.w3.org/2000/svg"
   xmlns:sodipodi="http://sodipodi.sourceforge.net/DTD/sodipodi-0.dtd"
   xmlns:inkscape="http://www.inkscape.org/namespaces/inkscape"
   version="1.1"
   id="svg2"
   xml:space="preserve"
   width="1440"
   height="1440"
   viewBox="0 0 1440 1440"
   sodipodi:docname="17SDGs_V2_Text_Nobackground_rgb_5.eps"><metadata
     id="metadata8"><rdf:RDF><cc:Work
         rdf:about=""><dc:format>image/svg+xml</dc:format><dc:type
           rdf:resource="http://purl.org/dc/dcmitype/StillImage" /></cc:Work></rdf:RDF></metadata><defs
     id="defs6" /><sodipodi:namedview
     pagecolor="#ffffff"
     bordercolor="#666666"
     borderopacity="1"
     objecttolerance="10"
     gridtolerance="10"
     guidetolerance="10"
     inkscape:pageopacity="0"
     inkscape:pageshadow="2"
     inkscape:window-width="640"
     inkscape:window-height="480"
     id="namedview4" /><g
     id="g10"
     inkscape:groupmode="layer"
     inkscape:label="ink_ext_XXXXXX"
     transform="matrix(1.3333333,0,0,-1.3333333,0,1440)"><g
       id="g12"
       transform="scale(0.1)"><path
         d="m 1303.82,10322.8 -458.621,-1546.72 17.989,-13.49 c 130.39,40.47 305.742,62.95 476.602,62.95 458.61,0 692.41,-179.85 692.41,-530.55 0,-346.21 -238.3,-562.03 -633.96,-562.03 -220.32,0 -445.131,62.95 -705.912,197.83 l -188.84,-494.58 c 265.278,-143.88 557.532,-215.82 881.262,-215.82 759.86,0 1213.98,404.66 1213.98,1083.59 0,593.5 -373.19,966.69 -962.19,966.69 -80.94,0 -134.89,-8.99 -184.35,-26.98 l -4.49,8.99 c 44.96,49.46 71.93,103.42 85.42,152.87 l 62.95,224.82 c 17.99,71.93 26.98,125.89 26.98,170.85 l 4.49,4.5 c 26.98,-8.99 71.94,-17.99 125.9,-17.99 h 728.39 l 202.33,535.07 H 1303.82"
         style="fill:#ffffff;fill-opacity:1;fill-rule:nonzero;stroke:none"
         id="path14" /><path
         d="m 3271.4,10104.3 c -115.2,0 -196.2,-89.1 -196.2,-221.4 0,-130.5 80.1,-216.9 195.3,-216.9 69.3,0 121.5,32.4 153.9,96.3 l 3.6,-0.9 c -5.4,-21.6 -7.2,-36.9 -7.2,-61.2 v -12.6 c 0,-64.8 -51.3,-102.6 -128.7,-102.6 -53.1,0 -96.3,13.5 -143.1,41.4 l -49.5,-94.5 c 53.1,-32.4 115.2,-50.4 197.1,-50.4 145.8,0 232.2,65.7 232.2,220.5 v 388.8 h -110.7 c 0,-43.2 2.7,-64.8 9.9,-86.4 l -3.6,-0.9 c -27.9,62.1 -78.3,100.8 -153,100.8 z m 29.7,-101.7 c 68.4,0 117.9,-48.6 117.9,-119.7 0,-71.1 -49.5,-119.7 -117.9,-119.7 -66.6,0 -110.7,45.9 -110.7,119.7 0,73.8 44.1,119.7 110.7,119.7 z m 485.64,101.7 c -127.8,0 -215.1,-86.4 -215.1,-222.3 0,-135 90,-220.5 226.8,-220.5 68.4,0 124.2,22.5 173.7,67.5 l -50.4,79.2 c -35.1,-32.4 -75.6,-49.5 -123.3,-49.5 -65.7,0 -107.1,33.3 -117,95.4 l -3.6,9.9 1.8,2.7 c 11.7,-7.2 25.2,-9 52.2,-9 h 257.4 v 26.1 c 0,138.6 -76.5,220.5 -202.5,220.5 z m -3.6,-90 c 54.9,0 90.9,-31.5 94.5,-88.2 l -1.8,-1.8 c -7.2,6.3 -20.7,7.2 -51.3,7.2 h -98.1 c -18.9,0 -36.9,-2.7 -45,-8.1 l -1.8,1.8 c 7.2,55.8 46.8,89.1 103.5,89.1 z m 504.98,90 c -77.4,0 -124.2,-42.3 -151.2,-109.8 l -3.6,1.8 c 6.3,27.9 9,48.6 9,94.5 h -109.8 V 9675 h 109.8 v 199.8 c 0,87.3 39.6,129.6 102.6,129.6 51.3,0 80.1,-31.5 80.1,-93.6 V 9675 h 110.7 v 267.3 c 0,105.3 -53.1,162 -147.6,162 z m 385.82,-442.8 c 72,0 126.9,36 153,100.8 l 3.6,-0.9 c -4.5,-23.4 -6.3,-50.4 -6.3,-86.4 h 107.1 v 643.5 h -109.8 v -210.6 c 0,-41.4 2.7,-80.1 9.9,-103.5 l -3.6,-0.9 c -28.8,65.7 -81.9,100.8 -153.9,100.8 -116.1,0 -196.2,-90.9 -196.2,-221.4 0,-132.3 80.1,-221.4 196.2,-221.4 z m 32.4,100.8 c -70.2,0 -113.4,45.9 -113.4,120.6 0,74.7 43.2,120.6 113.4,120.6 71.1,0 119.7,-48.6 119.7,-120.6 0,-72 -48.6,-120.6 -119.7,-120.6 z m 484.19,342 c -127.8,0 -215.1,-86.4 -215.1,-222.3 0,-135 90,-220.5 226.8,-220.5 68.4,0 124.2,22.5 173.7,67.5 l -50.4,79.2 c -35.1,-32.4 -75.6,-49.5 -123.3,-49.5 -65.7,0 -107.1,33.3 -117,95.4 l -3.6,9.9 1.8,2.7 c 11.7,-7.2 25.2,-9 52.2,-9 h 257.4 v 26.1 c 0,138.6 -76.5,220.5 -202.5,220.5 z m -3.6,-90 c 54.9,0 90.9,-31.5 94.5,-88.2 l -1.8,-1.8 c -7.2,6.3 -20.7,7.2 -51.3,7.2 h -98.1 c -18.9,0 -36.9,-2.7 -45,-8.1 l -1.8,1.8 c 7.2,55.8 46.8,89.1 103.5,89.1 z m 487.88,89.1 c -70.2,0 -117.9,-43.2 -139.5,-135.9 l -3.6,0.9 c 7.2,43.2 11.7,85.5 11.7,122.4 h -107.1 V 9675 h 109.8 v 176.4 c 0,93.6 42.3,135.9 117.9,135.9 9,0 16.2,0 34.2,-1.8 v 117 c -7.2,0.9 -14.4,0.9 -23.4,0.9 z m 223.55,0.9 c -115.2,0 -196.2,-89.1 -196.2,-221.4 0,-130.5 80.1,-216.9 195.3,-216.9 69.3,0 121.5,32.4 153.9,96.3 l 3.6,-0.9 c -5.4,-21.6 -7.2,-36.9 -7.2,-61.2 v -12.6 c 0,-64.8 -51.3,-102.6 -128.7,-102.6 -53.1,0 -96.3,13.5 -143.1,41.4 l -49.5,-94.5 c 53.1,-32.4 115.2,-50.4 197.1,-50.4 145.8,0 232.2,65.7 232.2,220.5 v 388.8 h -110.7 c 0,-43.2 2.7,-64.8 9.9,-86.4 l -3.6,-0.9 c -27.9,62.1 -78.3,100.8 -153,100.8 z m 29.7,-101.7 c 68.4,0 117.9,-48.6 117.9,-119.7 0,-71.1 -49.5,-119.7 -117.9,-119.7 -66.6,0 -110.7,45.9 -110.7,119.7 0,73.8 44.1,119.7 110.7,119.7 z m 485.64,101.7 c -127.8,0 -215.1,-86.4 -215.1,-222.3 0,-135 90,-220.5 226.8,-220.5 68.4,0 124.2,22.5 173.7,67.5 l -50.4,79.2 c -35.1,-32.4 -75.6,-49.5 -123.3,-49.5 -65.7,0 -107.1,33.3 -117,95.4 l -3.6,9.9 1.8,2.7 c 11.7,-7.2 25.2,-9 52.2,-9 h 257.4 v 26.1 c 0,138.6 -76.5,220.5 -202.5,220.5 z m -3.6,-90 c 54.9,0 90.9,-31.5 94.5,-88.2 l -1.8,-1.8 c -7.2,6.3 -20.7,7.2 -51.3,7.2 h -98.1 c -18.9,0 -36.9,-2.7 -45,-8.1 l -1.8,1.8 c 7.2,55.8 46.8,89.1 103.5,89.1 z m 250.28,304.2 V 9675 h 109.8 v 643.5 z m 171.26,-13.5 v -134.1 h 121.5 v 134.1 z m 5.4,-214.2 V 9675 h 109.8 v 415.8 z m 172.16,214.2 v -134.1 h 121.5 v 134.1 z m 5.4,-214.2 v -427.5 c 0,-48.6 -20.7,-77.4 -67.5,-77.4 h -8.1 v -104.4 h 9.9 c 108.9,0 175.5,53.1 175.5,178.2 v 431.1 z m 176.94,227.7 V 9675 h 109.8 v 120.6 c 0,37.8 -3.61,65.7 -10.8,86.4 l 2.7,1.8 170.09,-208.8 h 143.11 l -167.4,193.5 c -18.9,18.9 -27.9,26.1 -37.8,29.7 v 3.6 c 9.9,3.6 21.6,10.8 43.2,34.2 l 144.9,154.8 h -137.7 l -158.4,-183.6 -2.7,0.9 c 7.19,21.6 10.8,51.3 10.8,90.9 v 319.5 z m 434.87,0 V 9675 h 109.8 v 199.8 c 0,87.3 40.5,129.6 102.59,129.6 51.3,0 80.11,-28.8 80.11,-93.6 V 9675 h 110.7 v 267.3 c 0,104.4 -55.8,162 -148.5,162 -74.7,0 -121.5,-38.7 -150.3,-104.4 l -3.6,0.9 c 6.3,34.2 9,61.2 9,108.9 v 208.8 z m 658.79,-214.2 c -127.8,0 -215.1,-86.4 -215.1,-222.3 0,-135 90,-220.5 226.8,-220.5 68.4,0 124.2,22.5 173.7,67.5 l -50.4,79.2 c -35.1,-32.4 -75.6,-49.5 -123.3,-49.5 -65.7,0 -107.1,33.3 -117,95.4 l -3.6,9.9 1.8,2.7 c 11.7,-7.2 25.2,-9 52.2,-9 h 257.4 v 26.1 c 0,138.6 -76.5,220.5 -202.5,220.5 z m -3.6,-90 c 54.9,0 90.9,-31.5 94.5,-88.2 l -1.8,-1.8 c -7.2,6.3 -20.7,7.2 -51.3,7.2 h -98.1 c -18.9,0 -36.9,-2.7 -45,-8.1 l -1.8,1.8 c 7.2,55.8 46.8,89.1 103.5,89.1 z m 242.09,290.7 v -134.1 h 121.5 v 134.1 z m 5.4,-214.2 V 9675 h 109.8 v 415.8 z m 347.66,-429.3 c 72,0 126.9,36 153,100.8 l 3.6,-0.9 c -4.5,-23.4 -6.3,-50.4 -6.3,-86.4 h 107.1 v 643.5 h -109.8 v -210.6 c 0,-41.4 2.7,-80.1 9.9,-103.5 l -3.6,-0.9 c -28.8,65.7 -81.9,100.8 -153.9,100.8 -116.1,0 -196.2,-90.9 -196.2,-221.4 0,-132.3 80.1,-221.4 196.2,-221.4 z m 32.4,100.8 c -70.2,0 -113.4,45.9 -113.4,120.6 0,74.7 43.2,120.6 113.4,120.6 71.1,0 119.7,-48.6 119.7,-120.6 0,-72 -48.6,-120.6 -119.7,-120.6"
         style="fill:#ffffff;fill-opacity:1;fill-rule:nonzero;stroke:none"
         id="path16" /><path
         d="m 5023.44,2948.36 c -734.53,0 -1331.96,580.73 -1331.96,1294.39 0,713.77 597.43,1294.42 1331.96,1294.42 734.6,0 1332.16,-580.65 1332.16,-1294.42 0,-713.66 -597.56,-1294.39 -1332.16,-1294.39 M 7581.69,6700 H 6199.95 c -9.46,0 -17.53,-7.59 -17.53,-17.12 v -446.16 c 0,-9.58 8.07,-17.17 17.53,-17.17 h 550.21 l -610.91,-593.78 c -307.75,234.94 -694.94,375.55 -1115.81,375.55 -997.77,0 -1809.75,-788.88 -1809.75,-1758.57 0,-892.79 688.38,-1631.6 1576.17,-1743.38 v -514.09 h -545.01 c -10.11,0 -17.8,-7.62 -17.8,-16.99 v -478.22 c 0,-9.5 7.69,-17.09 17.8,-17.09 h 545.01 V 967.039 c 0,-9.449 7.84,-17.039 17.56,-17.039 h 491.9 c 9.78,0 17.8,7.59 17.8,17.039 v 505.941 h 544.96 c 9.72,0 17.53,7.59 17.53,17.09 v 478.22 c 0,9.37 -7.81,16.99 -17.53,16.99 h -544.96 v 522.45 c 858.69,136.87 1516.01,862.54 1516.01,1735.02 0,376.39 -122.58,725.2 -330.53,1011.48 l 602.24,585.28 v -499.37 c 0,-9.45 8.08,-17.04 17.8,-17.04 h 459.05 c 9.86,0 17.96,7.59 17.96,17.04 v 1342.74 c 0,9.53 -8.1,17.12 -17.96,17.12"
         style="fill:#ffffff;fill-opacity:1;fill-rule:nonzero;stroke:none"
         id="path18" /><path
         d="M 5837.12,4774.06 H 4221.38 c -9.72,0 -17.53,-6.98 -17.53,-15.28 v -380.1 c 0,-8.91 7.81,-15.59 17.53,-15.59 h 1615.74 c 10.04,0 17.88,6.68 17.88,15.59 v 380.1 c 0,8.3 -7.84,15.28 -17.88,15.28"
         style="fill:#ffffff;fill-opacity:1;fill-rule:nonzero;stroke:none"
         id="path20" /><path
         d="M 5837.12,4095.42 H 4221.38 c -9.72,0 -17.53,-7.19 -17.53,-15.85 V 3699.5 c 0,-8.53 7.81,-15.33 17.53,-15.33 h 1615.74 c 10.04,0 17.88,6.8 17.88,15.33 v 380.07 c 0,8.66 -7.84,15.85 -17.88,15.85"
         style="fill:#ffffff;fill-opacity:1;fill-rule:nonzero;stroke:none"
         id="path22" /></g></g></svg>
