<svg xmlns="http://www.w3.org/2000/svg" height="1440" width="1440" xml:space="preserve"><path style="fill:#fff;fill-opacity:1;fill-rule:nonzero;stroke:none" d="m1584.99 10311.8-548.54-678.95c-386.677-481.1-544.044-858.78-544.044-1312.9 0-669.94 445.125-1119.56 1106.074-1119.56 651.95 0 1106.07 436.13 1106.07 1056.61 0 606.99-382.18 1029.64-935.22 1029.64-269.77 0-472.1-134.89-624.97-413.66l-17.99 4.5c67.45 179.85 170.86 337.22 323.73 512.57l818.31 921.75zm8.99-1528.74c332.72 0 544.04-202.33 544.04-521.56 0-337.22-211.32-553.04-544.04-553.04-328.22 0-544.04 206.83-544.04 526.06 0 337.22 215.82 548.54 544.04 548.54M3129 8761.5c108 0 170.1 48.6 170.1 133.2 0 56.7-27 91.8-90 119.7l-72.9 32.4c-31.5 14.4-41.4 23.4-41.4 39.6 0 18 13.5 26.1 43.2 26.1 33.3 0 73.8-9.9 115.2-27.9l36.9 90c-50.4 18.9-100.8 29.7-147.6 29.7-100.8 0-159.3-45.9-159.3-124.2 0-55.8 29.7-97.2 92.7-124.2l75.6-34.2c27-12.6 36-21.6 36-36 0-20.7-16.2-30.6-53.1-30.6-45 0-90.9 13.5-137.7 42.3l-44.1-91.8c50.4-27.9 113.4-44.1 176.4-44.1zm389.97 442.8c-47.7 0-103.5-7.2-156.6-20.7l21.6-92.7c55.8 13.5 90.9 18 123.3 18 56.7 0 89.1-23.4 91.8-66.6 0-23.4 1.8-45 7.2-61.2l-3.6-1.8c-28.8 46.8-77.4 72-139.5 72-90.9 0-150.3-55.8-150.3-144 0-87.3 59.4-145.8 148.5-145.8 63.9 0 112.5 29.7 143.1 89.1l3.6-1.8c-9.9-23.4-13.5-44.1-13.5-73.8h111.6v261.9c0 117.9-55.8 167.4-187.2 167.4zm-13.5-228.6c45 0 76.5-26.1 76.5-63.9s-31.5-64.8-77.4-64.8c-44.1 0-73.8 25.2-73.8 63.9 0 37.8 29.7 64.8 74.7 64.8zm521.18 228.6c-77.4 0-124.2-42.3-151.2-109.8l-3.6 1.8c6.3 27.9 9 48.6 9 94.5h-109.8V8775h109.8v199.8c0 87.3 39.6 129.6 102.6 129.6 51.3 0 80.1-31.5 80.1-93.6V8775h110.7v267.3c0 105.3-53.1 162-147.6 162zm206.99 200.7v-134.1h121.5V9405zm5.4-214.2V8775h109.8v415.8zm310.22 222.3-101.7-71.1v-114.3c0-15.3 0-27.9 5.4-42.3l-2.7-1.8c-8.1 6.3-18.9 7.2-38.7 7.2h-36v-98.1h36c21.6 0 30.6.9 38.7 6.3l2.7-1.8c-5.4-13.5-5.4-27-5.4-50.4V8775h110.7v271.8c0 23.4 0 36.9-4.5 50.4l2.7 1.8c8.1-5.4 17.1-6.3 37.8-6.3h44.1v98.1h-44.1c-18.9 0-29.7-.9-37.8-7.2l-2.7 1.8c4.5 14.4 4.5 27 4.5 42.3v185.4zm280.98-208.8c-47.7 0-103.5-7.2-156.6-20.7l21.6-92.7c55.8 13.5 90.9 18 123.3 18 56.7 0 89.1-23.4 91.8-66.6 0-23.4 1.8-45 7.2-61.2l-3.6-1.8c-28.8 46.8-77.4 72-139.5 72-90.9 0-150.3-55.8-150.3-144 0-87.3 59.4-145.8 148.5-145.8 63.9 0 112.5 29.7 143.1 89.1l3.6-1.8c-9.9-23.4-13.5-44.1-13.5-73.8h111.6v261.9c0 117.9-55.8 167.4-187.2 167.4zm-13.5-228.6c45 0 76.5-26.1 76.5-63.9s-31.5-64.8-77.4-64.8c-44.1 0-73.8 25.2-73.8 63.9 0 37.8 29.7 64.8 74.7 64.8zm258.65 429.3v-134.1h121.5V9405zm5.4-214.2V8775h109.8v415.8zm415.43 12.6c-70.2 0-117.9-43.2-139.5-135.9l-3.6.9c7.2 43.2 11.7 85.5 11.7 122.4h-107.1V8775h109.8v176.4c0 93.6 42.3 135.9 117.9 135.9 9 0 16.2 0 34.2-1.8v117c-7.2.9-14.4.9-23.4.9M3129 9661.5c108 0 170.1 48.6 170.1 133.2 0 56.7-27 91.8-90 119.7l-72.9 32.4c-31.5 14.4-41.4 23.4-41.4 39.6 0 18 13.5 26.1 43.2 26.1 33.3 0 73.8-9.9 115.2-27.9l36.9 90c-50.4 18.9-100.8 29.7-147.6 29.7-100.8 0-159.3-45.9-159.3-124.2 0-55.8 29.7-97.2 92.7-124.2l75.6-34.2c27-12.6 36-21.6 36-36 0-20.7-16.2-30.6-53.1-30.6-45 0-90.9 13.5-137.7 42.3l-44.1-91.8c50.4-27.9 113.4-44.1 176.4-44.1zm412.02 0c54 0 100.8 13.5 145.8 41.4l-47.7 90.9c-29.7-19.8-62.1-28.8-96.3-28.8-69.3 0-117.9 48.6-117.9 117.9 0 69.3 48.6 117.9 117.9 117.9 34.2 0 66.6-9 96.3-28.8l47.7 90.9c-45 27.9-91.8 41.4-145.8 41.4-135.9 0-229.5-90-229.5-221.4s93.6-221.4 229.5-221.4zm177.56 657V9675h109.8v199.8c0 87.3 40.5 129.6 102.6 129.6 51.3 0 80.1-28.8 80.1-93.6V9675h110.7v267.3c0 104.4-55.8 162-148.5 162-74.7 0-121.5-38.7-150.3-104.4l-3.6.9c6.3 34.2 9 61.2 9 108.9v208.8zm672.47-214.2c-133.2 0-230.4-91.8-230.4-221.4 0-129.6 97.2-221.4 230.4-221.4s230.4 91.8 230.4 221.4c0 129.6-97.2 221.4-230.4 221.4zm0-104.4c68.4 0 117-45.9 117-117s-48.6-117-117-117-117 45.9-117 117 48.6 117 117 117zm479.51 104.4c-133.2 0-230.4-91.8-230.4-221.4 0-129.6 97.2-221.4 230.4-221.4s230.4 91.8 230.4 221.4c0 129.6-97.2 221.4-230.4 221.4zm0-104.4c68.4 0 117-45.9 117-117s-48.6-117-117-117-117 45.9-117 117 48.6 117 117 117zm528.57 104.4c-77.4 0-124.2-42.3-151.2-109.8l-3.6 1.8c6.3 27.9 9 48.6 9 94.5h-109.8V9675h109.8v199.8c0 87.3 39.6 129.6 102.6 129.6 51.3 0 80.1-31.5 80.1-93.6V9675h110.7v267.3c0 105.3-53.1 162-147.6 162zm633.58-435.6 84.6 179.1c17.1 36 23.4 49.5 27 72.9h3.6c3.6-23.4 9.9-36.9 27-72.9l84.6-179.1h29.7l183.6 422.1h-122.4l-59.4-158.4c-14.4-38.7-19.8-52.2-22.5-78.3h-3.6c-3.6 26.1-9.9 38.7-28.8 79.2l-76.5 164.7h-27.9l-75.6-164.7c-18.9-40.5-25.2-53.1-28.8-79.2h-3.6c-3.6 26.1-8.1 39.6-22.5 78.3l-60.3 158.4h-121.5l183.6-422.1zm628.19 435.6c-47.7 0-103.5-7.2-156.6-20.7l21.6-92.7c55.8 13.5 90.9 18 123.3 18 56.7 0 89.1-23.4 91.8-66.6 0-23.4 1.8-45 7.2-61.2l-3.6-1.8c-28.8 46.8-77.4 72-139.5 72-90.9 0-150.3-55.8-150.3-144 0-87.3 59.4-145.8 148.5-145.8 63.9 0 112.5 29.7 143.1 89.1l3.6-1.8c-9.9-23.4-13.5-44.1-13.5-73.8h111.6v261.9c0 117.9-55.8 167.4-187.2 167.4zm-13.5-228.6c45 0 76.5-26.1 76.5-63.9s-31.5-64.8-77.4-64.8c-44.1 0-73.8 25.2-73.8 63.9 0 37.8 29.7 64.8 74.7 64.8zm398.15 437.4-101.7-71.1v-114.3c0-15.3 0-27.9 5.4-42.3l-2.7-1.8c-8.1 6.3-18.9 7.2-38.7 7.2h-36v-98.1h36c21.6 0 30.6.9 38.7 6.3l2.7-1.8c-5.4-13.5-5.4-27-5.4-50.4V9675h110.7v271.8c0 23.4 0 36.9-4.5 50.4l2.7 1.8c8.1-5.4 17.1-6.3 37.8-6.3h44.1v98.1h-44.1c-18.9 0-29.7-.9-37.8-7.2l-2.7 1.8c4.5 14.4 4.5 27 4.5 42.3v185.4zm309.06-208.8c-127.8 0-215.1-86.4-215.1-222.3 0-135 90-220.5 226.8-220.5 68.4 0 124.2 22.5 173.7 67.5l-50.4 79.2c-35.1-32.4-75.6-49.5-123.3-49.5-65.7 0-107.1 33.3-117 95.4l-3.6 9.9 1.8 2.7c11.7-7.2 25.2-9 52.2-9h257.4v26.1c0 138.6-76.5 220.5-202.5 220.5zm-3.6-90c54.9 0 90.9-31.5 94.5-88.2l-1.8-1.8c-7.2 6.3-20.7 7.2-51.3 7.2h-98.1c-18.9 0-36.9-2.7-45-8.1l-1.8 1.8c7.2 55.8 46.8 89.1 103.5 89.1zm487.88 89.1c-70.2 0-117.9-43.2-139.5-135.9l-3.6.9c7.2 43.2 11.7 85.5 11.7 122.4h-107.1V9675h109.8v176.4c0 93.6 42.3 135.9 117.9 135.9 9 0 16.2 0 34.2-1.8v117c-7.2.9-14.4.9-23.4.9zm492.28.9c-127.8 0-215.1-86.4-215.1-222.3 0-135 90-220.5 226.8-220.5 68.4 0 124.2 22.5 173.7 67.5l-50.4 79.2c-35.1-32.4-75.6-49.5-123.3-49.5-65.7 0-107.1 33.3-117 95.4l-3.6 9.9 1.8 2.7c11.7-7.2 25.2-9 52.2-9h257.4v26.1c0 138.6-76.5 220.5-202.5 220.5zm-3.6-90c54.9 0 90.9-31.5 94.5-88.2l-1.8-1.8c-7.2 6.3-20.7 7.2-51.3 7.2h-98.1c-18.9 0-36.9-2.7-45-8.1l-1.8 1.8c7.2 55.8 46.8 89.1 103.5 89.1zm504.98 90c-77.4 0-124.2-42.3-151.2-109.8l-3.6 1.8c6.3 27.9 9 48.6 9 94.5h-109.8V9675h109.8v199.8c0 87.3 39.6 129.6 102.6 129.6 51.3 0 80.1-31.5 80.1-93.6V9675h110.7v267.3c0 105.3-53.1 162-147.6 162M7249.47 5810.04c-114 48.81-258.52 31.22-397.27-23.41-521.93-205.55-877.09-279.49-1426.05-112.47-345.66 105.16-669.12 325.39-1051.43 191.28-253.73-88.69-490.13-173.3-776.99-171.12l-165.7 825.39h3936.54l-119.1-709.67zM5915.15 3358.97s-191.1-190.8-501.92-170.12c-311.56-20.68-502.47 170.12-502.47 170.12-315.13 305.92-202.71 686.52-93.01 883.17 67.77 123.2 551.9 829.74 593.57 889.83v4.74s.71-.9 1.91-2.28l1.66 2.28v-4.74c40.53-60.09 525.47-766.63 593.22-889.83 109.83-196.65 221.9-577.25-92.96-883.17zm1625.66 3324.88c-9.84 10.38-23.06 16.15-38.05 16.15H3296.52c-14.58 0-27.93-5.77-37.8-16.15-9.21-11.42-12.86-25.51-10.54-38.67l706.67-4153.13c3.9-22.96 24.59-40.04 48.49-40.04h867.33l59.3-676.43-364.94-.4L5414.26 950l851.29 827.06-364.9-.37 59.25 675.32h882.6c24.34 0 44.67 17.08 48.26 40.76l661.17 4152.41c2.26 14.25-2.04 27.89-11.12 38.67" transform="matrix(.13333 0 0 -.13333 0 1440)"/></svg>