<svg xmlns="http://www.w3.org/2000/svg" height="1440" width="1440" xml:space="preserve"><path style="fill:#fff;fill-opacity:1;fill-rule:nonzero;stroke:none" d="m709.309 10322.8-215.821-530.57h903.742c211.32 0 328.22 17.98 400.16 49.46l9-8.99c-53.96-67.45-103.42-202.33-229.31-476.6L637.367 7287.83h606.993l1308.4 3021.47-4.5 13.5H709.309M3261.4 8761.5c72 0 126.9 36 153 100.8l3.6-.9c-4.5-23.4-6.3-50.4-6.3-86.4h107.1v643.5H3409v-210.6c0-41.4 2.7-80.1 9.9-103.5l-3.6-.9c-28.8 65.7-81.9 100.8-153.9 100.8-116.1 0-196.2-90.9-196.2-221.4 0-132.3 80.1-221.4 196.2-221.4zm32.4 100.8c-70.2 0-113.4 45.9-113.4 120.6 0 74.7 43.2 120.6 113.4 120.6 71.1 0 119.7-48.6 119.7-120.6s-48.6-120.6-119.7-120.6zm571.31 328.5v-202.5c0-83.7-36-124.2-89.1-124.2-50.4 0-80.1 30.6-80.1 95.4v231.3h-113.4v-259.2c0-110.7 59.4-170.1 147.6-170.1 72.9 0 117 36.9 144.9 108.9l4.5-.9c-8.1-28.8-12.6-60.3-12.6-94.5h108.9v415.8zm455.84 0v-202.5c0-83.7-36-124.2-89.1-124.2-50.4 0-80.1 30.6-80.1 95.4v231.3h-113.4v-259.2c0-110.7 59.4-170.1 147.6-170.1 72.9 0 117 36.9 144.9 108.9l4.5-.9c-8.1-28.8-12.6-60.3-12.6-94.5h108.9v415.8zm415.79 12.6c-70.2 0-117.9-43.2-139.5-135.9l-3.6.9c7.2 43.2 11.7 85.5 11.7 122.4h-107.1V8775h109.8v176.4c0 93.6 42.3 135.9 117.9 135.9 9 0 16.2 0 34.2-1.8v117c-7.2.9-14.4.9-23.4.9zm369.27-428.4 59.4 97.2h-148.5c-50.4 0-70.2-2.7-91.8-16.2l-1.8 2.7 244.8 328.5-1.8 3.6h-333.9l-57.6-97.2h135c42.3 0 57.6 3.6 81 17.1l2.7-2.7-250.2-328.5 1.8-4.5zm272.78 429.3c-47.7 0-103.5-7.2-156.6-20.7l21.6-92.7c55.8 13.5 90.9 18 123.3 18 56.7 0 89.1-23.4 91.8-66.6 0-23.4 1.8-45 7.2-61.2l-3.6-1.8c-28.8 46.8-77.4 72-139.5 72-90.9 0-150.3-55.8-150.3-144 0-87.3 59.4-145.8 148.5-145.8 63.9 0 112.5 29.7 143.1 89.1l3.6-1.8c-9.9-23.4-13.5-44.1-13.5-73.8h111.6v261.9c0 117.9-55.8 167.4-187.2 167.4zm-13.5-228.6c45 0 76.5-26.1 76.5-63.9s-31.5-64.8-77.4-64.8c-44.1 0-73.8 25.2-73.8 63.9 0 37.8 29.7 64.8 74.7 64.8zm375.39-200.7v205.2c0 87.3 33.3 123.3 86.4 123.3 49.5 0 76.5-27 76.5-95.4V8775h107.1v205.2c0 87.3 32.4 123.3 86.4 123.3 49.5 0 75.6-27 75.6-96.3V8775h110.7v268.2c0 107.1-53.1 161.1-139.5 161.1-73.8 0-120.6-41.4-140.4-100.8h-3.6c-16.2 64.8-55.8 100.8-126.9 100.8-71.1 0-112.5-32.4-139.5-102.6l-3.6 1.8c7.2 28.8 9.9 55.8 9.9 87.3h-108.9V8775zm799.29 429.3c-127.81 0-215.1-86.4-215.1-222.3 0-135 90-220.5 226.8-220.5 68.4 0 124.19 22.5 173.69 67.5l-50.39 79.2c-35.1-32.4-75.6-49.5-123.3-49.5-65.71 0-107.11 33.3-117.01 95.4l-3.59 9.9 1.79 2.7c11.7-7.2 25.21-9 52.21-9h257.4v26.1c0 138.6-76.51 220.5-202.5 220.5zm-3.6-90c54.9 0 90.9-31.5 94.49-88.2l-1.8-1.8c-7.19 6.3-20.7 7.2-51.3 7.2h-98.1c-18.89 0-36.9-2.7-45-8.1l-1.8 1.8c7.21 55.8 46.8 89.1 103.51 89.1zm688.48 90c-127.8 0-215.1-86.4-215.1-222.3 0-135 90-220.5 226.8-220.5 68.4 0 124.2 22.5 173.7 67.5l-50.4 79.2c-35.1-32.4-75.6-49.5-123.3-49.5-65.7 0-107.1 33.3-117 95.4l-3.6 9.9 1.8 2.7c11.7-7.2 25.2-9 52.2-9h257.4v26.1c0 138.6-76.5 220.5-202.5 220.5zm-3.6-90c54.9 0 90.9-31.5 94.5-88.2l-1.8-1.8c-7.2 6.3-20.7 7.2-51.3 7.2h-98.1c-18.9 0-36.9-2.7-45-8.1l-1.8 1.8c7.2 55.8 46.8 89.1 103.5 89.1zm504.98 90c-77.4 0-124.2-42.3-151.2-109.8l-3.6 1.8c6.3 27.9 9 48.6 9 94.5h-109.8V8775h109.8v199.8c0 87.3 39.6 129.6 102.6 129.6 51.3 0 80.1-31.5 80.1-93.6V8775h110.7v267.3c0 105.3-53.1 162-147.6 162zm403.19 0c-127.8 0-215.1-86.4-215.1-222.3 0-135 90-220.5 226.8-220.5 68.4 0 124.2 22.5 173.7 67.5l-50.4 79.2c-35.1-32.4-75.6-49.5-123.3-49.5-65.7 0-107.1 33.3-117 95.4l-3.6 9.9 1.8 2.7c11.7-7.2 25.2-9 52.2-9h257.4v26.1c0 138.6-76.5 220.5-202.5 220.5zm-3.6-90c54.9 0 90.9-31.5 94.5-88.2l-1.8-1.8c-7.2 6.3-20.7 7.2-51.3 7.2h-98.1c-18.9 0-36.9-2.7-45-8.1l-1.8 1.8c7.2 55.8 46.8 89.1 103.5 89.1zm487.88 89.1c-70.2 0-117.9-43.2-139.5-135.9l-3.6.9c7.2 43.2 11.7 85.5 11.7 122.4h-107.1V8775H8485v176.4c0 93.6 42.3 135.9 117.9 135.9 9 0 16.2 0 34.2-1.8v117c-7.2.9-14.4.9-23.4.9zm223.55.9c-115.2 0-196.2-89.1-196.2-221.4 0-130.5 80.1-216.9 195.3-216.9 69.3 0 121.5 32.4 153.9 96.3l3.6-.9c-5.4-21.6-7.2-36.9-7.2-61.2v-12.6c0-64.8-51.3-102.6-128.7-102.6-53.1 0-96.3 13.5-143.1 41.4l-49.5-94.5c53.1-32.4 115.2-50.4 197.1-50.4 145.8 0 232.2 65.7 232.2 220.5v388.8h-110.7c0-43.2 2.7-64.8 9.9-86.4l-3.6-.9c-27.9 62.1-78.3 100.8-153 100.8zm29.7-101.7c68.4 0 117.9-48.6 117.9-119.7s-49.5-119.7-117.9-119.7c-66.6 0-110.7 45.9-110.7 119.7 0 73.8 44.1 119.7 110.7 119.7zm289.44 302.4v-134.1h121.5V9405zm5.4-214.2V8775h109.8v415.8zm366.56 13.5c-127.8 0-215.1-86.4-215.1-222.3 0-135 90-220.5 226.8-220.5 68.4 0 124.2 22.5 173.7 67.5l-50.4 79.2c-35.1-32.4-75.6-49.5-123.3-49.5-65.7 0-107.1 33.3-117 95.4l-3.6 9.9 1.8 2.7c11.7-7.2 25.2-9 52.2-9h257.4v26.1c0 138.6-76.5 220.5-202.5 220.5zm-3.6-90c54.9 0 90.9-31.5 94.5-88.2l-1.8-1.8c-7.2 6.3-20.7 7.2-51.3 7.2h-98.1c-18.9 0-36.9-2.7-45-8.1l-1.8 1.8c7.2 55.8 46.8 89.1 103.5 89.1M3350.5 9661.5c116.1 0 196.2 89.1 196.2 221.4 0 130.5-80.1 221.4-196.2 221.4-72 0-125.1-35.1-153.9-100.8l-3.6.9c7.2 23.4 9.9 62.1 9.9 103.5v210.6h-109.8V9675h107.1c0 36-1.8 63-6.3 86.4l3.6.9c26.1-64.8 81-100.8 153-100.8zm-32.4 100.8c-71.1 0-119.7 48.6-119.7 120.6s48.6 120.6 119.7 120.6c70.2 0 113.4-45.9 113.4-120.6 0-74.7-43.2-120.6-113.4-120.6zm464.57 342c-127.8 0-215.1-86.4-215.1-222.3 0-135 90-220.5 226.8-220.5 68.4 0 124.2 22.5 173.7 67.5l-50.4 79.2c-35.1-32.4-75.6-49.5-123.3-49.5-65.7 0-107.1 33.3-117 95.4l-3.6 9.9 1.8 2.7c11.7-7.2 25.2-9 52.2-9h257.4v26.1c0 138.6-76.5 220.5-202.5 220.5zm-3.6-90c54.9 0 90.9-31.5 94.5-88.2l-1.8-1.8c-7.2 6.3-20.7 7.2-51.3 7.2h-98.1c-18.9 0-36.9-2.7-45-8.1l-1.8 1.8c7.2 55.8 46.8 89.1 103.5 89.1zm386.18 298.8-101.7-71.1v-114.3c0-15.3 0-27.9 5.4-42.3l-2.7-1.8c-8.1 6.3-18.9 7.2-38.7 7.2h-36v-98.1h36c21.6 0 30.6.9 38.7 6.3l2.7-1.8c-5.4-13.5-5.4-27-5.4-50.4V9675h110.7v271.8c0 23.4 0 36.9-4.5 50.4l2.7 1.8c8.1-5.4 17.1-6.3 37.8-6.3h44.1v98.1h-44.1c-18.9 0-29.7-.9-37.8-7.2l-2.7 1.8c4.5 14.4 4.5 27 4.5 42.3v185.4zm280.98-208.8c-47.7 0-103.5-7.2-156.6-20.7l21.6-92.7c55.8 13.5 90.9 18 123.3 18 56.7 0 89.1-23.4 91.8-66.6 0-23.4 1.8-45 7.2-61.2l-3.6-1.8c-28.8 46.8-77.4 72-139.5 72-90.9 0-150.3-55.8-150.3-144 0-87.3 59.4-145.8 148.5-145.8 63.9 0 112.5 29.7 143.1 89.1l3.6-1.8c-9.9-23.4-13.5-44.1-13.5-73.8h111.6v261.9c0 117.9-55.8 167.4-187.2 167.4zm-13.5-228.6c45 0 76.5-26.1 76.5-63.9s-31.5-64.8-77.4-64.8c-44.1 0-73.8 25.2-73.8 63.9 0 37.8 29.7 64.8 74.7 64.8zm441.98 228.6c-47.7 0-103.5-7.2-156.6-20.7l21.6-92.7c55.8 13.5 90.9 18 123.3 18 56.7 0 89.1-23.4 91.8-66.6 0-23.4 1.8-45 7.2-61.2l-3.6-1.8c-28.8 46.8-77.4 72-139.5 72-90.9 0-150.3-55.8-150.3-144 0-87.3 59.4-145.8 148.5-145.8 63.9 0 112.5 29.7 143.1 89.1l3.6-1.8c-9.9-23.4-13.5-44.1-13.5-73.8h111.6v261.9c0 117.9-55.8 167.4-187.2 167.4zm-13.5-228.6c45 0 76.5-26.1 76.5-63.9s-31.5-64.8-77.4-64.8c-44.1 0-73.8 25.2-73.8 63.9 0 37.8 29.7 64.8 74.7 64.8zm265.58 442.8V9675h109.8v643.5zm433.97-657c116.1 0 196.2 89.1 196.2 221.4 0 130.5-80.1 221.4-196.2 221.4-72 0-125.1-35.1-153.9-100.8l-3.6.9c7.2 23.4 9.9 62.1 9.9 103.5v210.6h-109.8V9675h107.1c0 36-1.8 63-6.3 86.4l3.6.9c26.1-64.8 81-100.8 153-100.8zm-32.4 100.8c-71.1 0-119.7 48.6-119.7 120.6s48.6 120.6 119.7 120.6c70.2 0 113.4-45.9 113.4-120.6 0-74.7-43.2-120.6-113.4-120.6zm450.35 342c-47.7 0-103.5-7.2-156.6-20.7l21.6-92.7c55.8 13.5 90.9 18 123.3 18 56.7 0 89.1-23.4 91.8-66.6 0-23.4 1.8-45 7.2-61.2l-3.6-1.8c-28.8 46.8-77.4 72-139.5 72-90.9 0-150.3-55.8-150.3-144 0-87.3 59.4-145.8 148.5-145.8 63.9 0 112.5 29.7 143.1 89.1l3.6-1.8c-9.9-23.4-13.5-44.1-13.5-73.8h111.6v261.9c0 117.9-55.8 167.4-187.2 167.4zm-13.5-228.6c45 0 76.5-26.1 76.5-63.9s-31.5-64.8-77.4-64.8c-44.1 0-73.8 25.2-73.8 63.9 0 37.8 29.7 64.8 74.7 64.8zm504.09 227.7c-70.2 0-117.9-43.2-139.5-135.9l-3.6.9c7.2 43.2 11.7 85.5 11.7 122.4h-107.1V9675h109.8v176.4c0 93.6 42.3 135.9 117.9 135.9 9 0 16.2 0 34.2-1.8v117c-7.2.9-14.4.9-23.4.9zm241.91.9c-127.8 0-215.1-86.4-215.1-222.3 0-135 90-220.5 226.8-220.5 68.4 0 124.2 22.5 173.7 67.5l-50.4 79.2c-35.1-32.4-75.6-49.5-123.3-49.5-65.7 0-107.1 33.3-117 95.4l-3.6 9.9 1.8 2.7c11.7-7.2 25.2-9 52.2-9h257.4v26.1c0 138.6-76.5 220.5-202.5 220.5zm-3.6-90c54.9 0 90.9-31.5 94.5-88.2l-1.8-1.8c-7.2 6.3-20.7 7.2-51.3 7.2h-98.1c-18.9 0-36.9-2.7-45-8.1l-1.8 1.8c7.2 55.8 46.8 89.1 103.5 89.1zm688.48 90c-127.8 0-215.1-86.4-215.1-222.3 0-135 90-220.5 226.8-220.5 68.4 0 124.2 22.5 173.7 67.5l-50.4 79.2c-35.1-32.4-75.6-49.5-123.3-49.5-65.7 0-107.1 33.3-117 95.4l-3.6 9.9 1.8 2.7c11.7-7.2 25.2-9 52.2-9h257.4v26.1c0 138.6-76.5 220.5-202.5 220.5zm-3.6-90c54.9 0 90.9-31.5 94.5-88.2l-1.8-1.8c-7.2 6.3-20.7 7.2-51.3 7.2h-98.1c-18.9 0-36.9-2.7-45-8.1l-1.8 1.8c7.2 55.8 46.8 89.1 103.5 89.1zm504.98 90c-77.4 0-124.2-42.3-151.2-109.8l-3.6 1.8c6.3 27.9 9 48.6 9 94.5h-109.8V9675h109.8v199.8c0 87.3 39.6 129.6 102.6 129.6 51.3 0 80.1-31.5 80.1-93.6V9675h110.7v267.3c0 105.3-53.1 162-147.6 162M5399.9 2936.23c-481.55 0-871.93 379.28-871.93 847.24 0 380.38 257.67 702.04 612.81 809.29V4277.3c-184.87-91.75-311.7-278.17-311.7-493.83 0-306.35 255.47-554.65 570.82-554.65 315.33 0 570.8 248.3 570.8 554.65 0 216.25-127.47 403.03-313.15 494.56v315.13c355.83-106.76 614.42-428.79 614.42-809.69 0-467.96-390.42-847.24-872.07-847.24m-124.39 1820.23c0 54.24 56 113.91 124.81 113.91 68.64 0 124.17-59.67 124.17-113.91v-559.31c0-53.96-55.53-113.05-124.17-113.05-68.81 0-124.81 59.09-124.81 113.05v559.31zM5399.62 5400c-925.8 0-1676.3-729.33-1676.3-1628.99 0-900.07 750.5-1629.22 1676.3-1629.22 925.77 0 1676.31 729.15 1676.31 1629.22 0 899.66-750.54 1628.99-1676.31 1628.99M3475.21 3785.25c0 73.85-67.32 133.68-128.82 133.68h-734.15c-61.92 0-129.87-59.83-129.87-133.68 0-74.07 67.95-134.24 129.87-134.24h734.15c61.5 0 128.82 60.17 128.82 134.24M8317.63 3785.25c0 73.85-67.35 133.68-128.83 133.68h-734.14c-61.86 0-129.8-59.83-129.8-133.68 0-74.07 67.94-134.24 129.8-134.24h734.14c61.48 0 128.83 60.17 128.83 134.24M5400.32 5655.29c75.88 0 137.5 65.45 137.5 125.15v713.4c0 60.2-61.62 126.16-137.5 126.16-76.16 0-138.21-65.96-138.21-126.16v-713.4c0-59.7 62.05-125.15 138.21-125.15M5400.32 950c75.88 0 137.5 65.44 137.5 125.18v713.31c0 60.1-61.62 126.19-137.5 126.19-76.16 0-138.21-66.09-138.21-126.19v-713.31c0-59.74 62.05-125.18 138.21-125.18M3729.57 4714.22c37.81 64.16 9.98 148.54-43.47 178.23l-637.16 354.31c-53.73 29.96-143.26 10.78-181.04-53.28-37.81-64.28-9.57-149.28 44.17-179.24l637.15-354.32c53.29-29.65 142.51-9.97 180.35 54.3M7932.36 2376.98c37.68 64.04 9.85 148.54-43.44 178.23l-637.16 354.32c-53.74 29.87-143.36 10.71-181.05-53.44-37.84-64.13-9.66-149.28 44.07-179.09l637.17-354.32c53.38-29.68 142.5-9.97 180.41 54.3M6356.37 5408.1c65.94-36.62 152.71-9.58 183.32 42.21l364.64 619.13c30.8 52.31 11.09 139.3-54.84 176.01-66.09 36.8-153.68 9.3-184.45-42.91l-364.61-619.07c-30.55-51.94-10.29-138.63 55.94-175.37M3951.04 1324.27c65.9-36.62 152.81-9.54 183.35 42.3l364.64 619.07c30.74 52.22 11.03 139.36-54.9 175.98-66.02 36.75-153.69 9.3-184.39-42.82l-364.64-619.13c-30.52-51.82-10.21-138.62 55.94-175.4M4440.72 5406.47c65.86 36.84 85.73 123.37 55.05 175.19l-365.96 618.45c-30.95 52.12-118.08 79.44-184.01 42.64-66.18-36.83-85.89-124.13-54.94-176.26l365.91-618.33c30.74-51.79 117.8-78.58 183.95-41.69M6854.61 1327.46c65.89 36.81 85.73 123.37 55.13 175.09l-365.94 618.46c-30.99 52.16-118.15 79.53-184.11 42.7-66.08-36.83-85.86-124.1-54.84-176.32L6670.76 1369c30.61-51.72 117.77-78.43 183.85-41.54M7068.76 4717.14c37.84-63.94 126.89-83.25 180.21-53.5l636.32 355.6c53.73 30.03 82.07 114.81 44.16 178.81-38.03 64.15-127.72 83.43-181.45 53.44l-636.41-355.61c-53.29-29.74-80.87-114.58-42.83-178.74M2870.96 2371.46c37.84-63.94 126.9-83.24 180.19-53.41l636.35 355.58c53.73 29.96 82.04 114.74 44 178.77-37.82 64.21-127.72 83.43-181.29 53.47l-636.42-355.61c-53.32-29.74-80.8-114.58-42.83-178.8" transform="matrix(.13333 0 0 -.13333 0 1440)"/></svg>