<svg xmlns="http://www.w3.org/2000/svg" height="1440" width="1440" xml:space="preserve"><path style="fill:#fff;fill-opacity:1;fill-rule:nonzero;stroke:none" d="M1545.45 7140.39c678.93 0 1083.59 332.72 1083.59 890.25 0 422.65-242.79 723.89-633.96 786.84v17.99c328.22 58.45 544.04 328.22 544.04 683.42 0 485.61-386.68 791.31-993.67 791.31-602.489 0-989.165-305.7-989.165-791.31 0-355.2 215.817-624.97 544.045-683.42v-17.99c-395.67-62.95-633.971-364.19-633.971-786.84 0-557.53 404.661-890.25 1079.091-890.25zm0 1928.88c-256.28 0-422.64 148.37-422.64 382.18 0 229.31 166.36 382.18 422.64 382.18 256.29 0 427.14-152.87 427.14-382.18 0-233.81-170.85-382.18-427.14-382.18zm0-1425.3c-310.24 0-503.57 184.34-503.57 467.6 0 292.26 197.83 476.6 503.57 476.6 310.24 0 508.08-184.34 508.08-476.6 0-283.26-193.34-467.6-508.08-467.6M3100.3 9204.3c-127.8 0-215.1-86.4-215.1-222.3 0-135 90-220.5 226.8-220.5 68.4 0 124.2 22.5 173.7 67.5l-50.4 79.2c-35.1-32.4-75.6-49.5-123.3-49.5-65.7 0-107.1 33.3-117 95.4l-3.6 9.9 1.8 2.7c11.7-7.2 25.2-9 52.2-9h257.4v26.1c0 138.6-76.5 220.5-202.5 220.5zm-3.6-90c54.9 0 90.9-31.5 94.5-88.2l-1.8-1.8c-7.2 6.3-20.7 7.2-51.3 7.2H3040c-18.9 0-36.9-2.7-45-8.1l-1.8 1.8c7.2 55.8 46.8 89.1 103.5 89.1zm453.5-352.8c54 0 100.8 13.5 145.8 41.4l-47.7 90.9c-29.7-19.8-62.1-28.8-96.3-28.8-69.3 0-117.9 48.6-117.9 117.9 0 69.3 48.6 117.9 117.9 117.9 34.2 0 66.6-9 96.3-28.8l47.7 90.9c-45 27.9-91.8 41.4-145.8 41.4-135.9 0-229.5-90-229.5-221.4s93.6-221.4 229.5-221.4zm373.58 442.8c-133.2 0-230.4-91.8-230.4-221.4 0-129.6 97.2-221.4 230.4-221.4s230.4 91.8 230.4 221.4c0 129.6-97.2 221.4-230.4 221.4zm0-104.4c68.4 0 117-45.9 117-117s-48.6-117-117-117-117 45.9-117 117 48.6 117 117 117zm528.57 104.4c-77.4 0-124.2-42.3-151.2-109.8l-3.6 1.8c6.3 27.9 9 48.6 9 94.5h-109.8V8775h109.8v199.8c0 87.3 39.6 129.6 102.6 129.6 51.3 0 80.1-31.5 80.1-93.6V8775h110.7v267.3c0 105.3-53.1 162-147.6 162zm416.87 0c-133.2 0-230.4-91.8-230.4-221.4 0-129.6 97.2-221.4 230.4-221.4s230.4 91.8 230.4 221.4c0 129.6-97.2 221.4-230.4 221.4zm0-104.4c68.4 0 117-45.9 117-117s-48.6-117-117-117-117 45.9-117 117 48.6 117 117 117zm382.76-324.9v205.2c0 87.3 33.3 123.3 86.4 123.3 49.5 0 76.5-27 76.5-95.4V8775h107.1v205.2c0 87.3 32.4 123.3 86.4 123.3 49.5 0 75.6-27 75.6-96.3V8775h110.7v268.2c0 107.1-53.1 161.1-139.5 161.1-73.8 0-120.6-41.4-140.4-100.8h-3.6c-16.2 64.8-55.8 100.8-126.9 100.8-71.1 0-112.5-32.4-139.5-102.6l-3.6 1.8c7.2 28.8 9.9 55.8 9.9 87.3h-108.9V8775zm603.09 630v-134.1h121.5V9405zm5.4-214.2V8775h109.8v415.8zm314.27-429.3c108 0 170.1 48.6 170.1 133.2 0 56.7-27 91.8-90 119.7l-72.9 32.4c-31.5 14.4-41.4 23.4-41.4 39.6 0 18 13.5 26.1 43.2 26.1 33.3 0 73.8-9.9 115.2-27.9l36.9 90c-50.4 18.9-100.8 29.7-147.6 29.7-100.8 0-159.3-45.9-159.3-124.2 0-55.8 29.7-97.2 92.7-124.2l75.6-34.2c27-12.6 36-21.6 36-36 0-20.7-16.2-30.6-53.1-30.6-45 0-90.9 13.5-137.7 42.3l-44.1-91.8c50.4-27.9 113.4-44.1 176.4-44.1zm412.02 0c54 0 100.8 13.5 145.8 41.4l-47.7 90.9c-29.7-19.8-62.1-28.8-96.3-28.8-69.3 0-117.9 48.6-117.9 117.9 0 69.3 48.6 117.9 117.9 117.9 34.2 0 66.6-9 96.3-28.8l47.7 90.9c-45 27.9-91.8 41.4-145.8 41.4-135.9 0-229.5-90-229.5-221.4s93.6-221.4 229.5-221.4zm177.56 657V8775h109.8v199.8c0 87.3 40.5 129.6 102.6 129.6 51.3 0 80.1-28.8 80.1-93.6V8775h110.7v267.3c0 104.4-55.8 162-148.5 162-74.7 0-121.5-38.7-150.3-104.4l-3.6.9c6.3 34.2 9 61.2 9 108.9v208.8zm658.79-214.2c-127.8 0-215.1-86.4-215.1-222.3 0-135 90-220.5 226.8-220.5 68.4 0 124.2 22.5 173.7 67.5l-50.4 79.2c-35.1-32.4-75.6-49.5-123.3-49.5-65.7 0-107.1 33.3-117 95.4l-3.6 9.9 1.8 2.7c11.7-7.2 25.2-9 52.2-9h257.4v26.1c0 138.6-76.5 220.5-202.5 220.5zm-3.6-90c54.9 0 90.9-31.5 94.5-88.2l-1.8-1.8c-7.2 6.3-20.7 7.2-51.3 7.2h-98.1c-18.9 0-36.9-2.7-45-8.1l-1.8 1.8c7.2 55.8 46.8 89.1 103.5 89.1zm669.58 90c-115.2 0-196.2-89.1-196.2-221.4 0-130.5 80.1-216.9 195.3-216.9 69.3 0 121.5 32.4 153.9 96.3l3.6-.9c-5.4-21.6-7.2-36.9-7.2-61.2v-12.6c0-64.8-51.3-102.6-128.7-102.6-53.1 0-96.3 13.5-143.1 41.4l-49.5-94.5c53.1-32.4 115.2-50.4 197.1-50.4 145.8 0 232.2 65.7 232.2 220.5v388.8h-110.7c0-43.2 2.7-64.8 9.9-86.4l-3.6-.9c-27.9 62.1-78.3 100.8-153 100.8zm29.7-101.7c68.4 0 117.9-48.6 117.9-119.7s-49.5-119.7-117.9-119.7c-66.6 0-110.7 45.9-110.7 119.7 0 73.8 44.1 119.7 110.7 119.7zm532.8 100.8c-70.2 0-117.9-43.2-139.5-135.9l-3.6.9c7.2 43.2 11.7 85.5 11.7 122.4h-107.1V8775h109.8v176.4c0 93.6 42.3 135.9 117.9 135.9 9 0 16.2 0 34.2-1.8v117c-7.2.9-14.4.9-23.4.9zm256.22.9c-133.2 0-230.4-91.8-230.4-221.4 0-129.6 97.2-221.4 230.4-221.4s230.4 91.8 230.4 221.4c0 129.6-97.2 221.4-230.4 221.4zm0-104.4c68.4 0 117-45.9 117-117s-48.6-117-117-117-117 45.9-117 117 48.6 117 117 117zm464.21 104.4c-127.8 0-215.1-86.4-215.1-222.3 0-135 90-220.5 226.8-220.5 68.4 0 124.2 22.5 173.7 67.5l-50.4 79.2c-35.1-32.4-75.6-49.5-123.3-49.5-65.7 0-107.1 33.3-117 95.4l-3.6 9.9 1.8 2.7c11.7-7.2 25.2-9 52.2-9h257.4v26.1c0 138.6-76.5 220.5-202.5 220.5zm-3.6-90c54.9 0 90.9-31.5 94.5-88.2l-1.8-1.8c-7.2 6.3-20.7 7.2-51.3 7.2h-98.1c-18.9 0-36.9-2.7-45-8.1l-1.8 1.8c7.2 55.8 46.8 89.1 103.5 89.1zm242.1 290.7v-134.1h121.49V9405zm5.39-214.2V8775h109.8v415.8h-109.8M3100.3 10104.3c-127.8 0-215.1-86.4-215.1-222.3 0-135 90-220.5 226.8-220.5 68.4 0 124.2 22.5 173.7 67.5l-50.4 79.2c-35.1-32.4-75.6-49.5-123.3-49.5-65.7 0-107.1 33.3-117 95.4l-3.6 9.9 1.8 2.7c11.7-7.2 25.2-9 52.2-9h257.4v26.1c0 138.6-76.5 220.5-202.5 220.5zm-3.6-90c54.9 0 90.9-31.5 94.5-88.2l-1.8-1.8c-7.2 6.3-20.7 7.2-51.3 7.2H3040c-18.9 0-36.9-2.7-45-8.1l-1.8 1.8c7.2 55.8 46.8 89.1 103.5 89.1zm439.1 90c-127.8 0-215.1-86.4-215.1-222.3 0-135 90-220.5 226.8-220.5 68.4 0 124.2 22.5 173.7 67.5l-50.4 79.2c-35.1-32.4-75.6-49.5-123.3-49.5-65.7 0-107.1 33.3-117 95.4l-3.6 9.9 1.8 2.7c11.7-7.2 25.2-9 52.2-9h257.4v26.1c0 138.6-76.5 220.5-202.5 220.5zm-3.6-90c54.9 0 90.9-31.5 94.5-88.2l-1.8-1.8c-7.2 6.3-20.7 7.2-51.3 7.2h-98.1c-18.9 0-36.9-2.7-45-8.1l-1.8 1.8c7.2 55.8 46.8 89.1 103.5 89.1zm487.88 89.1c-70.2 0-117.9-43.2-139.5-135.9l-3.6.9c7.2 43.2 11.7 85.5 11.7 122.4h-107.1V9675h109.8v176.4c0 93.6 42.3 135.9 117.9 135.9 9 0 16.2 0 34.2-1.8v117c-7.2.9-14.4.9-23.4.9zm47.25 215.1V9675h109.8v643.5zm171.26-13.5v-134.1h121.5v134.1zm5.4-214.2V9675h109.8v415.8zm172.16 214.2v-134.1h121.5v134.1zm5.4-214.2v-427.5c0-48.6-20.7-77.4-67.5-77.4h-8.1v-104.4h9.9c108.9 0 175.5 53.1 175.5 178.2v431.1zm176.93 227.7V9675h109.8v120.6c0 37.8-3.6 65.7-10.8 86.4l2.7 1.8 170.1-208.8h143.1l-167.4 193.5c-18.9 18.9-27.9 26.1-37.8 29.7v3.6c9.9 3.6 21.6 10.8 43.2 34.2l144.9 154.8h-137.7l-158.4-183.6-2.7.9c7.2 21.6 10.8 51.3 10.8 90.9v319.5zm852.28-649.8 84.6 179.1c17.1 36 23.4 49.5 27 72.9h3.6c3.6-23.4 9.9-36.9 27-72.9l84.6-179.1h29.7l183.6 422.1h-122.4l-59.4-158.4c-14.4-38.7-19.8-52.2-22.5-78.3h-3.6c-3.6 26.1-9.9 38.7-28.8 79.2l-76.5 164.7h-27.9l-75.6-164.7c-18.9-40.5-25.2-53.1-28.8-79.2h-3.6c-3.6 26.1-8.1 39.6-22.5 78.3l-60.3 158.4h-121.5l183.6-422.1zm633.86 435.6c-127.8 0-215.1-86.4-215.1-222.3 0-135 90-220.5 226.8-220.5 68.4 0 124.2 22.5 173.7 67.5l-50.4 79.2c-35.1-32.4-75.6-49.5-123.3-49.5-65.7 0-107.1 33.3-117 95.4l-3.6 9.9 1.8 2.7c11.7-7.2 25.2-9 52.2-9h257.4v26.1c0 138.6-76.5 220.5-202.5 220.5zm-3.6-90c54.9 0 90.9-31.5 94.5-88.2l-1.8-1.8c-7.2 6.3-20.7 7.2-51.3 7.2h-98.1c-18.9 0-36.9-2.7-45-8.1l-1.8 1.8c7.2 55.8 46.8 89.1 103.5 89.1zm487.88 89.1c-70.2 0-117.9-43.2-139.5-135.9l-3.6.9c7.2 43.2 11.7 85.5 11.7 122.4h-107.1V9675h109.8v176.4c0 93.6 42.3 135.9 117.9 135.9 9 0 16.2 0 34.2-1.8v117c-7.2.9-14.4.9-23.4.9zm47.34 215.1V9675h109.8v120.6c0 37.8-3.6 65.7-10.8 86.4l2.7 1.8 170.1-208.8h143.1l-167.4 193.5c-18.9 18.9-27.9 26.1-37.8 29.7v3.6c9.9 3.6 21.6 10.8 43.2 34.2l144.9 154.8h-137.7l-158.4-183.6-2.7.9c7.2 21.6 10.8 51.3 10.8 90.9v319.5zm873.88-214.2c-127.8 0-215.1-86.4-215.1-222.3 0-135 90-220.5 226.8-220.5 68.4 0 124.2 22.5 173.7 67.5l-50.4 79.2c-35.1-32.4-75.6-49.5-123.3-49.5-65.7 0-107.1 33.3-117 95.4l-3.6 9.9 1.8 2.7c11.7-7.2 25.2-9 52.2-9h257.4v26.1c0 138.6-76.5 220.5-202.5 220.5zm-3.6-90c54.9 0 90.9-31.5 94.5-88.2l-1.8-1.8c-7.2 6.3-20.7 7.2-51.3 7.2h-98.1c-18.9 0-36.9-2.7-45-8.1l-1.8 1.8c7.2 55.8 46.8 89.1 103.5 89.1zm504.98 90c-77.4 0-124.2-42.3-151.2-109.8l-3.6 1.8c6.3 27.9 9 48.6 9 94.5h-109.8V9675h109.8v199.8c0 87.3 39.6 129.6 102.6 129.6 51.3 0 80.1-31.5 80.1-93.6V9675h110.7v267.3c0 105.3-53.1 162-147.6 162M7660.53 5339.23 6477.18 4245.39c-44.67-43.18-67.55-74.96-67.55-164.28V1015.42c0-35.979 30.25-65.42 67.55-65.42h1222.35c37.24 0 67.32 29.441 67.32 65.42v4296.21c0 36.19-29.12 102.25-106.32 27.6M4251.41 3914.14 3067.94 2820.43c-44.52-43.24-67.48-74.96-67.48-164.15V1015.42c0-35.818 30.32-65.291 67.48-65.291h1222.41c37.3 0 67.4 29.473 67.4 65.291v2871.25c0 36.27-29.39 102.46-106.34 27.47" transform="matrix(.13333 0 0 -.13333 0 1440)"/><path style="fill:#fff;fill-opacity:1;fill-rule:nonzero;stroke:none" d="M8198.39 6665.75c.44 8.72-2.76 18.06-10.02 24.92-6.24 5.9-14.2 8.64-21.92 9.33l-6.48-.43-9.69-.52-906.1-198.63-16.48-1.64c-6.49-1.22-12.64-4.39-17.65-8.99-13.36-13.11-13.36-34.27 0-47.39l10.23-9.94 206.95-201.01-2053.22-1995.12-948.28 921.52c-10.75 10.5-27.78 10.5-38.59 0l-257.3-250.1c-.21 0-.21-.27-.21-.27L2609.47 3430.61c-10.53-10.42-10.53-27.31 0-37.54l257.69-250.24c10.5-10.37 27.69-10.37 38.28 0l1501.22 1458.39 688.13-668.76c.71-1.01 1.06-2.13 2.19-3.14l257.4-249.83c10.65-10.51 27.84-10.51 38.56 0L7723.2 5943.78l217.31-211.04c13.36-13.11 35.12-13.11 48.33 0 6.35 6.2 9.47 13.75 9.88 21.7l.17 2.82 199.01 898.81.49 9.68" transform="matrix(.13333 0 0 -.13333 0 1440)"/><path style="fill:#fff;fill-opacity:1;fill-rule:nonzero;stroke:none" d="m5962.69 3722.2-572.57-560.96c-10.89-8.73-26.79-8.46-36.88 1.35L4834.5 3676.4c-94.93 91.93-115.43 17.37-115.43-18.74V1015.55c0-35.948 29.8-65.421 66.97-65.421h1222.7c37.03 0 67.27 29.473 67.27 65.421v2685.91c0 36.11-29.31 102.42-113.32 20.74" transform="matrix(.13333 0 0 -.13333 0 1440)"/></svg>