<svg xmlns="http://www.w3.org/2000/svg" height="1440" width="1440" xml:space="preserve"><path style="fill:#fff;fill-opacity:1;fill-rule:nonzero;stroke:none" d="M1566.54 10320.2c-642.962 0-1088.091-436.11-1088.091-1052.09 0-580.01 395.668-1011.65 926.221-1011.65 256.29 0 476.6 134.89 611.49 377.68l17.98-8.99c-53.95-130.39-116.9-220.31-274.27-413.65l-827.3-993.67h656.45l580.01 737.38c359.7 445.13 494.58 782.35 494.58 1227.47 0 683.43-436.13 1137.52-1097.07 1137.52zm4.49-512.54c328.23 0 535.05-202.33 535.05-530.56 0-319.23-206.82-521.56-535.05-521.56-323.73 0-530.55 202.33-530.55 521.56 0 319.23 211.32 530.56 530.55 530.56M8142.36 1888.7l-1231.09-690.35v1380.94l1231.09 690.65zm-4066.81-690.35v1275.98l1137.29-638.12zm-187.04 0L2657.64 1888.7v1381.24l1230.87-690.65zm1324.33 3819.91-1137.29-638.17v1276.16zm1511.39-638.14L5587.1 5018.26l1137.13 637.99zM5587.1 3427.36l1230.65 690.32 1231.02-690.29-1231.02-690.62zm-280.65 157.45-1137.29 637.87 1137.29 638.13zm1324.17 637.83-1137.13-637.8v1275.97zM5306.45 1993.66 4169.1 2631.8l1137.35 638.14zm2976.22 1512.49-1371.4 769.04V5813.7c0 32.46-17.79 62.47-46.76 78.72l-1417.78 795.44c-28.98 16.19-64.55 16.19-93.52 0l-1417.94-795.44c-28.97-16.25-46.76-46.26-46.76-78.72V4275.19l-1371.18-769.04c-28.97-16.29-46.76-46.26-46.76-78.76V1836.21c0-32.46 17.79-62.47 46.76-78.72l1417.94-795.31c14.51-8.078 30.6-12.18 46.76-12.18 16.16 0 32.29 4.102 46.76 12.18l1371.18 769.07 1371.02-769.07a95.958 95.958 0 0 1 46.76-12.18c16.16 0 32.29 4.07 46.76 12.18l1418.16 795.31c28.97 16.22 46.76 46.26 46.76 78.72v1591.18c0 32.5-17.79 62.51-46.76 78.76M3230.3 9204.3c-127.8 0-215.1-86.4-215.1-222.3 0-135 90-220.5 226.8-220.5 68.4 0 124.2 22.5 173.7 67.5l-50.4 79.2c-35.1-32.4-75.6-49.5-123.3-49.5-65.7 0-107.1 33.3-117 95.4l-3.6 9.9 1.8 2.7c11.7-7.2 25.2-9 52.2-9h257.4v26.1c0 138.6-76.5 220.5-202.5 220.5zm-3.6-90c54.9 0 90.9-31.5 94.5-88.2l-1.8-1.8c-7.2 6.3-20.7 7.2-51.3 7.2H3170c-18.9 0-36.9-2.7-45-8.1l-1.8 1.8c7.2 55.8 46.8 89.1 103.5 89.1zm504.98 90c-77.4 0-124.2-42.3-151.2-109.8l-3.6 1.8c6.3 27.9 9 48.6 9 94.5h-109.8V8775h109.8v199.8c0 87.3 39.6 129.6 102.6 129.6 51.3 0 80.1-31.5 80.1-93.6V8775h110.7v267.3c0 105.3-53.1 162-147.6 162zm462.58 200.7v-134.1h121.5V9405zm5.4-214.2V8775h109.8v415.8zm432.53 13.5c-77.4 0-124.2-42.3-151.2-109.8l-3.6 1.8c6.3 27.9 9 48.6 9 94.5h-109.8V8775h109.8v199.8c0 87.3 39.6 129.6 102.6 129.6 51.3 0 80.1-31.5 80.1-93.6V8775h110.7v267.3c0 105.3-53.1 162-147.6 162zm425.6 208.8c-101.7 0-180.9-47.7-180.9-182.7v-15.3c.9-9.9.9-20.7 4.5-29.7l-1.8-1.8c-8.1 6.3-18.9 7.2-38.7 7.2h-36.9v-98.1h36.9c21.6 0 30.6.9 38.7 6.3l1.8-1.8c-4.5-13.5-4.5-31.5-4.5-50.4V8775h110.7v271.8c0 18.9 0 36.9-4.5 50.4l1.8 1.8c8.1-5.4 17.1-6.3 38.7-6.3h53.1v98.1h-53.1c-18.9 0-30.6-.9-38.7-7.2l-1.8 1.8c3.6 9 3.6 19.8 4.5 30.6v18.9c0 57.6 26.1 76.5 81 76.5h8.1v101.7zm284.57-209.7c-70.2 0-117.9-43.2-139.5-135.9l-3.6.9c7.2 43.2 11.7 85.5 11.7 122.4h-107.1V8775h109.8v176.4c0 93.6 42.3 135.9 117.9 135.9 9 0 16.2 0 34.2-1.8v117c-7.2.9-14.4.9-23.4.9zm212.04.9c-47.7 0-103.5-7.2-156.6-20.7l21.6-92.7c55.8 13.5 90.9 18 123.3 18 56.7 0 89.1-23.4 91.8-66.6 0-23.4 1.8-45 7.2-61.2l-3.6-1.8c-28.8 46.8-77.4 72-139.5 72-90.9 0-150.3-55.8-150.3-144 0-87.3 59.4-145.8 148.5-145.8 63.9 0 112.5 29.7 143.1 89.1l3.6-1.8c-9.9-23.4-13.5-44.1-13.5-73.8h111.6v261.9c0 117.9-55.8 167.4-187.2 167.4zm-13.5-228.6c45 0 76.5-26.1 76.5-63.9s-31.5-64.8-77.4-64.8c-44.1 0-73.8 25.2-73.8 63.9 0 37.8 29.7 64.8 74.7 64.8zm402.47-214.2c108 0 170.1 48.6 170.1 133.2 0 56.7-27 91.8-90 119.7l-72.9 32.4c-31.5 14.4-41.4 23.4-41.4 39.6 0 18 13.5 26.1 43.2 26.1 33.3 0 73.8-9.9 115.2-27.9l36.9 90c-50.4 18.9-100.8 29.7-147.6 29.7-100.8 0-159.3-45.9-159.3-124.2 0-55.8 29.7-97.2 92.7-124.2l75.6-34.2c27-12.6 36-21.6 36-36 0-20.7-16.2-30.6-53.1-30.6-45 0-90.9 13.5-137.7 42.3l-44.1-91.8c50.4-27.9 113.4-44.1 176.4-44.1zm350.64 651.6-101.7-71.1v-114.3c0-15.3 0-27.9 5.4-42.3l-2.7-1.8c-8.1 6.3-18.9 7.2-38.7 7.2h-36v-98.1h36c21.6 0 30.6.9 38.7 6.3l2.7-1.8c-5.4-13.5-5.4-27-5.4-50.4V8775h110.7v271.8c0 23.4 0 36.9-4.5 50.4l2.7 1.8c8.1-5.4 17.1-6.3 37.8-6.3h44.1v98.1h-44.1c-18.9 0-29.7-.9-37.8-7.2l-2.7 1.8c4.5 14.4 4.5 27 4.5 42.3v185.4zm354.32-209.7c-70.2 0-117.9-43.2-139.5-135.9l-3.6.9c7.2 43.2 11.7 85.5 11.7 122.4h-107.1V8775h109.8v176.4c0 93.6 42.3 135.9 117.9 135.9 9 0 16.2 0 34.2-1.8v117c-7.2.9-14.4.9-23.4.9zm326.7-12.6v-202.5c0-83.7-36-124.2-89.1-124.2-50.4 0-80.1 30.6-80.1 95.4v231.3h-113.4v-259.2c0-110.7 59.4-170.1 147.6-170.1 72.9 0 117 36.9 144.9 108.9l4.5-.9c-8.1-28.8-12.6-60.3-12.6-94.5h108.9v415.8zm383.03-429.3c54 0 100.8 13.5 145.8 41.4l-47.7 90.9c-29.7-19.8-62.1-28.8-96.3-28.8-69.3 0-117.9 48.6-117.9 117.9 0 69.3 48.6 117.9 117.9 117.9 34.2 0 66.6-9 96.3-28.8l47.7 90.9c-45 27.9-91.8 41.4-145.8 41.4-135.9 0-229.5-90-229.5-221.4s93.6-221.4 229.5-221.4zm330.92 651.6-101.7-71.1v-114.3c0-15.3 0-27.9 5.4-42.3l-2.7-1.8c-8.1 6.3-18.9 7.2-38.7 7.2h-36v-98.1h36c21.6 0 30.6.9 38.7 6.3l2.7-1.8c-5.4-13.5-5.4-27-5.4-50.4V8775h110.7v271.8c0 23.4 0 36.9-4.5 50.4l2.7 1.8c8.1-5.4 17.1-6.3 37.8-6.3h44.1v98.1h-44.1c-18.9 0-29.7-.9-37.8-7.2l-2.7 1.8c4.5 14.4 4.5 27 4.5 42.3v185.4zm395.18-222.3v-202.5c0-83.7-36-124.2-89.1-124.2-50.4 0-80.1 30.6-80.1 95.4v231.3h-113.4v-259.2c0-110.7 59.4-170.1 147.6-170.1 72.9 0 117 36.9 144.9 108.9l4.5-.9c-8.1-28.8-12.6-60.3-12.6-94.5h108.9v415.8zm455.85 0v-202.5c0-83.7-36-124.2-89.1-124.2-50.4 0-80.1 30.6-80.1 95.4v231.3h-113.4v-259.2c0-110.7 59.4-170.1 147.6-170.1 72.9 0 117 36.9 144.9 108.9l4.5-.9c-8.1-28.8-12.6-60.3-12.6-94.5h108.9v415.8zm415.79 12.6c-70.2 0-117.9-43.2-139.5-135.9l-3.6.9c7.2 43.2 11.7 85.5 11.7 122.4h-107.1V8775h109.8v176.4c0 93.6 42.3 135.9 117.9 135.9 9 0 16.2 0 34.2-1.8v117c-7.2.9-14.4.9-23.4.9M3037.7 10305v-134.1h121.5v134.1zm5.4-214.2V9675h109.8v415.8zm432.53 13.5c-77.4 0-124.2-42.3-151.2-109.8l-3.6 1.8c6.3 27.9 9 48.6 9 94.5h-109.8V9675h109.8v199.8c0 87.3 39.6 129.6 102.6 129.6 51.3 0 80.1-31.5 80.1-93.6V9675h110.7v267.3c0 105.3-53.1 162-147.6 162zm385.82-442.8c72 0 126.9 36 153 100.8l3.6-.9c-4.5-23.4-6.3-50.4-6.3-86.4h107.1v643.5h-109.8v-210.6c0-41.4 2.7-80.1 9.9-103.5l-3.6-.9c-28.8 65.7-81.9 100.8-153.9 100.8-116.1 0-196.2-90.9-196.2-221.4 0-132.3 80.1-221.4 196.2-221.4zm32.4 100.8c-70.2 0-113.4 45.9-113.4 120.6 0 74.7 43.2 120.6 113.4 120.6 71.1 0 119.7-48.6 119.7-120.6s-48.6-120.6-119.7-120.6zm571.31 328.5v-202.5c0-83.7-36-124.2-89.1-124.2-50.4 0-80.1 30.6-80.1 95.4v231.3h-113.4v-259.2c0-110.7 59.4-170.1 147.6-170.1 72.9 0 117 36.9 144.9 108.9l4.5-.9c-8.1-28.8-12.6-60.3-12.6-94.5h108.9v415.8zm315.62-429.3c108 0 170.1 48.6 170.1 133.2 0 56.7-27 91.8-90 119.7l-72.9 32.4c-31.5 14.4-41.4 23.4-41.4 39.6 0 18 13.5 26.1 43.2 26.1 33.3 0 73.8-9.9 115.2-27.9l36.9 90c-50.4 18.9-100.8 29.7-147.6 29.7-100.8 0-159.3-45.9-159.3-124.2 0-55.8 29.7-97.2 92.7-124.2l75.6-34.2c27-12.6 36-21.6 36-36 0-20.7-16.2-30.6-53.1-30.6-45 0-90.9 13.5-137.7 42.3l-44.1-91.8c50.4-27.9 113.4-44.1 176.4-44.1zm350.64 651.6-101.7-71.1v-114.3c0-15.3 0-27.9 5.4-42.3l-2.7-1.8c-8.1 6.3-18.9 7.2-38.7 7.2h-36v-98.1h36c21.6 0 30.6.9 38.7 6.3l2.7-1.8c-5.4-13.5-5.4-27-5.4-50.4V9675h110.7v271.8c0 23.4 0 36.9-4.5 50.4l2.7 1.8c8.1-5.4 17.1-6.3 37.8-6.3h44.1v98.1h-44.1c-18.9 0-29.7-.9-37.8-7.2l-2.7 1.8c4.5 14.4 4.5 27 4.5 42.3v185.4zm354.33-209.7c-70.2 0-117.9-43.2-139.5-135.9l-3.6.9c7.2 43.2 11.7 85.5 11.7 122.4h-107.1V9675h109.8v176.4c0 93.6 42.3 135.9 117.9 135.9 9 0 16.2 0 34.2-1.8v117c-7.2.9-14.4.9-23.4.9zm41.93 201.6v-134.1h121.5v134.1zm5.4-214.2V9675h109.8v415.8zm366.56 13.5c-127.8 0-215.1-86.4-215.1-222.3 0-135 90-220.5 226.8-220.5 68.4 0 124.2 22.5 173.7 67.5l-50.4 79.2c-35.1-32.4-75.6-49.5-123.3-49.5-65.7 0-107.1 33.3-117 95.4l-3.6 9.9 1.8 2.7c11.7-7.2 25.2-9 52.2-9h257.4v26.1c0 138.6-76.5 220.5-202.5 220.5zm-3.6-90c54.9 0 90.9-31.5 94.5-88.2l-1.8-1.8c-7.2 6.3-20.7 7.2-51.3 7.2h-98.1c-18.9 0-36.9-2.7-45-8.1l-1.8 1.8c7.2 55.8 46.8 89.1 103.5 89.1zm281.42-489.6 90.9 260.1h-123.3l-29.7-260.1zm403.18 780.3v-134.1h121.5v134.1zm5.4-214.2V9675h109.8v415.8zm432.53 13.5c-77.4 0-124.2-42.3-151.2-109.8l-3.6 1.8c6.3 27.9 9 48.6 9 94.5h-109.8V9675h109.8v199.8c0 87.3 39.6 129.6 102.6 129.6 51.3 0 80.1-31.5 80.1-93.6V9675h110.7v267.3c0 105.3-53.1 162-147.6 162zm468.53 0c-77.4 0-124.2-42.3-151.2-109.8l-3.6 1.8c6.3 27.9 9 48.6 9 94.5h-109.8V9675h109.8v199.8c0 87.3 39.6 129.6 102.6 129.6 51.3 0 80.1-31.5 80.1-93.6V9675h110.7v267.3c0 105.3-53.1 162-147.6 162zm416.87 0c-133.2 0-230.4-91.8-230.4-221.4 0-129.6 97.2-221.4 230.4-221.4s230.4 91.8 230.4 221.4c0 129.6-97.2 221.4-230.4 221.4zm0-104.4c68.4 0 117-45.9 117-117s-48.6-117-117-117-117 45.9-117 117 48.6 117 117 117zm529.92 90.9-71.1-169.2c-18.9-45.9-24.3-57.6-28.8-91.8h-1.8c-4.5 34.2-9.9 45.9-28.8 91.8l-70.2 169.2h-125.1l207-422.1h36.9l207 422.1zm311.84 13.5c-47.7 0-103.5-7.2-156.6-20.7l21.6-92.7c55.8 13.5 90.9 18 123.3 18 56.7 0 89.1-23.4 91.8-66.6 0-23.4 1.8-45 7.2-61.2l-3.6-1.8c-28.8 46.8-77.4 72-139.5 72-90.9 0-150.3-55.8-150.3-144 0-87.3 59.4-145.8 148.5-145.8 63.9 0 112.5 29.7 143.1 89.1l3.6-1.8c-9.9-23.4-13.5-44.1-13.5-73.8h111.6v261.9c0 117.9-55.8 167.4-187.2 167.4zm-13.5-228.6c45 0 76.5-26.1 76.5-63.9s-31.5-64.8-77.4-64.8c-44.1 0-73.8 25.2-73.8 63.9 0 37.8 29.7 64.8 74.7 64.8zm398.16 437.4-101.71-71.1v-114.3c0-15.3 0-27.9 5.41-42.3l-2.71-1.8c-8.1 6.3-18.9 7.2-38.7 7.2h-35.99v-98.1h35.99c21.6 0 30.6.9 38.7 6.3l2.71-1.8c-5.41-13.5-5.41-27-5.41-50.4V9675h110.7v271.8c0 23.4 0 36.9-4.49 50.4l2.69 1.8c8.1-5.4 17.11-6.3 37.81-6.3h44.09v98.1h-44.09c-18.91 0-29.71-.9-37.81-7.2l-2.69 1.8c4.49 14.4 4.49 27 4.49 42.3v185.4zm110.42-8.1v-134.1h121.5v134.1zm5.4-214.2V9675h109.8v415.8zm366.56 13.5c-127.8 0-215.1-86.4-215.1-222.3 0-135 90-220.5 226.8-220.5 68.4 0 124.2 22.5 173.7 67.5l-50.4 79.2c-35.1-32.4-75.6-49.5-123.3-49.5-65.7 0-107.1 33.3-117 95.4l-3.6 9.9 1.8 2.7c11.7-7.2 25.2-9 52.2-9h257.4v26.1c0 138.6-76.5 220.5-202.5 220.5zm-3.6-90c54.9 0 90.9-31.5 94.5-88.2l-1.8-1.8c-7.2 6.3-20.7 7.2-51.3 7.2h-98.1c-18.9 0-36.9-2.7-45-8.1l-1.8 1.8c7.2 55.8 46.8 89.1 103.5 89.1" transform="matrix(.13333 0 0 -.13333 0 1440)"/></svg>